OpenSans-LightItalic.ufo
<glyph name="exclam" format="2">
  <advance width="469"/>
  <unicode hex="0021"/>
  <outline>
    <contour>
      <point x="158" y="377" type="line"/>
      <point x="243" y="377" type="line"/>
      <point x="492" y="1462" type="line"/>
      <point x="373" y="1462" type="line"/>
    </contour>
    <contour>
      <point x="127" y="-21" type="curve" smooth="yes"/>
      <point x="190" y="-21"/>
      <point x="220" y="40"/>
      <point x="220" y="93" type="curve" smooth="yes"/>
      <point x="220" y="133"/>
      <point x="196" y="162"/>
      <point x="153" y="162" type="curve" smooth="yes"/>
      <point x="87" y="162"/>
      <point x="57" y="104"/>
      <point x="57" y="49" type="curve" smooth="yes"/>
      <point x="57" y="4"/>
      <point x="83" y="-21"/>
    </contour>
  </outline>
</glyph>
<glyph name="quotedbl" format="2">
  <advance width="721"/>
  <unicode hex="0022"/>
  <note>
quotedbl
</note>
  <outline>
    <contour>
      <point x="578" y="934" type="line"/>
      <point x="639" y="934" type="line"/>
      <point x="784" y="1462" type="line"/>
      <point x="657" y="1462" type="line"/>
    </contour>
    <contour>
      <point x="248" y="934" type="line"/>
      <point x="309" y="934" type="line"/>
      <point x="455" y="1462" type="line"/>
      <point x="328" y="1462" type="line"/>
    </contour>
  </outline>
</glyph>
<glyph name="numbersign" format="2">
  <advance width="1281.75"/>
  <unicode hex="0023"/>
  <outline>
    <contour>
      <point x="211.5" y="0.0" type="line"/>
      <point x="296.25" y="0.0" type="line"/>
      <point x="428.125" y="451.125" type="line"/>
      <point x="780.625" y="451.125" type="line"/>
      <point x="644.75" y="0.0" type="line"/>
      <point x="733.625" y="0.0" type="line"/>
      <point x="866.625" y="451.125" type="line"/>
      <point x="1170.625" y="451.125" type="line"/>
      <point x="1178.0" y="532.375" type="line"/>
      <point x="888.75" y="532.375" type="line"/>
      <point x="1000.375" y="926.875" type="line"/>
      <point x="1293.125" y="926.875" type="line"/>
      <point x="1300.875" y="1007.375" type="line"/>
      <point x="1023.25" y="1007.375" type="line"/>
      <point x="1153.75" y="1462.0" type="line"/>
      <point x="1069.75" y="1462.0" type="line"/>
      <point x="937.75" y="1007.375" type="line"/>
      <point x="589.0" y="1007.375" type="line"/>
      <point x="719.0" y="1462.0" type="line"/>
      <point x="631.625" y="1462.0" type="line"/>
      <point x="501.5" y="1007.375" type="line"/>
      <point x="200.0" y="1007.375" type="line"/>
      <point x="192.625" y="926.875" type="line"/>
      <point x="478.875" y="926.875" type="line"/>
      <point x="362.375" y="532.375" type="line"/>
      <point x="75.25" y="532.375" type="line"/>
      <point x="67.875" y="451.125" type="line"/>
      <point x="339.625" y="451.125" type="line"/>
    </contour>
    <contour>
      <point x="450.25" y="532.375" type="line"/>
      <point x="564.875" y="926.875" type="line"/>
      <point x="912.875" y="926.875" type="line"/>
      <point x="802.75" y="532.375" type="line"/>
    </contour>
  </outline>
</glyph>
<glyph name="dollar" format="2">
  <advance width="1128"/>
  <unicode hex="0024"/>
  <note>
dollar
</note>
  <outline>
    <contour>
      <point x="385" y="-119" type="line"/>
      <point x="467" y="-119" type="line"/>
      <point x="520" y="121" type="line"/>
      <point x="769" y="136"/>
      <point x="928" y="266"/>
      <point x="928" y="467" type="curve" smooth="yes"/>
      <point x="928" y="511"/>
      <point x="920" y="549"/>
      <point x="903" y="582" type="curve" smooth="yes"/>
      <point x="872" y="642"/>
      <point x="829" y="684"/>
      <point x="691" y="753" type="curve" smooth="yes"/>
      <point x="680" y="759"/>
      <point x="669" y="764"/>
      <point x="657" y="770" type="curve"/>
      <point x="766" y="1284" type="line"/>
      <point x="863" y="1278"/>
      <point x="949" y="1255"/>
      <point x="1022" y="1214" type="curve"/>
      <point x="1057" y="1292" type="line"/>
      <point x="972" y="1334"/>
      <point x="879" y="1357"/>
      <point x="780" y="1360" type="curve"/>
      <point x="821" y="1552" type="line"/>
      <point x="741" y="1552" type="line"/>
      <point x="700" y="1360" type="line"/>
      <point x="477" y="1355"/>
      <point x="322" y="1217"/>
      <point x="322" y="1010" type="curve" smooth="yes"/>
      <point x="322" y="965"/>
      <point x="330" y="927"/>
      <point x="346" y="894" type="curve" smooth="yes"/>
      <point x="376" y="829"/>
      <point x="416" y="788"/>
      <point x="557" y="719" type="curve" smooth="yes"/>
      <point x="560" y="718"/>
      <point x="562" y="716"/>
      <point x="565" y="715" type="curve"/>
      <point x="455" y="203" type="line"/>
      <point x="359" y="203"/>
      <point x="228" y="231"/>
      <point x="141" y="276" type="curve"/>
      <point x="141" y="182" type="line"/>
      <point x="218" y="146"/>
      <point x="331" y="124"/>
      <point x="436" y="121" type="curve"/>
    </contour>
    <contour>
      <point x="537" y="203" type="curve"/>
      <point x="637" y="688" type="line"/>
      <point x="782" y="629"/>
      <point x="842" y="562"/>
      <point x="842" y="461" type="curve" smooth="yes"/>
      <point x="842" y="306"/>
      <point x="726" y="212"/>
    </contour>
    <contour>
      <point x="584" y="793" type="line"/>
      <point x="451" y="854"/>
      <point x="410" y="914"/>
      <point x="410" y="1018" type="curve" smooth="yes"/>
      <point x="410" y="1171"/>
      <point x="507" y="1272"/>
      <point x="686" y="1284" type="curve"/>
    </contour>
  </outline>
</glyph>
<glyph name="percent" format="2">
  <advance width="1590.375"/>
  <unicode hex="0025"/>
  <outline>
    <contour>
      <point x="240.375" y="0.0" type="line"/>
      <point x="338.5" y="0.0" type="line"/>
      <point x="1420.125" y="1462.0" type="line"/>
      <point x="1322.0" y="1462.0" type="line"/>
    </contour>
    <contour>
      <point x="390.25" y="565.0" type="curve" smooth="yes"/>
      <point x="677.0" y="565.0"/>
      <point x="769.875" y="1004.875"/>
      <point x="769.875" y="1212.625" type="curve" smooth="yes"/>
      <point x="769.875" y="1391.375"/>
      <point x="693.375" y="1483.0"/>
      <point x="550.5" y="1483.0" type="curve" smooth="yes"/>
      <point x="263.625" y="1483.0"/>
      <point x="171.5" y="1066.0"/>
      <point x="171.5" y="845.75" type="curve" smooth="yes"/>
      <point x="171.5" y="658.125"/>
      <point x="252.5" y="565.0"/>
    </contour>
    <contour>
      <point x="397.125" y="647.5" type="curve" smooth="yes"/>
      <point x="310.875" y="647.5"/>
      <point x="261.0" y="712.25"/>
      <point x="261.0" y="849.0" type="curve" smooth="yes"/>
      <point x="261.0" y="1029.75"/>
      <point x="335.125" y="1401.25"/>
      <point x="544.75" y="1401.25" type="curve" smooth="yes"/>
      <point x="633.625" y="1401.25"/>
      <point x="679.375" y="1341.125"/>
      <point x="679.375" y="1205.0" type="curve" smooth="yes"/>
      <point x="679.375" y="1036.875"/>
      <point x="607.75" y="647.5"/>
    </contour>
    <contour>
      <point x="1106.0" y="-23.125" type="curve" smooth="yes"/>
      <point x="1393.0" y="-23.125"/>
      <point x="1486.0" y="417.0"/>
      <point x="1486.0" y="624.875" type="curve" smooth="yes"/>
      <point x="1486.0" y="803.25"/>
      <point x="1409.5" y="894.5"/>
      <point x="1266.25" y="894.5" type="curve" smooth="yes"/>
      <point x="979.75" y="894.5"/>
      <point x="886.875" y="478.25"/>
      <point x="886.875" y="256.5" type="curve" smooth="yes"/>
      <point x="886.875" y="68.875"/>
      <point x="967.875" y="-23.125"/>
    </contour>
    <contour>
      <point x="1112.5" y="59.99999999999999" type="curve" smooth="yes"/>
      <point x="1026.625" y="59.99999999999999"/>
      <point x="978.125" y="123.75"/>
      <point x="978.125" y="260.875" type="curve" smooth="yes"/>
      <point x="978.125" y="441.625"/>
      <point x="1051.5" y="812.75"/>
      <point x="1260.125" y="812.75" type="curve" smooth="yes"/>
      <point x="1349.375" y="812.75"/>
      <point x="1395.75" y="752.625"/>
      <point x="1395.75" y="617.125" type="curve" smooth="yes"/>
      <point x="1395.75" y="449.5"/>
      <point x="1324.125" y="59.99999999999999"/>
    </contour>
  </outline>
</glyph>
<glyph name="ampersand" format="2">
  <advance width="1389.875"/>
  <unicode hex="0026"/>
  <outline>
    <contour>
      <point x="451.375" y="-20.0" type="curve" smooth="yes"/>
      <point x="674.125" y="-20.0"/>
      <point x="817.75" y="69.375"/>
      <point x="959.25" y="194.375" type="curve"/>
      <point x="1094.125" y="0.0" type="line"/>
      <point x="1213.375" y="0.0" type="line"/>
      <point x="1028.5" y="257.0" type="line"/>
      <point x="1143.75" y="374.5"/>
      <point x="1242.25" y="511.5"/>
      <point x="1314.75" y="679.5" type="curve"/>
      <point x="1212.25" y="679.5" type="line"/>
      <point x="1156.75" y="547.75"/>
      <point x="1072.25" y="418.75"/>
      <point x="975.375" y="328.25" type="curve"/>
      <point x="649.125" y="784.625" type="line"/>
      <point x="882.25" y="895.5"/>
      <point x="1065.5" y="986.25"/>
      <point x="1065.5" y="1211.375" type="curve" smooth="yes"/>
      <point x="1065.5" y="1372.0"/>
      <point x="943.5" y="1485.0"/>
      <point x="770.5" y="1485.0" type="curve" smooth="yes"/>
      <point x="539.125" y="1485.0"/>
      <point x="394.0" y="1330.5"/>
      <point x="394.0" y="1122.25" type="curve" smooth="yes"/>
      <point x="394.0" y="1012.875"/>
      <point x="442.25" y="915.125"/>
      <point x="517.5" y="809.75" type="curve"/>
      <point x="257.5" y="690.75"/>
      <point x="84.75" y="568.5"/>
      <point x="84.75" y="315.875" type="curve" smooth="yes"/>
      <point x="84.75" y="101.0"/>
      <point x="239.125" y="-20.0"/>
    </contour>
    <contour>
      <point x="468.25" y="67.75" type="curve" smooth="yes"/>
      <point x="313.125" y="67.75"/>
      <point x="186.5" y="160.75"/>
      <point x="186.5" y="322.875" type="curve" smooth="yes"/>
      <point x="186.5" y="540.75"/>
      <point x="345.375" y="644.25"/>
      <point x="563.75" y="745.0" type="curve"/>
      <point x="908.875" y="262.125" type="line"/>
      <point x="778.75" y="147.0"/>
      <point x="656.125" y="67.75"/>
    </contour>
    <contour>
      <point x="602.75" y="849.5" type="curve"/>
      <point x="530.375" y="947.875"/>
      <point x="492.875" y="1030.25"/>
      <point x="492.875" y="1123.5" type="curve" smooth="yes"/>
      <point x="492.875" y="1296.25"/>
      <point x="607.75" y="1398.375"/>
      <point x="762.125" y="1398.375" type="curve" smooth="yes"/>
      <point x="879.625" y="1398.375"/>
      <point x="965.875" y="1320.25"/>
      <point x="965.875" y="1206.125" type="curve" smooth="yes"/>
      <point x="965.875" y="1008.875"/>
      <point x="757.375" y="920.125"/>
    </contour>
  </outline>
</glyph>
<glyph name="quotesingle" format="2">
  <advance width="403"/>
  <unicode hex="0027"/>
  <note>
quotesingle
</note>
  <outline>
    <contour>
      <point x="254" y="934" type="line"/>
      <point x="315" y="934" type="line"/>
      <point x="461" y="1462" type="line"/>
      <point x="334" y="1462" type="line"/>
    </contour>
  </outline>
</glyph>
<glyph name="parenleft" format="2">
  <advance width="532.75"/>
  <unicode hex="0028"/>
  <outline>
    <contour>
      <point x="210.25" y="-324.0" type="curve"/>
      <point x="299.625" y="-324.0" type="line"/>
      <point x="214.375" y="-159.75"/>
      <point x="169.625" y="33.25"/>
      <point x="169.625" y="254.0" type="curve" smooth="yes"/>
      <point x="169.625" y="715.5"/>
      <point x="367.25" y="1146.0"/>
      <point x="680.125" y="1462.0" type="curve"/>
      <point x="574.125" y="1462.0" type="line"/>
      <point x="273.375" y="1162.5"/>
      <point x="72.0" y="746.875"/>
      <point x="72.0" y="253.25" type="curve" smooth="yes"/>
      <point x="72.0" y="32.0"/>
      <point x="121.25" y="-165.5"/>
    </contour>
  </outline>
</glyph>
<glyph name="parenright" format="2">
  <advance width="533"/>
  <unicode hex="0029"/>
  <outline>
    <contour>
      <point x="-140" y="-324" type="curve"/>
      <point x="-35" y="-324" type="line"/>
      <point x="267" y="-25"/>
      <point x="468" y="391"/>
      <point x="468" y="885" type="curve" smooth="yes"/>
      <point x="468" y="1107"/>
      <point x="418" y="1303"/>
      <point x="330" y="1462" type="curve"/>
      <point x="241" y="1462" type="line"/>
      <point x="326" y="1298"/>
      <point x="370" y="1105"/>
      <point x="370" y="885" type="curve" smooth="yes"/>
      <point x="370" y="423"/>
      <point x="173" y="-7"/>
    </contour>
  </outline>
</glyph>
<glyph name="asterisk" format="2">
  <advance width="1102.375"/>
  <unicode hex="002A"/>
  <outline>
    <contour>
      <point x="792.625" y="662.75" type="line"/>
      <point x="890.25" y="697.375" type="line"/>
      <point x="711.0" y="1076.375" type="line"/>
      <point x="1113.125" y="1077.125" type="line"/>
      <point x="1117.375" y="1176.375" type="line"/>
      <point x="699.375" y="1133.875" type="line"/>
      <point x="807.25" y="1534.25" type="line"/>
      <point x="706.125" y="1554.875" type="line"/>
      <point x="642.0" y="1147.0" type="line"/>
      <point x="281.125" y="1353.75" type="line"/>
      <point x="241.625" y="1261.875" type="line"/>
      <point x="609.375" y="1096.625" type="line"/>
      <point x="294.625" y="821.625" type="line"/>
      <point x="365.875" y="749.125" type="line"/>
      <point x="651.0" y="1055.875" type="line"/>
    </contour>
  </outline>
</glyph>
<glyph name="plus" format="2">
  <advance width="1168.5"/>
  <unicode hex="002B"/>
  <outline>
    <contour>
      <point x="667.375" y="765.625" type="line"/>
      <point x="667.375" y="1203.375" type="line"/>
      <point x="581.625" y="1203.375" type="line"/>
      <point x="581.625" y="765.625" type="line"/>
      <point x="149.875" y="765.625" type="line"/>
      <point x="149.875" y="679.625" type="line"/>
      <point x="581.625" y="679.625" type="line"/>
      <point x="581.625" y="242.625" type="line"/>
      <point x="667.375" y="242.625" type="line"/>
      <point x="667.375" y="679.625" type="line"/>
      <point x="1099.75" y="679.625" type="line"/>
      <point x="1099.75" y="765.625" type="line"/>
    </contour>
  </outline>
</glyph>
<glyph name="comma" format="2">
  <advance width="451"/>
  <unicode hex="002C"/>
  <note>
comma
</note>
  <outline>
    <contour>
      <point x="-90" y="-264" type="curve"/>
      <point x="-16" y="-264" type="line"/>
      <point x="91" y="-125"/>
      <point x="213" y="92"/>
      <point x="258" y="215" type="curve"/>
      <point x="250" y="238" type="line"/>
      <point x="139" y="238" type="line"/>
      <point x="104" y="115"/>
      <point x="15" y="-88"/>
    </contour>
  </outline>
</glyph>
<glyph name="hyphen" format="2">
  <advance width="629"/>
  <unicode hex="002D"/>
  <note>
hyphen
</note>
  <outline>
    <contour>
      <point x="82" y="502" type="line"/>
      <point x="541" y="502" type="line"/>
      <point x="557" y="592" type="line"/>
      <point x="100" y="592" type="line"/>
    </contour>
  </outline>
</glyph>
<glyph name="period" format="2">
  <advance width="465.25"/>
  <unicode hex="002E"/>
  <outline>
    <contour>
      <point x="125.75" y="-20.875" type="curve" smooth="yes"/>
      <point x="188.75" y="-20.875"/>
      <point x="219.625" y="38.75"/>
      <point x="219.625" y="93.375" type="curve" smooth="yes"/>
      <point x="219.625" y="134.125"/>
      <point x="196.75" y="162.375"/>
      <point x="154.0" y="162.375" type="curve" smooth="yes"/>
      <point x="87.5" y="162.375"/>
      <point x="56.625" y="104.25"/>
      <point x="56.625" y="47.375" type="curve" smooth="yes"/>
      <point x="56.625" y="3.7499999999999996"/>
      <point x="82.5" y="-20.875"/>
    </contour>
  </outline>
</glyph>
<glyph name="slash" format="2">
  <advance width="665.25"/>
  <unicode hex="002F"/>
  <outline>
    <contour>
      <point x="-90.25" y="0.0" type="line"/>
      <point x="16.374999999999993" y="0.0" type="line"/>
      <point x="840.5" y="1462.0" type="line"/>
      <point x="734.0" y="1462.0" type="line"/>
    </contour>
  </outline>
</glyph>
<glyph name="zero" format="2">
  <advance width="1128"/>
  <unicode hex="0030"/>
  <note>
zero
</note>
  <outline>
    <contour>
      <point x="492" y="-20" type="curve" smooth="yes"/>
      <point x="671" y="-20"/>
      <point x="817" y="76"/>
      <point x="918" y="265" type="curve" smooth="yes"/>
      <point x="955" y="335"/>
      <point x="986" y="419"/>
      <point x="1010" y="510" type="curve" smooth="yes"/>
      <point x="1052" y="667"/>
      <point x="1075" y="847"/>
      <point x="1075" y="1016" type="curve" smooth="yes"/>
      <point x="1075" y="1168"/>
      <point x="1048" y="1284"/>
      <point x="995" y="1362" type="curve" smooth="yes"/>
      <point x="938" y="1444"/>
      <point x="852" y="1485"/>
      <point x="735" y="1485" type="curve" smooth="yes"/>
      <point x="558" y="1485"/>
      <point x="414" y="1394"/>
      <point x="308" y="1210" type="curve" smooth="yes"/>
      <point x="275" y="1153"/>
      <point x="246" y="1086"/>
      <point x="222" y="1014" type="curve" smooth="yes"/>
      <point x="169" y="853"/>
      <point x="139" y="665"/>
      <point x="139" y="494" type="curve" smooth="yes"/>
      <point x="139" y="296"/>
      <point x="177" y="157"/>
      <point x="254" y="74" type="curve" smooth="yes"/>
      <point x="311" y="11"/>
      <point x="391" y="-20"/>
    </contour>
    <contour>
      <point x="502" y="68" type="curve" smooth="yes"/>
      <point x="322" y="68"/>
      <point x="242" y="208"/>
      <point x="242" y="504" type="curve" smooth="yes"/>
      <point x="242" y="661"/>
      <point x="264" y="811"/>
      <point x="308" y="955" type="curve" smooth="yes"/>
      <point x="340" y="1060"/>
      <point x="380" y="1148"/>
      <point x="427" y="1216" type="curve" smooth="yes"/>
      <point x="508" y="1335"/>
      <point x="610" y="1397"/>
      <point x="723" y="1397" type="curve" smooth="yes"/>
      <point x="898" y="1397"/>
      <point x="973" y="1271"/>
      <point x="973" y="1006" type="curve" smooth="yes"/>
      <point x="973" y="830"/>
      <point x="953" y="667"/>
      <point x="912" y="517" type="curve" smooth="yes"/>
      <point x="893" y="446"/>
      <point x="870" y="383"/>
      <point x="844" y="328" type="curve" smooth="yes"/>
      <point x="760" y="155"/>
      <point x="643" y="68"/>
    </contour>
  </outline>
</glyph>
<glyph name="one" format="2">
  <advance width="1126.75"/>
  <unicode hex="0031"/>
  <outline>
    <contour>
      <point x="448.375" y="0.0" type="line"/>
      <point x="551.0" y="0.0" type="line"/>
      <point x="862.125" y="1462.0" type="line"/>
      <point x="770.75" y="1462.0" type="line"/>
      <point x="322.375" y="1169.75" type="line"/>
      <point x="370.75" y="1093.5" type="line"/>
      <point x="612.0" y="1251.5" type="line" smooth="yes"/>
      <point x="668.25" y="1289.0"/>
      <point x="703.0" y="1314.0"/>
      <point x="741.5" y="1348.25" type="curve"/>
      <point x="723.75" y="1284.25"/>
      <point x="698.75" y="1180.75"/>
      <point x="673.625" y="1060.0" type="curve" smooth="yes"/>
    </contour>
  </outline>
</glyph>
<glyph name="two" format="2">
  <advance width="1127"/>
  <unicode hex="0032"/>
  <outline>
    <contour>
      <point x="15" y="0" type="line"/>
      <point x="879" y="0" type="line"/>
      <point x="897" y="93" type="line"/>
      <point x="169" y="93" type="line"/>
      <point x="169" y="98" type="line"/>
      <point x="612" y="492" type="line" smooth="yes"/>
      <point x="882" y="730"/>
      <point x="1054" y="909"/>
      <point x="1054" y="1172" type="curve" smooth="yes"/>
      <point x="1054" y="1355"/>
      <point x="925" y="1483"/>
      <point x="712" y="1483" type="curve" smooth="yes"/>
      <point x="579" y="1483"/>
      <point x="444" y="1434"/>
      <point x="315" y="1335" type="curve"/>
      <point x="364" y="1263" type="line"/>
      <point x="478" y="1346"/>
      <point x="588" y="1393"/>
      <point x="704" y="1393" type="curve" smooth="yes"/>
      <point x="856" y="1393"/>
      <point x="951" y="1304"/>
      <point x="951" y="1161" type="curve" smooth="yes"/>
      <point x="951" y="914"/>
      <point x="762" y="747"/>
      <point x="545" y="551" type="curve" smooth="yes"/>
      <point x="33" y="87" type="line"/>
    </contour>
  </outline>
</glyph>
<glyph name="three" format="2">
  <advance width="1126.75"/>
  <unicode hex="0033"/>
  <outline>
    <contour>
      <point x="430.0" y="-20.0" type="curve" smooth="yes"/>
      <point x="773.125" y="-20.0"/>
      <point x="964.25" y="178.375"/>
      <point x="964.25" y="428.75" type="curve" smooth="yes"/>
      <point x="964.25" y="607.25"/>
      <point x="859.5" y="723.25"/>
      <point x="701.625" y="753.125" type="curve"/>
      <point x="701.625" y="759.0" type="line"/>
      <point x="910.875" y="797.0"/>
      <point x="1075.0" y="943.25"/>
      <point x="1075.0" y="1169.625" type="curve" smooth="yes"/>
      <point x="1075.0" y="1354.5"/>
      <point x="940.25" y="1483.0"/>
      <point x="727.375" y="1483.0" type="curve" smooth="yes"/>
      <point x="552.875" y="1483.0"/>
      <point x="407.375" y="1422.25"/>
      <point x="281.875" y="1334.0" type="curve"/>
      <point x="329.625" y="1259.5" type="line"/>
      <point x="458.25" y="1345.25"/>
      <point x="581.375" y="1394.125"/>
      <point x="720.125" y="1394.125" type="curve" smooth="yes"/>
      <point x="868.75" y="1394.125"/>
      <point x="971.625" y="1303.875"/>
      <point x="971.625" y="1162.625" type="curve" smooth="yes"/>
      <point x="971.625" y="916.375"/>
      <point x="744.375" y="802.125"/>
      <point x="530.625" y="802.125" type="curve" smooth="yes"/>
      <point x="379.5" y="802.125" type="line"/>
      <point x="361.625" y="714.375" type="line"/>
      <point x="511.375" y="714.375" type="line" smooth="yes"/>
      <point x="724.75" y="714.375"/>
      <point x="857.625" y="618.125"/>
      <point x="857.625" y="425.75" type="curve" smooth="yes"/>
      <point x="857.625" y="214.625"/>
      <point x="697.25" y="68.5"/>
      <point x="432.0" y="68.5" type="curve" smooth="yes"/>
      <point x="280.375" y="68.5"/>
      <point x="134.75" y="113.75"/>
      <point x="45.0" y="165.5" type="curve"/>
      <point x="45.0" y="64.625" type="line"/>
      <point x="140.125" y="15.0"/>
      <point x="267.0" y="-20.0"/>
    </contour>
  </outline>
</glyph>
<glyph name="four" format="2">
  <advance width="1126.75"/>
  <unicode hex="0034"/>
  <outline>
    <contour>
      <point x="643.75" y="0.0" type="line"/>
      <point x="742.125" y="0.0" type="line"/>
      <point x="821.625" y="372.625" type="line"/>
      <point x="1068.0" y="372.625" type="line"/>
      <point x="1088.625" y="465.125" type="line"/>
      <point x="841.375" y="465.125" type="line"/>
      <point x="1053.125" y="1467.0" type="line"/>
      <point x="936.125" y="1467.0" type="line"/>
      <point x="40.5" y="457.25" type="line"/>
      <point x="23.875" y="372.625" type="line"/>
      <point x="723.25" y="372.625" type="line"/>
    </contour>
    <contour>
      <point x="158.25" y="465.125" type="line"/>
      <point x="782.0" y="1165.125" type="line" smooth="yes"/>
      <point x="843.875" y="1233.0"/>
      <point x="891.5" y="1293.75"/>
      <point x="937.0" y="1357.375" type="curve"/>
      <point x="942.5" y="1357.375" type="line"/>
      <point x="915.5" y="1254.0"/>
      <point x="887.375" y="1147.25"/>
      <point x="853.125" y="986.375" type="curve" smooth="yes"/>
      <point x="742.25" y="465.125" type="line"/>
    </contour>
  </outline>
</glyph>
<glyph name="five" format="2">
  <advance width="1126.75"/>
  <unicode hex="0035"/>
  <outline>
    <contour>
      <point x="417.5" y="-20.0" type="curve" smooth="yes"/>
      <point x="766.125" y="-20.0"/>
      <point x="982.0" y="192.75"/>
      <point x="982.0" y="506.75" type="curve" smooth="yes"/>
      <point x="982.0" y="733.625"/>
      <point x="825.125" y="881.875"/>
      <point x="590.0" y="881.875" type="curve" smooth="yes"/>
      <point x="486.625" y="881.875"/>
      <point x="414.75" y="865.625"/>
      <point x="355.125" y="850.25" type="curve"/>
      <point x="510.0" y="1368.625" type="line"/>
      <point x="1079.875" y="1368.625" type="line"/>
      <point x="1099.25" y="1462.0" type="line"/>
      <point x="440.875" y="1462.0" type="line"/>
      <point x="243.125" y="793.375" type="line"/>
      <point x="291.0" y="753.125" type="line"/>
      <point x="387.75" y="779.5"/>
      <point x="459.25" y="796.375"/>
      <point x="565.625" y="796.375" type="curve" smooth="yes"/>
      <point x="763.75" y="796.375"/>
      <point x="877.125" y="679.875"/>
      <point x="877.125" y="496.875" type="curve" smooth="yes"/>
      <point x="877.125" y="222.625"/>
      <point x="689.75" y="68.5"/>
      <point x="420.0" y="68.5" type="curve" smooth="yes"/>
      <point x="290.25" y="68.5"/>
      <point x="161.5" y="109.5"/>
      <point x="77.25" y="166.75" type="curve"/>
      <point x="77.25" y="63.375" type="line"/>
      <point x="156.0" y="12.25"/>
      <point x="281.0" y="-20.0"/>
    </contour>
  </outline>
</glyph>
<glyph name="six" format="2">
  <advance width="1126.75"/>
  <unicode hex="0036"/>
  <outline>
    <contour>
      <point x="516.5" y="-20.0" type="curve" smooth="yes"/>
      <point x="804.0" y="-20.0"/>
      <point x="1012.75" y="237.75"/>
      <point x="1012.75" y="548.5" type="curve" smooth="yes"/>
      <point x="1012.75" y="767.25"/>
      <point x="879.875" y="906.875"/>
      <point x="674.5" y="906.875" type="curve" smooth="yes"/>
      <point x="482.875" y="906.875"/>
      <point x="346.375" y="803.25"/>
      <point x="269.625" y="693.125" type="curve"/>
      <point x="264.125" y="693.125" type="line"/>
      <point x="383.25" y="1208.5"/>
      <point x="629.625" y="1395.875"/>
      <point x="914.625" y="1395.875" type="curve" smooth="yes"/>
      <point x="988.0" y="1395.875"/>
      <point x="1049.125" y="1384.0"/>
      <point x="1092.875" y="1367.5" type="curve"/>
      <point x="1114.25" y="1458.75" type="line"/>
      <point x="1066.5" y="1475.0"/>
      <point x="994.75" y="1485.5"/>
      <point x="922.5" y="1485.5" type="curve" smooth="yes"/>
      <point x="749.625" y="1485.5"/>
      <point x="587.125" y="1427.375"/>
      <point x="463.875" y="1303.375" type="curve" smooth="yes"/>
      <point x="255.625" y="1097.375"/>
      <point x="135.25" y="713.0"/>
      <point x="135.25" y="428.0" type="curve" smooth="yes"/>
      <point x="135.25" y="162.375"/>
      <point x="258.125" y="-20.0"/>
    </contour>
    <contour>
      <point x="522.0" y="68.5" type="curve" smooth="yes"/>
      <point x="298.375" y="68.5"/>
      <point x="237.0" y="248.0"/>
      <point x="237.0" y="407.875" type="curve" smooth="yes"/>
      <point x="237.0" y="457.25"/>
      <point x="243.0" y="506.75"/>
      <point x="253.875" y="544.125" type="curve" smooth="yes"/>
      <point x="285.125" y="665.125"/>
      <point x="441.625" y="820.25"/>
      <point x="647.25" y="820.25" type="curve" smooth="yes"/>
      <point x="813.5" y="820.25"/>
      <point x="911.0" y="719.875"/>
      <point x="911.0" y="542.5" type="curve" smooth="yes"/>
      <point x="911.0" y="306.125"/>
      <point x="759.875" y="68.5"/>
    </contour>
  </outline>
</glyph>
<glyph name="seven" format="2">
  <advance width="1126.75"/>
  <unicode hex="0037"/>
  <outline>
    <contour>
      <point x="207.875" y="0.0" type="line"/>
      <point x="321.875" y="0.0" type="line"/>
      <point x="1137.125" y="1386.5" type="line"/>
      <point x="1151.0" y="1462.0" type="line"/>
      <point x="264.5" y="1462.0" type="line"/>
      <point x="245.875" y="1370.5" type="line"/>
      <point x="1019.375" y="1370.5" type="line"/>
    </contour>
  </outline>
</glyph>
<glyph name="eight" format="2">
  <advance width="1128"/>
  <unicode hex="0038"/>
  <note>
eight
</note>
  <outline>
    <contour>
      <point x="487" y="-20" type="curve" smooth="yes"/>
      <point x="762" y="-20"/>
      <point x="971" y="128"/>
      <point x="971" y="385" type="curve" smooth="yes"/>
      <point x="971" y="540"/>
      <point x="894" y="660"/>
      <point x="721" y="764" type="curve"/>
      <point x="989" y="865"/>
      <point x="1090" y="987"/>
      <point x="1090" y="1171" type="curve" smooth="yes"/>
      <point x="1090" y="1363"/>
      <point x="954" y="1485"/>
      <point x="737" y="1485" type="curve" smooth="yes"/>
      <point x="501" y="1485"/>
      <point x="332" y="1326"/>
      <point x="332" y="1114" type="curve" smooth="yes"/>
      <point x="332" y="981"/>
      <point x="387" y="878"/>
      <point x="520" y="782" type="curve"/>
      <point x="225" y="678"/>
      <point x="98" y="538"/>
      <point x="98" y="326" type="curve" smooth="yes"/>
      <point x="98" y="111"/>
      <point x="250" y="-20"/>
    </contour>
    <contour>
      <point x="498" y="63" type="curve" smooth="yes"/>
      <point x="309" y="63"/>
      <point x="201" y="159"/>
      <point x="201" y="340" type="curve" smooth="yes"/>
      <point x="201" y="515"/>
      <point x="319" y="636"/>
      <point x="610" y="733" type="curve"/>
      <point x="791" y="637"/>
      <point x="870" y="526"/>
      <point x="870" y="387" type="curve" smooth="yes"/>
      <point x="870" y="198"/>
      <point x="722" y="63"/>
    </contour>
    <contour>
      <point x="627" y="813" type="curve"/>
      <point x="472" y="912"/>
      <point x="428" y="993"/>
      <point x="428" y="1114" type="curve" smooth="yes"/>
      <point x="428" y="1275"/>
      <point x="554" y="1399"/>
      <point x="727" y="1399" type="curve" smooth="yes"/>
      <point x="894" y="1399"/>
      <point x="993" y="1308"/>
      <point x="993" y="1163" type="curve" smooth="yes"/>
      <point x="993" y="998"/>
      <point x="883" y="896"/>
    </contour>
  </outline>
</glyph>
<glyph name="nine" format="2">
  <advance width="1126.75"/>
  <unicode hex="0039"/>
  <outline>
    <contour>
      <point x="338.0" y="-20.0" type="curve" smooth="yes"/>
      <point x="482.125" y="-20.0"/>
      <point x="624.5" y="30.0"/>
      <point x="744.5" y="148.375" type="curve" smooth="yes"/>
      <point x="939.625" y="340.125"/>
      <point x="1070.25" y="743.75"/>
      <point x="1070.25" y="1035.75" type="curve" smooth="yes"/>
      <point x="1070.25" y="1303.375"/>
      <point x="946.75" y="1483.0"/>
      <point x="695.5" y="1483.0" type="curve" smooth="yes"/>
      <point x="407.375" y="1483.0"/>
      <point x="194.875" y="1232.5"/>
      <point x="194.875" y="915.625" type="curve" smooth="yes"/>
      <point x="194.875" y="699.375"/>
      <point x="324.375" y="555.5"/>
      <point x="543.125" y="555.5" type="curve" smooth="yes"/>
      <point x="728.25" y="555.5"/>
      <point x="862.125" y="653.5"/>
      <point x="932.625" y="758.875" type="curve"/>
      <point x="938.875" y="758.875" type="line"/>
      <point x="822.5" y="268.25"/>
      <point x="600.25" y="70.0"/>
      <point x="339.5" y="70.0" type="curve" smooth="yes"/>
      <point x="245.5" y="70.0"/>
      <point x="157.5" y="89.125"/>
      <point x="96.0" y="111.25" type="curve"/>
      <point x="96.0" y="12.75" type="line"/>
      <point x="159.75" y="-6.75"/>
      <point x="248.5" y="-20.0"/>
    </contour>
    <contour>
      <point x="558.25" y="641.75" type="curve" smooth="yes"/>
      <point x="394.875" y="641.75"/>
      <point x="296.0" y="746.125"/>
      <point x="296.0" y="918.625" type="curve" smooth="yes"/>
      <point x="296.0" y="1166.125"/>
      <point x="444.875" y="1394.125"/>
      <point x="691.75" y="1394.125" type="curve" smooth="yes"/>
      <point x="893.125" y="1394.125"/>
      <point x="969.125" y="1234.0"/>
      <point x="969.125" y="1052.0" type="curve" smooth="yes"/>
      <point x="969.125" y="997.625"/>
      <point x="964.125" y="956.875"/>
      <point x="952.0" y="918.125" type="curve" smooth="yes"/>
      <point x="908.75" y="774.25"/>
      <point x="756.625" y="641.75"/>
    </contour>
  </outline>
</glyph>
<glyph name="colon" format="2">
  <advance width="465.25"/>
  <unicode hex="003A"/>
  <outline>
    <contour>
      <point x="317.125" y="920.625" type="curve" smooth="yes"/>
      <point x="379.5" y="920.625"/>
      <point x="411.0" y="979.5"/>
      <point x="411.0" y="1034.25" type="curve" smooth="yes"/>
      <point x="411.0" y="1076.375"/>
      <point x="388.125" y="1103.5"/>
      <point x="345.0" y="1103.5" type="curve" smooth="yes"/>
      <point x="278.875" y="1103.5"/>
      <point x="247.375" y="1045.125"/>
      <point x="247.375" y="987.75" type="curve" smooth="yes"/>
      <point x="247.375" y="945.25"/>
      <point x="273.875" y="920.625"/>
    </contour>
    <contour>
      <point x="125.75" y="-20.875" type="curve" smooth="yes"/>
      <point x="188.75" y="-20.875"/>
      <point x="219.625" y="38.75"/>
      <point x="219.625" y="93.375" type="curve" smooth="yes"/>
      <point x="219.625" y="134.125"/>
      <point x="196.75" y="162.375"/>
      <point x="154.0" y="162.375" type="curve" smooth="yes"/>
      <point x="87.5" y="162.375"/>
      <point x="56.625" y="104.25"/>
      <point x="56.625" y="47.375" type="curve" smooth="yes"/>
      <point x="56.625" y="3.7499999999999996"/>
      <point x="82.5" y="-20.875"/>
    </contour>
  </outline>
</glyph>
<glyph name="semicolon" format="2">
  <advance width="465.25"/>
  <unicode hex="003B"/>
  <outline>
    <contour>
      <point x="-95.0" y="-264.0" type="curve"/>
      <point x="-14.250000000000004" y="-264.0" type="line"/>
      <point x="75.5" y="-120.0"/>
      <point x="166.875" y="64.375"/>
      <point x="227.625" y="213.75" type="curve"/>
      <point x="223.375" y="238.0" type="line"/>
      <point x="115.125" y="238.0" type="line"/>
      <point x="62.875" y="87.25"/>
      <point x="-5.874999999999998" y="-79.5"/>
    </contour>
    <contour>
      <point x="315.25" y="920.625" type="curve" smooth="yes"/>
      <point x="378.25" y="920.625"/>
      <point x="409.75" y="979.5"/>
      <point x="409.75" y="1034.25" type="curve" smooth="yes"/>
      <point x="409.75" y="1076.375"/>
      <point x="386.875" y="1103.5"/>
      <point x="343.75" y="1103.5" type="curve" smooth="yes"/>
      <point x="277.625" y="1103.5"/>
      <point x="246.125" y="1045.125"/>
      <point x="246.125" y="987.75" type="curve" smooth="yes"/>
      <point x="246.125" y="945.25"/>
      <point x="272.625" y="920.625"/>
    </contour>
  </outline>
</glyph>
<glyph name="equal" format="2">
  <advance width="1128"/>
  <unicode hex="003D"/>
  <note>
equal
</note>
  <outline>
    <contour>
      <point x="168" y="885" type="line"/>
      <point x="1071" y="885" type="line"/>
      <point x="1071" y="985" type="line"/>
      <point x="168" y="985" type="line"/>
    </contour>
    <contour>
      <point x="168" y="461" type="line"/>
      <point x="1071" y="461" type="line"/>
      <point x="1071" y="559" type="line"/>
      <point x="168" y="559" type="line"/>
    </contour>
  </outline>
</glyph>
<glyph name="greater" format="2">
  <advance width="1128"/>
  <unicode hex="003E"/>
  <note>
greater
</note>
  <outline>
    <contour>
      <point x="170" y="262" type="line"/>
      <point x="1085" y="676" type="line"/>
      <point x="1085" y="750" type="line"/>
      <point x="170" y="1221" type="line"/>
      <point x="170" y="1118" type="line"/>
      <point x="971" y="719" type="line"/>
      <point x="170" y="369" type="line"/>
    </contour>
  </outline>
</glyph>
<glyph name="question" format="2">
  <advance width="846.0"/>
  <unicode hex="003F"/>
  <outline>
    <contour>
      <point x="252.5" y="377.0" type="curve"/>
      <point x="337.875" y="377.0" type="line"/>
      <point x="373.0" y="559.25"/>
      <point x="445.125" y="621.625"/>
      <point x="584.5" y="724.25" type="curve" smooth="yes"/>
      <point x="764.5" y="854.0"/>
      <point x="887.5" y="961.375"/>
      <point x="887.5" y="1164.75" type="curve" smooth="yes"/>
      <point x="887.5" y="1358.5"/>
      <point x="757.25" y="1483.0"/>
      <point x="552.5" y="1483.0" type="curve" smooth="yes"/>
      <point x="450.375" y="1483.0"/>
      <point x="343.75" y="1456.25"/>
      <point x="228.125" y="1400.625" type="curve"/>
      <point x="265.0" y="1319.875" type="line"/>
      <point x="363.125" y="1364.125"/>
      <point x="456.0" y="1392.625"/>
      <point x="545.0" y="1392.625" type="curve" smooth="yes"/>
      <point x="692.5" y="1392.625"/>
      <point x="786.125" y="1300.75"/>
      <point x="786.125" y="1155.25" type="curve" smooth="yes"/>
      <point x="786.125" y="970.5"/>
      <point x="652.875" y="886.0"/>
      <point x="517.5" y="782.875" type="curve" smooth="yes"/>
      <point x="369.375" y="665.875"/>
      <point x="287.75" y="590.5"/>
    </contour>
    <contour>
      <point x="232.125" y="-20.875" type="curve" smooth="yes"/>
      <point x="295.125" y="-20.875"/>
      <point x="326.0" y="38.75"/>
      <point x="326.0" y="93.375" type="curve" smooth="yes"/>
      <point x="326.0" y="134.125"/>
      <point x="303.125" y="162.375"/>
      <point x="260.0" y="162.375" type="curve" smooth="yes"/>
      <point x="193.875" y="162.375"/>
      <point x="163.0" y="104.25"/>
      <point x="163.0" y="47.375" type="curve" smooth="yes"/>
      <point x="163.0" y="3.7499999999999996"/>
      <point x="188.875" y="-20.875"/>
    </contour>
  </outline>
</glyph>
<glyph name="at" format="2">
  <advance width="1724"/>
  <unicode hex="0040"/>
  <note>
at
</note>
  <outline>
    <contour>
      <point x="805" y="-184" type="curve" smooth="yes"/>
      <point x="950" y="-184"/>
      <point x="1093" y="-157"/>
      <point x="1233" y="-102" type="curve"/>
      <point x="1233" y="-12" type="line"/>
      <point x="1091" y="-67"/>
      <point x="951" y="-94"/>
      <point x="813" y="-94" type="curve" smooth="yes"/>
      <point x="440" y="-94"/>
      <point x="223" y="132"/>
      <point x="223" y="516" type="curve" smooth="yes"/>
      <point x="223" y="679"/>
      <point x="258" y="825"/>
      <point x="329" y="956" type="curve" smooth="yes"/>
      <point x="470" y="1216"/>
      <point x="736" y="1368"/>
      <point x="1049" y="1368" type="curve" smooth="yes"/>
      <point x="1381" y="1368"/>
      <point x="1593" y="1162"/>
      <point x="1593" y="836" type="curve" smooth="yes"/>
      <point x="1593" y="751"/>
      <point x="1579" y="668"/>
      <point x="1550" y="585" type="curve" smooth="yes"/>
      <point x="1492" y="419"/>
      <point x="1387" y="313"/>
      <point x="1272" y="313" type="curve" smooth="yes"/>
      <point x="1184" y="313"/>
      <point x="1137" y="370"/>
      <point x="1137" y="465" type="curve" smooth="yes"/>
      <point x="1137" y="519"/>
      <point x="1150" y="593"/>
      <point x="1176" y="686" type="curve" smooth="yes"/>
      <point x="1260" y="1001" type="line"/>
      <point x="1173" y="1036"/>
      <point x="1089" y="1053"/>
      <point x="1008" y="1053" type="curve" smooth="yes"/>
      <point x="911" y="1053"/>
      <point x="824" y="1029"/>
      <point x="747" y="982" type="curve" smooth="yes"/>
      <point x="594" y="886"/>
      <point x="506" y="708"/>
      <point x="506" y="500" type="curve" smooth="yes"/>
      <point x="506" y="328"/>
      <point x="601" y="225"/>
      <point x="750" y="225" type="curve" smooth="yes"/>
      <point x="870" y="225"/>
      <point x="979" y="295"/>
      <point x="1051" y="424" type="curve"/>
      <point x="1099" y="424" type="line"/>
      <point x="1057" y="457" type="line"/>
      <point x="1056" y="446"/>
      <point x="1055" y="435"/>
      <point x="1055" y="424" type="curve" smooth="yes"/>
      <point x="1055" y="305"/>
      <point x="1135" y="225"/>
      <point x="1266" y="225" type="curve" smooth="yes"/>
      <point x="1341" y="225"/>
      <point x="1412" y="253"/>
      <point x="1478" y="308" type="curve" smooth="yes"/>
      <point x="1609" y="418"/>
      <point x="1688" y="619"/>
      <point x="1688" y="858" type="curve" smooth="yes"/>
      <point x="1688" y="1223"/>
      <point x="1436" y="1458"/>
      <point x="1057" y="1458" type="curve" smooth="yes"/>
      <point x="885" y="1458"/>
      <point x="727" y="1418"/>
      <point x="584" y="1339" type="curve" smooth="yes"/>
      <point x="296" y="1179"/>
      <point x="125" y="876"/>
      <point x="125" y="508" type="curve" smooth="yes"/>
      <point x="125" y="365"/>
      <point x="153" y="242"/>
      <point x="209" y="138" type="curve" smooth="yes"/>
      <point x="321" y="-71"/>
      <point x="534" y="-184"/>
    </contour>
    <contour>
      <point x="764" y="313" type="curve" smooth="yes"/>
      <point x="667" y="313"/>
      <point x="610" y="383"/>
      <point x="610" y="506" type="curve" smooth="yes"/>
      <point x="610" y="594"/>
      <point x="627" y="674"/>
      <point x="661" y="745" type="curve" smooth="yes"/>
      <point x="729" y="887"/>
      <point x="857" y="969"/>
      <point x="1008" y="969" type="curve" smooth="yes"/>
      <point x="1057" y="969"/>
      <point x="1103" y="961"/>
      <point x="1147" y="946" type="curve"/>
      <point x="1069" y="657" type="line" smooth="yes"/>
      <point x="1036" y="536"/>
      <point x="988" y="444"/>
      <point x="929" y="386" type="curve" smooth="yes"/>
      <point x="881" y="338"/>
      <point x="825" y="313"/>
    </contour>
  </outline>
</glyph>
<glyph name="A" format="2">
  <advance width="1131.625"/>
  <unicode hex="0041"/>
  <anchor x="450.875" y="0.0" name="bottom"/>
  <anchor x="773.75" y="1462.0" name="top"/>
  <anchor x="1286.875" y="1462.0" name="topright"/>
  <outline>
    <contour>
      <point x="-107.625" y="0.0" type="line"/>
      <point x="5.874999999999993" y="0.0" type="line"/>
      <point x="297.625" y="517.5" type="line"/>
      <point x="858.75" y="517.5" type="line"/>
      <point x="931.875" y="0.0" type="line"/>
      <point x="1031.625" y="0.0" type="line"/>
      <point x="828.125" y="1464.5" type="line"/>
      <point x="725.5" y="1464.5" type="line"/>
    </contour>
    <contour>
      <point x="348.125" y="610.5" type="line"/>
      <point x="627.625" y="1104.875" type="line" smooth="yes"/>
      <point x="671.625" y="1185.5"/>
      <point x="714.875" y="1269.0"/>
      <point x="751.125" y="1347.125" type="curve"/>
      <point x="755.875" y="1347.125" type="line"/>
      <point x="760.375" y="1270.75"/>
      <point x="770.25" y="1178.75"/>
      <point x="779.0" y="1107.875" type="curve" smooth="yes"/>
      <point x="847.0" y="610.5" type="line"/>
    </contour>
  </outline>
</glyph>
<glyph name="C" format="2">
  <advance width="1211"/>
  <unicode hex="0043"/>
  <anchor x="543" y="0" name="bottom"/>
  <anchor x="844" y="1462" name="top"/>
  <anchor x="1366" y="1462" name="topright"/>
  <outline>
    <contour>
      <point x="668" y="-20" type="curve" smooth="yes"/>
      <point x="814" y="-20"/>
      <point x="927" y="6"/>
      <point x="1024" y="42" type="curve"/>
      <point x="1024" y="132" type="line"/>
      <point x="924" y="98"/>
      <point x="811" y="72"/>
      <point x="681" y="72" type="curve" smooth="yes"/>
      <point x="424" y="72"/>
      <point x="269" y="254"/>
      <point x="269" y="549" type="curve" smooth="yes"/>
      <point x="269" y="1015"/>
      <point x="541" y="1390"/>
      <point x="955" y="1390" type="curve" smooth="yes"/>
      <point x="1067" y="1390"/>
      <point x="1165" y="1366"/>
      <point x="1253" y="1316" type="curve"/>
      <point x="1295" y="1405" type="line"/>
      <point x="1197" y="1457"/>
      <point x="1086" y="1483"/>
      <point x="955" y="1483" type="curve" smooth="yes"/>
      <point x="476" y="1483"/>
      <point x="163" y="1060"/>
      <point x="163" y="545" type="curve" smooth="yes"/>
      <point x="163" y="201"/>
      <point x="350" y="-20"/>
    </contour>
  </outline>
</glyph>
<glyph name="D" format="2">
  <advance width="1379"/>
  <unicode hex="0044"/>
  <anchor x="575" y="0" name="bottom"/>
  <anchor x="745" y="731" name="center"/>
  <anchor x="887" y="1462" name="top"/>
  <anchor x="1534" y="1462" name="topright"/>
  <outline>
    <contour>
      <point x="95" y="0" type="line"/>
      <point x="417" y="0" type="line" smooth="yes"/>
      <point x="1010" y="0"/>
      <point x="1304" y="403"/>
      <point x="1304" y="873" type="curve" smooth="yes"/>
      <point x="1304" y="1272"/>
      <point x="1085" y="1462"/>
      <point x="720" y="1462" type="curve" smooth="yes"/>
      <point x="405" y="1462" type="line"/>
    </contour>
    <contour>
      <point x="217" y="91" type="line"/>
      <point x="489" y="1371" type="line"/>
      <point x="699" y="1371" type="line" smooth="yes"/>
      <point x="1012" y="1371"/>
      <point x="1197" y="1218"/>
      <point x="1197" y="874" type="curve" smooth="yes"/>
      <point x="1197" y="447"/>
      <point x="930" y="91"/>
      <point x="423" y="91" type="curve" smooth="yes"/>
    </contour>
  </outline>
</glyph>
<glyph name="E" format="2">
  <advance width="1079.875"/>
  <unicode hex="0045"/>
  <anchor x="452.375" y="0.0" name="bottom"/>
  <anchor x="749.875" y="1462.0" name="top"/>
  <anchor x="1234.125" y="1462.0" name="topright"/>
  <outline>
    <contour>
      <point x="95.25" y="0.0" type="line"/>
      <point x="831.875" y="0.0" type="line"/>
      <point x="851.25" y="92.625" type="line"/>
      <point x="217.125" y="92.625" type="line"/>
      <point x="351.375" y="722.125" type="line"/>
      <point x="947.25" y="722.125" type="line"/>
      <point x="965.75" y="814.625" type="line"/>
      <point x="370.25" y="814.625" type="line"/>
      <point x="488.5" y="1369.375" type="line"/>
      <point x="1121.875" y="1369.375" type="line"/>
      <point x="1141.25" y="1462.0" type="line"/>
      <point x="404.875" y="1462.0" type="line"/>
    </contour>
  </outline>
</glyph>
<glyph name="F" format="2">
  <advance width="989.5"/>
  <unicode hex="0046"/>
  <anchor x="380.5" y="0.0" name="bottom"/>
  <anchor x="691.5" y="1462.0" name="top"/>
  <anchor x="1144.375" y="1462.0" name="topright"/>
  <outline>
    <contour>
      <point x="95.25" y="0.0" type="line"/>
      <point x="198.5" y="0.0" type="line"/>
      <point x="335.75" y="653.0" type="line"/>
      <point x="934.5" y="653.0" type="line"/>
      <point x="954.75" y="745.625" type="line"/>
      <point x="356.375" y="745.625" type="line"/>
      <point x="488.5" y="1369.375" type="line"/>
      <point x="1123.875" y="1369.375" type="line"/>
      <point x="1142.5" y="1462.0" type="line"/>
      <point x="404.875" y="1462.0" type="line"/>
    </contour>
  </outline>
</glyph>
<glyph name="G" format="2">
  <advance width="1404.0"/>
  <unicode hex="0047"/>
  <anchor x="623.5" y="0.0" name="bottom"/>
  <anchor x="920.625" y="1462.0" name="top"/>
  <anchor x="1558.875" y="1462.0" name="topright"/>
  <outline>
    <contour>
      <point x="689.5" y="-20.0" type="curve" smooth="yes"/>
      <point x="847.125" y="-20.0"/>
      <point x="1000.375" y="10.75"/>
      <point x="1132.375" y="66.875" type="curve"/>
      <point x="1276.5" y="736.875" type="line"/>
      <point x="810.0" y="736.875" type="line"/>
      <point x="789.375" y="645.0" type="line"/>
      <point x="1153.875" y="645.0" type="line"/>
      <point x="1044.25" y="134.875" type="line"/>
      <point x="955.5" y="98.625"/>
      <point x="827.5" y="72.25"/>
      <point x="697.875" y="72.25" type="curve" smooth="yes"/>
      <point x="433.375" y="72.25"/>
      <point x="268.875" y="242.5"/>
      <point x="268.875" y="545.5" type="curve" smooth="yes"/>
      <point x="268.875" y="1052.0"/>
      <point x="574.125" y="1390.375"/>
      <point x="942.75" y="1390.375" type="curve" smooth="yes"/>
      <point x="1081.75" y="1390.375"/>
      <point x="1208.625" y="1355.125"/>
      <point x="1319.375" y="1305.125" type="curve"/>
      <point x="1360.0" y="1397.0" type="line"/>
      <point x="1239.0" y="1450.0"/>
      <point x="1107.75" y="1483.0"/>
      <point x="944.75" y="1483.0" type="curve" smooth="yes"/>
      <point x="510.75" y="1483.0"/>
      <point x="162.625" y="1100.625"/>
      <point x="162.625" y="540.625" type="curve" smooth="yes"/>
      <point x="162.625" y="192.625"/>
      <point x="354.0" y="-20.0"/>
    </contour>
  </outline>
</glyph>
<glyph name="H" format="2">
  <advance width="1366"/>
  <unicode hex="0048"/>
  <anchor x="567" y="0" name="bottom"/>
  <anchor x="723" y="731" name="center"/>
  <anchor x="878" y="1462" name="top"/>
  <anchor x="215" y="1462" name="topleft"/>
  <outline>
    <contour>
      <point x="102" y="0" type="line"/>
      <point x="205" y="0" type="line"/>
      <point x="354" y="719" type="line"/>
      <point x="1114" y="719" type="line"/>
      <point x="963" y="0" type="line"/>
      <point x="1063" y="0" type="line"/>
      <point x="1372" y="1462" type="line"/>
      <point x="1272" y="1462" type="line"/>
      <point x="1135" y="813" type="line"/>
      <point x="375" y="813" type="line"/>
      <point x="514" y="1462" type="line"/>
      <point x="412" y="1462" type="line"/>
    </contour>
  </outline>
</glyph>
<glyph name="I" format="2">
  <advance width="504"/>
  <unicode hex="0049"/>
  <anchor x="136" y="0" name="bottom"/>
  <anchor x="173" y="10" name="ogonek"/>
  <anchor x="447" y="1462" name="top"/>
  <anchor x="215" y="1462" name="topleft"/>
  <outline>
    <contour>
      <point x="102" y="0" type="line"/>
      <point x="201" y="0" type="line"/>
      <point x="510" y="1462" type="line"/>
      <point x="412" y="1462" type="line"/>
    </contour>
  </outline>
</glyph>
<glyph name="J" format="2">
  <advance width="505.25"/>
  <unicode hex="004A"/>
  <anchor x="-174.0" y="-368.375" name="bottom"/>
  <anchor x="453.125" y="1462.0" name="top"/>
  <anchor x="660.5" y="1462.0" name="topright"/>
  <outline>
    <contour>
      <point x="-174.0" y="-368.375" type="curve" smooth="yes"/>
      <point x="24.374999999999996" y="-368.375"/>
      <point x="147.75" y="-260.875"/>
      <point x="199.25" y="-17.625" type="curve" smooth="yes"/>
      <point x="512.375" y="1462.0" type="line"/>
      <point x="409.375" y="1462.0" type="line"/>
      <point x="98.0" y="-4.500000000000002" type="line" smooth="yes"/>
      <point x="61.625" y="-178.0"/>
      <point x="-20.124999999999996" y="-274.5"/>
      <point x="-174.25" y="-274.5" type="curve" smooth="yes"/>
      <point x="-226.75" y="-274.5"/>
      <point x="-286.375" y="-266.5"/>
      <point x="-333.625" y="-252.0" type="curve"/>
      <point x="-337.125" y="-343.125" type="line"/>
      <point x="-301.5" y="-357.125"/>
      <point x="-237.125" y="-368.375"/>
    </contour>
  </outline>
</glyph>
<glyph name="K" format="2">
  <advance width="1126.625"/>
  <unicode hex="004B"/>
  <anchor x="466.75" y="0.0" name="bottom"/>
  <anchor x="779.875" y="1462.0" name="top"/>
  <anchor x="1281.875" y="1462.0" name="topright"/>
  <outline>
    <contour>
      <point x="95.25" y="0.0" type="line"/>
      <point x="198.5" y="0.0" type="line"/>
      <point x="322.75" y="591.5" type="line"/>
      <point x="545.25" y="772.75" type="line"/>
      <point x="897.75" y="0.0" type="line"/>
      <point x="1010.875" y="0.0" type="line"/>
      <point x="624.25" y="837.125" type="line"/>
      <point x="1304.875" y="1462.0" type="line"/>
      <point x="1174.5" y="1462.0" type="line"/>
      <point x="465.375" y="813.875" type="line"/>
      <point x="344.625" y="697.0" type="line"/>
      <point x="507.5" y="1462.0" type="line"/>
      <point x="404.875" y="1462.0" type="line"/>
    </contour>
  </outline>
</glyph>
<glyph name="L" format="2">
  <advance width="995.875"/>
  <unicode hex="004C"/>
  <anchor x="413.75" y="0.0" name="bottom"/>
  <anchor x="553.25" y="731.0" name="center"/>
  <anchor x="631.0" y="1462.0" name="top"/>
  <anchor x="963.875" y="1462.0" name="topright"/>
  <outline>
    <contour>
      <point x="95.25" y="0.0" type="line"/>
      <point x="828.75" y="0.0" type="line"/>
      <point x="848.75" y="93.375" type="line"/>
      <point x="217.125" y="93.375" type="line"/>
      <point x="507.5" y="1462.0" type="line"/>
      <point x="404.875" y="1462.0" type="line"/>
    </contour>
  </outline>
</glyph>
<glyph name="M" format="2">
  <advance width="1669"/>
  <unicode hex="004D"/>
  <anchor x="719" y="0" name="bottom"/>
  <anchor x="1030" y="1462" name="top"/>
  <outline>
    <contour>
      <point x="109" y="0" type="line"/>
      <point x="205" y="0" type="line"/>
      <point x="401" y="922" type="line" smooth="yes"/>
      <point x="440" y="1103"/>
      <point x="466" y="1245"/>
      <point x="479" y="1348" type="curve"/>
      <point x="485" y="1348" type="line"/>
      <point x="707" y="0" type="line"/>
      <point x="758" y="0" type="line"/>
      <point x="1538" y="1348" type="line"/>
      <point x="1544" y="1348" type="line"/>
      <point x="1530" y="1296"/>
      <point x="1497" y="1147"/>
      <point x="1444" y="901" type="curve" smooth="yes"/>
      <point x="1253" y="0" type="line"/>
      <point x="1354" y="0" type="line"/>
      <point x="1655" y="1462" type="line"/>
      <point x="1505" y="1462" type="line"/>
      <point x="891" y="409" type="line"/>
      <point x="851" y="341"/>
      <point x="812" y="273"/>
      <point x="772" y="205" type="curve"/>
      <point x="766" y="205" type="line"/>
      <point x="755" y="274"/>
      <point x="743" y="342"/>
      <point x="732" y="411" type="curve"/>
      <point x="561" y="1462" type="line"/>
      <point x="418" y="1462" type="line"/>
    </contour>
  </outline>
</glyph>
<glyph name="N" format="2">
  <advance width="1405.5"/>
  <unicode hex="004E"/>
  <anchor x="587.375" y="0.0" name="bottom"/>
  <anchor x="903.125" y="1462.0" name="top"/>
  <anchor x="1560.75" y="1462.0" name="topright"/>
  <outline>
    <contour>
      <point x="94.5" y="0.0" type="line"/>
      <point x="194.0" y="0.0" type="line"/>
      <point x="392.625" y="940.625" type="line" smooth="yes"/>
      <point x="418.75" y="1064.625"/>
      <point x="440.625" y="1191.625"/>
      <point x="459.75" y="1298.25" type="curve"/>
      <point x="464.5" y="1298.25" type="line"/>
      <point x="995.25" y="0.0" type="line"/>
      <point x="1094.0" y="0.0" type="line"/>
      <point x="1403.0" y="1462.0" type="line"/>
      <point x="1304.625" y="1462.0" type="line"/>
      <point x="1103.25" y="516.375" type="line" smooth="yes"/>
      <point x="1078.5" y="405.0"/>
      <point x="1054.25" y="267.625"/>
      <point x="1036.25" y="164.625" type="curve"/>
      <point x="1031.5" y="164.625" type="line"/>
      <point x="501.625" y="1462.0" type="line"/>
      <point x="404.125" y="1462.0" type="line"/>
    </contour>
  </outline>
</glyph>
<glyph name="O" format="2">
  <advance width="1470.125"/>
  <unicode hex="004F"/>
  <anchor x="635.25" y="0.0" name="bottom"/>
  <anchor x="790.125" y="731.0" name="center"/>
  <anchor x="931.5" y="1462.0" name="top"/>
  <anchor x="1625.0" y="1462.0" name="topright"/>
  <outline>
    <contour>
      <point x="686.25" y="-20.0" type="curve" smooth="yes"/>
      <point x="1209.25" y="-20.0"/>
      <point x="1394.875" y="522.375"/>
      <point x="1394.875" y="911.5" type="curve" smooth="yes"/>
      <point x="1394.875" y="1289.125"/>
      <point x="1198.375" y="1485.0"/>
      <point x="884.5" y="1485.0" type="curve" smooth="yes"/>
      <point x="406.625" y="1485.0"/>
      <point x="162.625" y="1027.875"/>
      <point x="162.625" y="558.25" type="curve" smooth="yes"/>
      <point x="162.625" y="227.625"/>
      <point x="319.375" y="-20.0"/>
    </contour>
    <contour>
      <point x="689.75" y="72.25" type="curve" smooth="yes"/>
      <point x="404.375" y="72.25"/>
      <point x="270.125" y="267.375"/>
      <point x="270.125" y="561.0" type="curve" smooth="yes"/>
      <point x="270.125" y="942.625"/>
      <point x="452.0" y="1392.375"/>
      <point x="877.125" y="1392.375" type="curve" smooth="yes"/>
      <point x="1148.875" y="1392.375"/>
      <point x="1287.75" y="1210.875"/>
      <point x="1287.75" y="911.75" type="curve" smooth="yes"/>
      <point x="1287.75" y="556.25"/>
      <point x="1113.875" y="72.25"/>
    </contour>
  </outline>
</glyph>
<glyph name="P" format="2">
  <advance width="1149.75"/>
  <unicode hex="0050"/>
  <anchor x="460.0" y="0.0" name="bottom"/>
  <anchor x="766.5" y="1462.0" name="top"/>
  <anchor x="1304.375" y="1462.0" name="topright"/>
  <outline>
    <contour>
      <point x="95.25" y="0.0" type="line"/>
      <point x="198.5" y="0.0" type="line"/>
      <point x="325.75" y="604.75" type="line"/>
      <point x="555.5" y="604.75" type="line" smooth="yes"/>
      <point x="956.125" y="604.75"/>
      <point x="1149.75" y="796.375"/>
      <point x="1149.75" y="1094.125" type="curve" smooth="yes"/>
      <point x="1149.75" y="1327.75"/>
      <point x="1012.375" y="1462.0"/>
      <point x="726.75" y="1462.0" type="curve" smooth="yes"/>
      <point x="404.875" y="1462.0" type="line"/>
    </contour>
    <contour>
      <point x="345.625" y="694.375" type="line"/>
      <point x="489.25" y="1371.25" type="line"/>
      <point x="711.125" y="1371.25" type="line" smooth="yes"/>
      <point x="928.125" y="1371.25"/>
      <point x="1045.0" y="1287.0"/>
      <point x="1045.0" y="1090.625" type="curve" smooth="yes"/>
      <point x="1045.0" y="844.0"/>
      <point x="890.875" y="694.375"/>
      <point x="571.375" y="694.375" type="curve" smooth="yes"/>
    </contour>
  </outline>
</glyph>
<glyph name="Q" format="2">
  <advance width="1464"/>
  <unicode hex="0051"/>
  <anchor x="616" y="0" name="bottom"/>
  <anchor x="927" y="1462" name="top"/>
  <outline>
    <contour>
      <point x="997" y="-348" type="line"/>
      <point x="1139" y="-348" type="line"/>
      <point x="872" y="2" type="line"/>
      <point x="977" y="32"/>
      <point x="1069" y="88"/>
      <point x="1147" y="169" type="curve" smooth="yes"/>
      <point x="1302" y="332"/>
      <point x="1403" y="623"/>
      <point x="1403" y="911" type="curve" smooth="yes"/>
      <point x="1403" y="1278"/>
      <point x="1222" y="1483"/>
      <point x="893" y="1483" type="curve" smooth="yes"/>
      <point x="752" y="1483"/>
      <point x="628" y="1445"/>
      <point x="520" y="1368" type="curve" smooth="yes"/>
      <point x="304" y="1214"/>
      <point x="172" y="908"/>
      <point x="172" y="559" type="curve" smooth="yes"/>
      <point x="172" y="184"/>
      <point x="359" y="-20"/>
      <point x="692" y="-20" type="curve"/>
      <point x="717" y="-20"/>
      <point x="741" y="-18"/>
      <point x="766" y="-16" type="curve"/>
    </contour>
    <contour>
      <point x="705" y="72" type="curve" smooth="yes"/>
      <point x="425" y="72"/>
      <point x="276" y="246"/>
      <point x="276" y="573" type="curve" smooth="yes"/>
      <point x="276" y="720"/>
      <point x="303" y="859"/>
      <point x="356" y="990" type="curve" smooth="yes"/>
      <point x="463" y="1253"/>
      <point x="647" y="1389"/>
      <point x="879" y="1389" type="curve" smooth="yes"/>
      <point x="1154" y="1389"/>
      <point x="1294" y="1221"/>
      <point x="1294" y="901" type="curve" smooth="yes"/>
      <point x="1294" y="748"/>
      <point x="1268" y="605"/>
      <point x="1215" y="471" type="curve" smooth="yes"/>
      <point x="1110" y="202"/>
      <point x="930" y="72"/>
    </contour>
  </outline>
</glyph>
<glyph name="R" format="2">
  <advance width="1145"/>
  <unicode hex="0052"/>
  <anchor x="457" y="0" name="bottom"/>
  <anchor x="768" y="1462" name="top"/>
  <outline>
    <contour>
      <point x="102" y="0" type="line"/>
      <point x="205" y="0" type="line"/>
      <point x="336" y="633" type="line"/>
      <point x="659" y="633" type="line"/>
      <point x="870" y="0" type="line"/>
      <point x="981" y="0" type="line"/>
      <point x="760" y="647" type="line"/>
      <point x="847" y="662"/>
      <point x="922" y="695"/>
      <point x="982" y="742" type="curve" smooth="yes"/>
      <point x="1086" y="823"/>
      <point x="1145" y="948"/>
      <point x="1145" y="1102" type="curve" smooth="yes"/>
      <point x="1145" y="1342"/>
      <point x="1002" y="1462"/>
      <point x="715" y="1462" type="curve" smooth="yes"/>
      <point x="412" y="1462" type="line"/>
    </contour>
    <contour>
      <point x="358" y="725" type="line"/>
      <point x="496" y="1370" type="line"/>
      <point x="707" y="1370" type="line" smooth="yes"/>
      <point x="926" y="1370"/>
      <point x="1036" y="1281"/>
      <point x="1036" y="1102" type="curve" smooth="yes"/>
      <point x="1036" y="854"/>
      <point x="887" y="725"/>
      <point x="610" y="725" type="curve" smooth="yes"/>
    </contour>
  </outline>
</glyph>
<glyph name="S" format="2">
  <advance width="1025.25"/>
  <unicode hex="0053"/>
  <anchor x="397.25" y="0.0" name="bottom"/>
  <anchor x="701.375" y="1462.0" name="top"/>
  <anchor x="1180.5" y="1462.0" name="topright"/>
  <outline>
    <contour>
      <point x="395.875" y="-20.0" type="curve" smooth="yes"/>
      <point x="648.25" y="-20.0"/>
      <point x="898.75" y="101.625"/>
      <point x="898.75" y="394.625" type="curve" smooth="yes"/>
      <point x="898.75" y="605.625"/>
      <point x="760.0" y="692.125"/>
      <point x="576.125" y="793.125" type="curve" smooth="yes"/>
      <point x="443.875" y="865.875"/>
      <point x="338.125" y="928.5"/>
      <point x="338.125" y="1082.875" type="curve" smooth="yes"/>
      <point x="338.125" y="1308.375"/>
      <point x="537.375" y="1390.375"/>
      <point x="699.75" y="1390.375" type="curve" smooth="yes"/>
      <point x="821.5" y="1390.375"/>
      <point x="913.875" y="1361.875"/>
      <point x="1009.875" y="1312.875" type="curve"/>
      <point x="1049.875" y="1403.25" type="line"/>
      <point x="949.25" y="1452.5"/>
      <point x="851.25" y="1483.0"/>
      <point x="701.625" y="1483.0" type="curve" smooth="yes"/>
      <point x="465.125" y="1483.0"/>
      <point x="230.625" y="1358.375"/>
      <point x="230.625" y="1076.5" type="curve" smooth="yes"/>
      <point x="230.625" y="889.875"/>
      <point x="359.125" y="794.125"/>
      <point x="502.875" y="717.125" type="curve" smooth="yes"/>
      <point x="685.125" y="622.125"/>
      <point x="792.375" y="547.375"/>
      <point x="792.375" y="389.375" type="curve" smooth="yes"/>
      <point x="792.375" y="159.75"/>
      <point x="579.375" y="71.5"/>
      <point x="396.625" y="71.5" type="curve" smooth="yes"/>
      <point x="244.875" y="71.5"/>
      <point x="129.75" y="106.375"/>
      <point x="39.0" y="152.5" type="curve"/>
      <point x="39.0" y="47.5" type="line"/>
      <point x="129.25" y="7.500000000000001"/>
      <point x="232.375" y="-20.0"/>
    </contour>
  </outline>
</glyph>
<glyph name="T" format="2">
  <advance width="1005.375"/>
  <unicode hex="0054"/>
  <anchor x="388.25" y="0.0" name="bottom"/>
  <anchor x="558.875" y="731.0" name="center"/>
  <anchor x="699.625" y="1462.0" name="top"/>
  <anchor x="1160.625" y="1462.0" name="topright"/>
  <outline>
    <contour>
      <point x="336.625" y="0.0" type="line"/>
      <point x="441.0" y="0.0" type="line"/>
      <point x="731.375" y="1369.375" type="line"/>
      <point x="1170.875" y="1369.375" type="line"/>
      <point x="1189.75" y="1462.0" type="line"/>
      <point x="207.75" y="1462.0" type="line"/>
      <point x="187.75" y="1369.375" type="line"/>
      <point x="626.625" y="1369.375" type="line"/>
    </contour>
  </outline>
</glyph>
<glyph name="U" format="2">
  <advance width="1405.375"/>
  <unicode hex="0055"/>
  <anchor x="600.0" y="0.0" name="bottom"/>
  <anchor x="899.0" y="1462.0" name="top"/>
  <anchor x="1560.625" y="1462.0" name="topright"/>
  <outline>
    <contour>
      <point x="614.0" y="-20.0" type="curve" smooth="yes"/>
      <point x="937.875" y="-20.0"/>
      <point x="1138.25" y="154.875"/>
      <point x="1213.375" y="509.25" type="curve" smooth="yes"/>
      <point x="1415.25" y="1462.0" type="line"/>
      <point x="1312.625" y="1462.0" type="line"/>
      <point x="1110.875" y="520.75" type="line" smooth="yes"/>
      <point x="1046.625" y="221.125"/>
      <point x="882.875" y="72.25"/>
      <point x="619.375" y="72.25" type="curve" smooth="yes"/>
      <point x="404.875" y="72.25"/>
      <point x="277.75" y="182.375"/>
      <point x="277.75" y="382.0" type="curve" smooth="yes"/>
      <point x="277.75" y="425.0"/>
      <point x="284.5" y="485.375"/>
      <point x="296.375" y="540.875" type="curve" smooth="yes"/>
      <point x="492.0" y="1462.0" type="line"/>
      <point x="388.75" y="1462.0" type="line"/>
      <point x="192.875" y="542.5" type="line" smooth="yes"/>
      <point x="180.0" y="480.125"/>
      <point x="173.25" y="424.5"/>
      <point x="173.25" y="378.75" type="curve" smooth="yes"/>
      <point x="173.25" y="121.25"/>
      <point x="335.875" y="-20.0"/>
    </contour>
  </outline>
</glyph>
<glyph name="V" format="2">
  <advance width="1109"/>
  <unicode hex="0056"/>
  <anchor x="438" y="0" name="bottom"/>
  <anchor x="741" y="1462" name="top"/>
  <anchor x="1263" y="1462" name="topright"/>
  <outline>
    <contour>
      <point x="380" y="0" type="line"/>
      <point x="484" y="0" type="line"/>
      <point x="1275" y="1462" type="line"/>
      <point x="1162" y="1462" type="line"/>
      <point x="589" y="387" type="line" smooth="yes"/>
      <point x="532" y="281"/>
      <point x="491" y="200"/>
      <point x="456" y="125" type="curve"/>
      <point x="452" y="125" type="line"/>
      <point x="450" y="203"/>
      <point x="442" y="300"/>
      <point x="432" y="388" type="curve" smooth="yes"/>
      <point x="306" y="1462" type="line"/>
      <point x="206" y="1462" type="line"/>
    </contour>
  </outline>
</glyph>
<glyph name="W" format="2">
  <advance width="1715"/>
  <unicode hex="0057"/>
  <anchor x="750" y="0" name="bottom"/>
  <anchor x="1053" y="1462" name="top"/>
  <anchor x="1870" y="1462" name="topright"/>
  <outline>
    <contour>
      <point x="310" y="0" type="line"/>
      <point x="409" y="0" type="line"/>
      <point x="940" y="1120" type="line" smooth="yes"/>
      <point x="976" y="1198"/>
      <point x="999" y="1251"/>
      <point x="1025" y="1323" type="curve"/>
      <point x="1029" y="1323" type="line"/>
      <point x="1029" y="1251"/>
      <point x="1031" y="1176"/>
      <point x="1036" y="1096" type="curve" smooth="yes"/>
      <point x="1100" y="0" type="line"/>
      <point x="1199" y="0" type="line"/>
      <point x="1865" y="1462" type="line"/>
      <point x="1756" y="1462" type="line"/>
      <point x="1293" y="429" type="line" smooth="yes"/>
      <point x="1247" y="325"/>
      <point x="1213" y="231"/>
      <point x="1181" y="146" type="curve"/>
      <point x="1175" y="146" type="line"/>
      <point x="1175" y="231"/>
      <point x="1173" y="345"/>
      <point x="1167" y="441" type="curve" smooth="yes"/>
      <point x="1106" y="1462" type="line"/>
      <point x="1004" y="1462" type="line"/>
      <point x="517" y="440" type="line" smooth="yes"/>
      <point x="465" y="330"/>
      <point x="428" y="238"/>
      <point x="393" y="151" type="curve"/>
      <point x="387" y="151" type="line"/>
      <point x="389" y="242"/>
      <point x="390" y="341"/>
      <point x="386" y="433" type="curve" smooth="yes"/>
      <point x="340" y="1462" type="line"/>
      <point x="242" y="1462" type="line"/>
    </contour>
  </outline>
</glyph>
<glyph name="X" format="2">
  <advance width="971"/>
  <unicode hex="0058"/>
  <anchor x="370" y="0" name="bottom"/>
  <anchor x="681" y="1462" name="top"/>
  <outline>
    <contour>
      <point x="-135" y="0" type="line"/>
      <point x="-8" y="0" type="line"/>
      <point x="518" y="678" type="line"/>
      <point x="772" y="0" type="line"/>
      <point x="879" y="0" type="line"/>
      <point x="594" y="743" type="line"/>
      <point x="1149" y="1462" type="line"/>
      <point x="1030" y="1462" type="line"/>
      <point x="547" y="836" type="line"/>
      <point x="307" y="1462" type="line"/>
      <point x="201" y="1462" type="line"/>
      <point x="473" y="766" type="line"/>
    </contour>
  </outline>
</glyph>
<glyph name="Y" format="2">
  <advance width="1011.375"/>
  <unicode hex="0059"/>
  <anchor x="391.625" y="0.0" name="bottom"/>
  <anchor x="702.625" y="1462.0" name="top"/>
  <anchor x="1166.625" y="1462.0" name="topright"/>
  <outline>
    <contour>
      <point x="337.625" y="0.0" type="line"/>
      <point x="442.0" y="0.0" type="line"/>
      <point x="557.75" y="555.5" type="line"/>
      <point x="1201.625" y="1462.0" type="line"/>
      <point x="1084.0" y="1462.0" type="line"/>
      <point x="523.125" y="658.375" type="line"/>
      <point x="296.625" y="1462.0" type="line"/>
      <point x="193.625" y="1462.0" type="line"/>
      <point x="455.375" y="552.75" type="line"/>
    </contour>
  </outline>
</glyph>
<glyph name="Z" format="2">
  <advance width="1128"/>
  <unicode hex="005A"/>
  <anchor x="448" y="0" name="bottom"/>
  <anchor x="759" y="1462" name="top"/>
  <outline>
    <contour>
      <point x="-12" y="0" type="line"/>
      <point x="913" y="0" type="line"/>
      <point x="936" y="94" type="line"/>
      <point x="137" y="94" type="line"/>
      <point x="1206" y="1374" type="line"/>
      <point x="1225" y="1462" type="line"/>
      <point x="338" y="1462" type="line"/>
      <point x="315" y="1368" type="line"/>
      <point x="1079" y="1368" type="line"/>
      <point x="10" y="92" type="line"/>
    </contour>
  </outline>
</glyph>
<glyph name="bracketleft" format="2">
  <advance width="537"/>
  <unicode hex="005B"/>
  <note>
bracketleft
</note>
  <outline>
    <contour>
      <point x="-57" y="-324" type="line"/>
      <point x="369" y="-324" type="line"/>
      <point x="389" y="-233" type="line"/>
      <point x="59" y="-233" type="line"/>
      <point x="399" y="1372" type="line"/>
      <point x="729" y="1372" type="line"/>
      <point x="748" y="1462" type="line"/>
      <point x="319" y="1462" type="line"/>
    </contour>
  </outline>
</glyph>
<glyph name="backslash" format="2">
  <advance width="665.25"/>
  <unicode hex="005C"/>
  <outline>
    <contour>
      <point x="456.125" y="0.0" type="line"/>
      <point x="547.0" y="0.0" type="line"/>
      <point x="300.625" y="1462.0" type="line"/>
      <point x="208.5" y="1462.0" type="line"/>
    </contour>
  </outline>
</glyph>
<glyph name="bracketright" format="2">
  <advance width="610.875"/>
  <unicode hex="005D"/>
  <outline>
    <contour>
      <point x="-147.0" y="-324.0" type="line"/>
      <point x="246.0" y="-324.0" type="line"/>
      <point x="627.0" y="1462.0" type="line"/>
      <point x="231.0" y="1462.0" type="line"/>
      <point x="210.25" y="1372.5" type="line"/>
      <point x="508.375" y="1372.5" type="line"/>
      <point x="167.75" y="-233.5" type="line"/>
      <point x="-128.25" y="-233.5" type="line"/>
    </contour>
  </outline>
</glyph>
<glyph name="asciicircum" format="2">
  <advance width="1142.875"/>
  <unicode hex="005E"/>
  <outline>
    <contour>
      <point x="93.0" y="560.75" type="line"/>
      <point x="194.25" y="560.75" type="line"/>
      <point x="684.375" y="1358.875" type="line"/>
      <point x="963.375" y="560.75" type="line"/>
      <point x="1055.25" y="560.75" type="line"/>
      <point x="724.625" y="1473.0" type="line"/>
      <point x="655.125" y="1473.0" type="line"/>
    </contour>
  </outline>
</glyph>
<glyph name="underscore" format="2">
  <advance width="801"/>
  <unicode hex="005F"/>
  <note>
underscore
</note>
  <outline>
    <contour>
      <point x="-182" y="-291" type="line"/>
      <point x="625" y="-291" type="line"/>
      <point x="643" y="-205" type="line"/>
      <point x="-164" y="-205" type="line"/>
    </contour>
  </outline>
</glyph>
<glyph name="grave" format="2">
  <advance width="502.75"/>
  <unicode hex="0060"/>
  <anchor x="440.125" y="1091.125" name="_top"/>
  <outline>
    <contour>
      <point x="509.0" y="1241.0" type="curve"/>
      <point x="569.375" y="1241.0" type="line"/>
      <point x="569.375" y="1266.0" type="line"/>
      <point x="519.375" y="1339.875"/>
      <point x="445.125" y="1465.5"/>
      <point x="408.25" y="1569.0" type="curve"/>
      <point x="300.25" y="1569.0" type="line"/>
      <point x="300.25" y="1548.0" type="line"/>
      <point x="337.5" y="1470.125"/>
      <point x="439.75" y="1316.5"/>
    </contour>
  </outline>
</glyph>
<glyph name="a" format="2">
  <advance width="1136.125"/>
  <unicode hex="0061"/>
  <anchor x="453.125" y="0.0" name="bottom"/>
  <anchor x="684.25" y="1087.375" name="top"/>
  <anchor x="1210.875" y="1087.375" name="topright"/>
  <outline>
    <contour>
      <point x="400.0" y="-20.0" type="curve" smooth="yes"/>
      <point x="578.375" y="-20.0"/>
      <point x="725.25" y="130.75"/>
      <point x="803.625" y="254.25" type="curve"/>
      <point x="809.125" y="254.25" type="line"/>
      <point x="763.75" y="0.0" type="line"/>
      <point x="845.5" y="0.0" type="line"/>
      <point x="1076.625" y="1087.375" type="line"/>
      <point x="996.5" y="1087.375" type="line"/>
      <point x="937.75" y="869.25" type="line"/>
      <point x="931.125" y="869.25" type="line"/>
      <point x="901.75" y="980.5"/>
      <point x="821.25" y="1108.0"/>
      <point x="647.0" y="1108.0" type="curve" smooth="yes"/>
      <point x="302.625" y="1108.0"/>
      <point x="101.75" y="722.75"/>
      <point x="101.75" y="360.875" type="curve" smooth="yes"/>
      <point x="101.75" y="124.0"/>
      <point x="211.5" y="-20.0"/>
    </contour>
    <contour>
      <point x="426.875" y="67.75" type="curve" smooth="yes"/>
      <point x="281.0" y="67.75"/>
      <point x="206.125" y="176.125"/>
      <point x="206.125" y="359.375" type="curve" smooth="yes"/>
      <point x="206.125" y="682.75"/>
      <point x="373.25" y="1019.5"/>
      <point x="652.5" y="1019.5" type="curve" smooth="yes"/>
      <point x="796.625" y="1019.5"/>
      <point x="885.125" y="913.875"/>
      <point x="885.125" y="738.625" type="curve" smooth="yes"/>
      <point x="885.125" y="685.0"/>
      <point x="877.875" y="624.25"/>
      <point x="860.0" y="542.5" type="curve" smooth="yes"/>
      <point x="799.375" y="273.375"/>
      <point x="599.0" y="67.75"/>
    </contour>
  </outline>
</glyph>
<glyph name="b" format="2">
  <advance width="1171.625"/>
  <unicode hex="0062"/>
  <anchor x="478.625" y="0.0" name="bottom"/>
  <anchor x="838.25" y="1556.0" name="top"/>
  <anchor x="1345.625" y="1556.0" name="topright"/>
  <outline>
    <contour>
      <point x="512.25" y="-20.0" type="curve" smooth="yes"/>
      <point x="874.875" y="-20.0"/>
      <point x="1063.75" y="369.625"/>
      <point x="1063.75" y="726.75" type="curve" smooth="yes"/>
      <point x="1063.75" y="963.375"/>
      <point x="941.875" y="1107.25"/>
      <point x="750.875" y="1107.25" type="curve" smooth="yes"/>
      <point x="560.375" y="1107.25"/>
      <point x="420.0" y="965.25"/>
      <point x="336.375" y="833.0" type="curve"/>
      <point x="330.875" y="833.0" type="line"/>
      <point x="348.625" y="900.25"/>
      <point x="382.125" y="1035.125"/>
      <point x="404.625" y="1140.5" type="curve" smooth="yes"/>
      <point x="493.25" y="1556.0" type="line"/>
      <point x="392.0" y="1556.0" type="line"/>
      <point x="62.625" y="0.0" type="line"/>
      <point x="143.0" y="0.0" type="line"/>
      <point x="201.25" y="218.0" type="line"/>
      <point x="207.5" y="218.0" type="line"/>
      <point x="236.125" y="97.375"/>
      <point x="328.0" y="-20.0"/>
    </contour>
    <contour>
      <point x="508.875" y="67.75" type="curve" smooth="yes"/>
      <point x="349.875" y="67.75"/>
      <point x="252.375" y="166.5"/>
      <point x="252.375" y="348.75" type="curve" smooth="yes"/>
      <point x="252.375" y="681.5"/>
      <point x="468.125" y="1019.5"/>
      <point x="723.25" y="1019.5" type="curve" smooth="yes"/>
      <point x="875.125" y="1019.5"/>
      <point x="959.75" y="911.125"/>
      <point x="959.75" y="727.5" type="curve" smooth="yes"/>
      <point x="959.75" y="411.125"/>
      <point x="801.625" y="67.75"/>
    </contour>
  </outline>
</glyph>
<glyph name="c" format="2">
  <advance width="926.75"/>
  <unicode hex="0063"/>
  <anchor x="378.0" y="0.0" name="bottom"/>
  <anchor x="596.375" y="1087.375" name="top"/>
  <anchor x="1000.875" y="1087.375" name="topright"/>
  <outline>
    <contour>
      <point x="506.0" y="-20.0" type="curve" smooth="yes"/>
      <point x="618.0" y="-20.0"/>
      <point x="706.125" y="6.0"/>
      <point x="775.5" y="41.25" type="curve"/>
      <point x="775.5" y="131.375" type="line"/>
      <point x="691.875" y="93.125"/>
      <point x="611.625" y="67.75"/>
      <point x="514.0" y="67.75" type="curve" smooth="yes"/>
      <point x="316.75" y="67.75"/>
      <point x="211.125" y="207.5"/>
      <point x="211.125" y="397.25" type="curve" smooth="yes"/>
      <point x="211.125" y="738.25"/>
      <point x="394.375" y="1019.5"/>
      <point x="681.5" y="1019.5" type="curve" smooth="yes"/>
      <point x="760.75" y="1019.5"/>
      <point x="848.0" y="1000.0"/>
      <point x="911.125" y="968.75" type="curve"/>
      <point x="940.25" y="1057.5" type="line"/>
      <point x="869.75" y="1089.875"/>
      <point x="774.25" y="1108.0"/>
      <point x="680.75" y="1108.0" type="curve" smooth="yes"/>
      <point x="319.0" y="1108.0"/>
      <point x="107.375" y="775.75"/>
      <point x="107.375" y="394.0" type="curve" smooth="yes"/>
      <point x="107.375" y="143.125"/>
      <point x="255.75" y="-20.0"/>
    </contour>
  </outline>
</glyph>
<glyph name="d" format="2">
  <advance width="1133"/>
  <unicode hex="0064"/>
  <anchor x="451" y="0" name="bottom"/>
  <anchor x="567" y="544" name="center"/>
  <anchor x="683" y="1087" name="top"/>
  <anchor x="1478" y="1556" name="topright"/>
  <outline>
    <contour>
      <point x="383" y="-20" type="curve" smooth="yes"/>
      <point x="550" y="-20"/>
      <point x="692" y="78"/>
      <point x="807" y="274" type="curve"/>
      <point x="813" y="274" type="line"/>
      <point x="768" y="0" type="line"/>
      <point x="850" y="0" type="line"/>
      <point x="1180" y="1556" type="line"/>
      <point x="1081" y="1556" type="line"/>
      <point x="985" y="1110" type="line"/>
      <point x="958" y="984"/>
      <point x="942" y="909"/>
      <point x="938" y="885" type="curve"/>
      <point x="934" y="885" type="line"/>
      <point x="901" y="1031"/>
      <point x="808" y="1104"/>
      <point x="655" y="1104" type="curve" smooth="yes"/>
      <point x="550" y="1104"/>
      <point x="455" y="1070"/>
      <point x="371" y="1003" type="curve" smooth="yes"/>
      <point x="260" y="913"/>
      <point x="178" y="771"/>
      <point x="135" y="610" type="curve" smooth="yes"/>
      <point x="114" y="528"/>
      <point x="102" y="441"/>
      <point x="102" y="354" type="curve" smooth="yes"/>
      <point x="102" y="105"/>
      <point x="196" y="-20"/>
    </contour>
    <contour>
      <point x="406" y="70" type="curve" smooth="yes"/>
      <point x="272" y="70"/>
      <point x="205" y="168"/>
      <point x="205" y="365" type="curve" smooth="yes"/>
      <point x="205" y="477"/>
      <point x="226" y="586"/>
      <point x="269" y="693" type="curve" smooth="yes"/>
      <point x="302" y="776"/>
      <point x="344" y="844"/>
      <point x="392" y="896" type="curve" smooth="yes"/>
      <point x="466" y="976"/>
      <point x="557" y="1018"/>
      <point x="657" y="1018" type="curve" smooth="yes"/>
      <point x="800" y="1018"/>
      <point x="887" y="909"/>
      <point x="887" y="741" type="curve" smooth="yes"/>
      <point x="887" y="671"/>
      <point x="868" y="572"/>
      <point x="831" y="473" type="curve" smooth="yes"/>
      <point x="809" y="413"/>
      <point x="780" y="354"/>
      <point x="745" y="301" type="curve" smooth="yes"/>
      <point x="651" y="160"/>
      <point x="525" y="70"/>
    </contour>
  </outline>
</glyph>
<glyph name="e" format="2">
  <advance width="1012.0"/>
  <unicode hex="0065"/>
  <anchor x="416.0" y="0.0" name="bottom"/>
  <anchor x="627.375" y="1087.375" name="top"/>
  <anchor x="1086.125" y="1087.375" name="topright"/>
  <outline>
    <contour>
      <point x="501.0" y="-20.0" type="curve" smooth="yes"/>
      <point x="623.125" y="-20.0"/>
      <point x="728.0" y="12.0"/>
      <point x="804.5" y="50.25" type="curve"/>
      <point x="804.5" y="141.125" type="line"/>
      <point x="722.75" y="103.75"/>
      <point x="631.0" y="67.75"/>
      <point x="519.25" y="67.75" type="curve" smooth="yes"/>
      <point x="329.375" y="67.75"/>
      <point x="219.125" y="186.625"/>
      <point x="219.125" y="397.75" type="curve" smooth="yes"/>
      <point x="219.125" y="435.75"/>
      <point x="222.375" y="477.875"/>
      <point x="225.625" y="505.625" type="curve"/>
      <point x="282.125" y="505.625" type="line" smooth="yes"/>
      <point x="683.125" y="505.625"/>
      <point x="946.625" y="618.875"/>
      <point x="946.625" y="865.75" type="curve" smooth="yes"/>
      <point x="946.625" y="1012.0"/>
      <point x="841.5" y="1108.0"/>
      <point x="668.875" y="1108.0" type="curve" smooth="yes"/>
      <point x="347.0" y="1108.0"/>
      <point x="116.125" y="773.5"/>
      <point x="116.125" y="395.5" type="curve" smooth="yes"/>
      <point x="116.125" y="113.375"/>
      <point x="285.125" y="-20.0"/>
    </contour>
    <contour>
      <point x="241.0" y="592.25" type="line"/>
      <point x="301.625" y="863.875"/>
      <point x="486.625" y="1020.25"/>
      <point x="660.125" y="1020.25" type="curve" smooth="yes"/>
      <point x="783.25" y="1020.25"/>
      <point x="845.875" y="952.375"/>
      <point x="845.875" y="859.25" type="curve" smooth="yes"/>
      <point x="845.875" y="671.25"/>
      <point x="613.5" y="592.25"/>
      <point x="307.875" y="592.25" type="curve" smooth="yes"/>
    </contour>
  </outline>
</glyph>
<glyph name="f" format="2">
  <advance width="578"/>
  <unicode hex="0066"/>
  <anchor x="173" y="0" name="bottom"/>
  <anchor x="405" y="1087" name="top"/>
  <outline>
    <contour>
      <point x="-131" y="-492" type="curve" smooth="yes"/>
      <point x="-2" y="-492"/>
      <point x="81" y="-436"/>
      <point x="132" y="-309" type="curve" smooth="yes"/>
      <point x="146" y="-273"/>
      <point x="158" y="-231"/>
      <point x="168" y="-184" type="curve" smooth="yes"/>
      <point x="420" y="1006" type="line"/>
      <point x="668" y="1006" type="line"/>
      <point x="684" y="1087" type="line"/>
      <point x="436" y="1087" type="line"/>
      <point x="448" y="1142"/>
      <point x="459" y="1196"/>
      <point x="471" y="1251" type="curve" smooth="yes"/>
      <point x="507" y="1418"/>
      <point x="581" y="1483"/>
      <point x="709" y="1483" type="curve" smooth="yes"/>
      <point x="749" y="1483"/>
      <point x="798" y="1474"/>
      <point x="856" y="1456" type="curve"/>
      <point x="881" y="1536" type="line"/>
      <point x="819" y="1557"/>
      <point x="764" y="1567"/>
      <point x="715" y="1567" type="curve" smooth="yes"/>
      <point x="629" y="1567"/>
      <point x="561" y="1548"/>
      <point x="508" y="1508" type="curve" smooth="yes"/>
      <point x="441" y="1457"/>
      <point x="397" y="1372"/>
      <point x="371" y="1247" type="curve" smooth="yes"/>
      <point x="336" y="1087" type="line"/>
      <point x="131" y="1073" type="line"/>
      <point x="117" y="1006" type="line"/>
      <point x="322" y="1006" type="line"/>
      <point x="76" y="-160" type="line" smooth="yes"/>
      <point x="67" y="-202"/>
      <point x="57" y="-237"/>
      <point x="46" y="-266" type="curve" smooth="yes"/>
      <point x="9" y="-363"/>
      <point x="-43" y="-399"/>
      <point x="-133" y="-399" type="curve" smooth="yes"/>
      <point x="-164" y="-399"/>
      <point x="-198" y="-394"/>
      <point x="-233" y="-383" type="curve"/>
      <point x="-233" y="-473" type="line"/>
      <point x="-197" y="-486"/>
      <point x="-163" y="-492"/>
    </contour>
  </outline>
</glyph>
<glyph name="g" format="2">
  <advance width="1049.75"/>
  <unicode hex="0067"/>
  <note>
g
</note>
  <anchor x="371.375" y="-492.0" name="bottom"/>
  <anchor x="614.375" y="1087.375" name="top"/>
  <anchor x="1130.625" y="1087.375" name="topright"/>
  <outline>
    <contour>
      <point x="317.0" y="-492.0" type="curve" smooth="yes"/>
      <point x="605.0" y="-492.0"/>
      <point x="858.375" y="-376.0"/>
      <point x="858.375" y="-117.875" type="curve" smooth="yes"/>
      <point x="858.375" y="35.625"/>
      <point x="742.25" y="123.875"/>
      <point x="512.5" y="144.75" type="curve" smooth="yes"/>
      <point x="391.125" y="155.625" type="line" smooth="yes"/>
      <point x="287.75" y="164.375"/>
      <point x="244.625" y="199.125"/>
      <point x="244.625" y="256.625" type="curve" smooth="yes"/>
      <point x="244.625" y="307.375"/>
      <point x="290.0" y="372.625"/>
      <point x="406.125" y="408.875" type="curve"/>
      <point x="429.5" y="403.25"/>
      <point x="457.5" y="399.625"/>
      <point x="490.125" y="399.625" type="curve" smooth="yes"/>
      <point x="755.125" y="399.625"/>
      <point x="902.5" y="562.0"/>
      <point x="906.875" y="798.25" type="curve" smooth="yes"/>
      <point x="909.375" y="880.375"/>
      <point x="886.625" y="950.25"/>
      <point x="844.0" y="1000.0" type="curve"/>
      <point x="1089.375" y="1009.625" type="line"/>
      <point x="1105.625" y="1086.0" type="line"/>
      <point x="739.0" y="1086.0" type="line"/>
      <point x="698.0" y="1099.625"/>
      <point x="653.875" y="1107.25"/>
      <point x="606.875" y="1107.25" type="curve" smooth="yes"/>
      <point x="363.25" y="1107.25"/>
      <point x="196.875" y="943.625"/>
      <point x="191.875" y="704.0" type="curve" smooth="yes"/>
      <point x="189.375" y="591.75"/>
      <point x="238.375" y="488.875"/>
      <point x="331.125" y="438.375" type="curve"/>
      <point x="213.875" y="387.0"/>
      <point x="152.5" y="321.25"/>
      <point x="152.5" y="241.125" type="curve" smooth="yes"/>
      <point x="152.5" y="188.75"/>
      <point x="176.625" y="144.0"/>
      <point x="225.5" y="117.0" type="curve"/>
      <point x="24.250000000000004" y="51.25"/>
      <point x="-78.875" y="-59.75"/>
      <point x="-78.875" y="-217.25" type="curve" smooth="yes"/>
      <point x="-78.875" y="-391.875"/>
      <point x="69.875" y="-492.0"/>
    </contour>
    <contour>
      <point x="326.75" y="-411.375" type="curve" smooth="yes"/>
      <point x="135.125" y="-411.375"/>
      <point x="16.874999999999996" y="-345.5"/>
      <point x="16.874999999999996" y="-208.125" type="curve" smooth="yes"/>
      <point x="16.874999999999996" y="-75.375"/>
      <point x="108.625" y="28.875"/>
      <point x="306.125" y="78.75" type="curve"/>
      <point x="472.625" y="64.0" type="line" smooth="yes"/>
      <point x="662.5" y="47.625"/>
      <point x="761.875" y="-5.3749999999999964"/>
      <point x="761.875" y="-129.625" type="curve" smooth="yes"/>
      <point x="761.875" y="-297.125"/>
      <point x="599.75" y="-411.375"/>
    </contour>
    <contour>
      <point x="502.375" y="475.375" type="curve" smooth="yes"/>
      <point x="366.625" y="475.375"/>
      <point x="283.625" y="554.5"/>
      <point x="287.375" y="705.0" type="curve" smooth="yes"/>
      <point x="291.75" y="890.625"/>
      <point x="406.75" y="1028.5"/>
      <point x="597.375" y="1028.5" type="curve" smooth="yes"/>
      <point x="734.5" y="1028.5"/>
      <point x="816.125" y="942.0"/>
      <point x="812.375" y="801.125" type="curve" smooth="yes"/>
      <point x="808.0" y="614.0"/>
      <point x="693.75" y="475.375"/>
    </contour>
  </outline>
</glyph>
<glyph name="h" format="2">
  <advance width="1143"/>
  <unicode hex="0068"/>
  <anchor x="456" y="0" name="bottom"/>
  <anchor x="572" y="544" name="center"/>
  <anchor x="679" y="1457" name="top"/>
  <outline>
    <contour>
      <point x="76" y="0" type="line"/>
      <point x="174" y="0" type="line"/>
      <point x="276" y="477" type="line" smooth="yes"/>
      <point x="300" y="587"/>
      <point x="335" y="682"/>
      <point x="380" y="763" type="curve" smooth="yes"/>
      <point x="470" y="924"/>
      <point x="607" y="1018"/>
      <point x="756" y="1018" type="curve" smooth="yes"/>
      <point x="877" y="1018"/>
      <point x="934" y="955"/>
      <point x="934" y="848" type="curve" smooth="yes"/>
      <point x="934" y="805"/>
      <point x="927" y="753"/>
      <point x="913" y="692" type="curve" smooth="yes"/>
      <point x="764" y="0" type="line"/>
      <point x="862" y="0" type="line"/>
      <point x="1010" y="674" type="line" smooth="yes"/>
      <point x="1026" y="749"/>
      <point x="1034" y="809"/>
      <point x="1034" y="856" type="curve" smooth="yes"/>
      <point x="1034" y="1013"/>
      <point x="939" y="1104"/>
      <point x="774" y="1104" type="curve" smooth="yes"/>
      <point x="613" y="1104"/>
      <point x="462" y="1017"/>
      <point x="358" y="866" type="curve"/>
      <point x="352" y="866" type="line"/>
      <point x="367" y="919"/>
      <point x="389" y="1012"/>
      <point x="418" y="1145" type="curve" smooth="yes"/>
      <point x="504" y="1556" type="line"/>
      <point x="408" y="1556" type="line"/>
    </contour>
  </outline>
</glyph>
<glyph name="j" format="2">
  <advance width="463"/>
  <unicode hex="006A"/>
  <anchor x="-168" y="-492" name="bottom"/>
  <anchor x="433" y="1488" name="top"/>
  <anchor x="623" y="1488" name="topright"/>
  <outline>
    <contour>
      <point x="-159" y="-492" type="curve" smooth="yes"/>
      <point x="0" y="-492"/>
      <point x="81" y="-393"/>
      <point x="119" y="-212" type="curve" smooth="yes"/>
      <point x="393" y="1087" type="line"/>
      <point x="294" y="1087" type="line"/>
      <point x="21" y="-200" type="line" smooth="yes"/>
      <point x="-6" y="-332"/>
      <point x="-61" y="-403"/>
      <point x="-162" y="-403" type="curve" smooth="yes"/>
      <point x="-200" y="-403"/>
      <point x="-246" y="-396"/>
      <point x="-279" y="-381" type="curve"/>
      <point x="-279" y="-471" type="line"/>
      <point x="-250" y="-482"/>
      <point x="-201" y="-492"/>
    </contour>
    <contour>
      <point x="405" y="1324" type="curve" smooth="yes"/>
      <point x="451" y="1324"/>
      <point x="485" y="1371"/>
      <point x="485" y="1426" type="curve" smooth="yes"/>
      <point x="485" y="1461"/>
      <point x="467" y="1488"/>
      <point x="423" y="1488" type="curve" smooth="yes"/>
      <point x="368" y="1488"/>
      <point x="339" y="1437"/>
      <point x="339" y="1388" type="curve" smooth="yes"/>
      <point x="339" y="1347"/>
      <point x="366" y="1324"/>
    </contour>
  </outline>
</glyph>
<glyph name="k" format="2">
  <advance width="944"/>
  <unicode hex="006B"/>
  <anchor x="356" y="0" name="bottom"/>
  <anchor x="588" y="1087" name="top"/>
  <outline>
    <contour>
      <point x="76" y="0" type="line"/>
      <point x="172" y="0" type="line"/>
      <point x="252" y="371" type="line"/>
      <point x="457" y="559" type="line"/>
      <point x="721" y="0" type="line"/>
      <point x="827" y="0" type="line"/>
      <point x="530" y="618" type="line"/>
      <point x="1004" y="1087" type="line"/>
      <point x="879" y="1087" type="line"/>
      <point x="409" y="616" type="line"/>
      <point x="363" y="570"/>
      <point x="316" y="523"/>
      <point x="270" y="477" type="curve"/>
      <point x="266" y="477" type="line"/>
      <point x="289" y="577"/>
      <point x="313" y="676"/>
      <point x="336" y="776" type="curve"/>
      <point x="502" y="1556" type="line"/>
      <point x="406" y="1556" type="line"/>
    </contour>
  </outline>
</glyph>
<glyph name="l" format="2">
  <advance width="475"/>
  <unicode hex="006C"/>
  <anchor x="72" y="0" name="bottom"/>
  <anchor x="512" y="786" name="center"/>
  <anchor x="454" y="1462" name="top"/>
  <anchor x="786" y="1556" name="topright"/>
  <outline>
    <contour>
      <point x="76" y="0" type="line"/>
      <point x="170" y="0" type="line"/>
      <point x="504" y="1556" type="line"/>
      <point x="410" y="1556" type="line"/>
    </contour>
  </outline>
</glyph>
<glyph name="m" format="2">
  <advance width="1751"/>
  <unicode hex="006D"/>
  <anchor x="760" y="0" name="bottom"/>
  <anchor x="992" y="1087" name="top"/>
  <outline>
    <contour>
      <point x="72" y="0" type="line"/>
      <point x="170" y="0" type="line"/>
      <point x="270" y="475" type="line" smooth="yes"/>
      <point x="293" y="586"/>
      <point x="327" y="681"/>
      <point x="370" y="762" type="curve" smooth="yes"/>
      <point x="457" y="923"/>
      <point x="588" y="1018"/>
      <point x="729" y="1018" type="curve" smooth="yes"/>
      <point x="832" y="1018"/>
      <point x="883" y="957"/>
      <point x="883" y="836" type="curve" smooth="yes"/>
      <point x="883" y="811"/>
      <point x="875" y="757"/>
      <point x="858" y="674" type="curve" smooth="yes"/>
      <point x="711" y="0" type="line"/>
      <point x="813" y="0" type="line"/>
      <point x="922" y="518" type="line" smooth="yes"/>
      <point x="959" y="690"/>
      <point x="1032" y="830"/>
      <point x="1127" y="917" type="curve" smooth="yes"/>
      <point x="1197" y="982"/>
      <point x="1279" y="1018"/>
      <point x="1368" y="1018" type="curve" smooth="yes"/>
      <point x="1469" y="1018"/>
      <point x="1530" y="959"/>
      <point x="1530" y="856" type="curve" smooth="yes"/>
      <point x="1530" y="819"/>
      <point x="1522" y="760"/>
      <point x="1505" y="680" type="curve" smooth="yes"/>
      <point x="1356" y="0" type="line"/>
      <point x="1456" y="0" type="line"/>
      <point x="1608" y="690" type="line"/>
      <point x="1622" y="767"/>
      <point x="1630" y="802"/>
      <point x="1630" y="866" type="curve" smooth="yes"/>
      <point x="1630" y="1019"/>
      <point x="1538" y="1104"/>
      <point x="1382" y="1104" type="curve" smooth="yes"/>
      <point x="1225" y="1104"/>
      <point x="1082" y="1014"/>
      <point x="979" y="842" type="curve"/>
      <point x="973" y="842" type="line"/>
      <point x="969" y="1013"/>
      <point x="891" y="1104"/>
      <point x="750" y="1104" type="curve" smooth="yes"/>
      <point x="602" y="1104"/>
      <point x="463" y="1028"/>
      <point x="356" y="877" type="curve"/>
      <point x="350" y="877" type="line"/>
      <point x="383" y="1087" type="line"/>
      <point x="303" y="1087" type="line"/>
    </contour>
  </outline>
</glyph>
<glyph name="n" format="2">
  <advance width="1152.875"/>
  <unicode hex="006E"/>
  <anchor x="463.5" y="0.0" name="bottom"/>
  <anchor x="694.375" y="1087.375" name="top"/>
  <anchor x="1227.0" y="1087.375" name="topright"/>
  <outline>
    <contour>
      <point x="59.625" y="0.0" type="line"/>
      <point x="165.125" y="0.0" type="line"/>
      <point x="277.75" y="528.0" type="line" smooth="yes"/>
      <point x="340.125" y="821.0"/>
      <point x="539.25" y="1017.25"/>
      <point x="732.5" y="1017.25" type="curve" smooth="yes"/>
      <point x="858.0" y="1017.25"/>
      <point x="929.375" y="956.25"/>
      <point x="929.375" y="827.75" type="curve" smooth="yes"/>
      <point x="929.375" y="792.25"/>
      <point x="923.875" y="752.0"/>
      <point x="912.75" y="700.625" type="curve" smooth="yes"/>
      <point x="764.5" y="0.0" type="line"/>
      <point x="869.625" y="0.0" type="line"/>
      <point x="1016.25" y="687.25" type="line" smooth="yes"/>
      <point x="1026.875" y="735.625"/>
      <point x="1035.125" y="792.125"/>
      <point x="1035.125" y="840.5" type="curve" smooth="yes"/>
      <point x="1035.125" y="1014.5"/>
      <point x="933.5" y="1110.25"/>
      <point x="756.25" y="1110.25" type="curve" smooth="yes"/>
      <point x="552.25" y="1110.25"/>
      <point x="408.75" y="954.125"/>
      <point x="338.375" y="836.0" type="curve"/>
      <point x="335.125" y="836.0" type="line"/>
      <point x="379.0" y="1089.625" type="line"/>
      <point x="291.25" y="1089.625" type="line"/>
    </contour>
  </outline>
</glyph>
<glyph name="o" format="2">
  <advance width="1124"/>
  <unicode hex="006F"/>
  <anchor x="446" y="0" name="bottom"/>
  <anchor x="562" y="544" name="center"/>
  <anchor x="896" y="10" name="ogonek"/>
  <anchor x="678" y="1087" name="top"/>
  <anchor x="1220" y="1087" name="topright"/>
  <outline>
    <contour>
      <point x="473" y="-20" type="curve" smooth="yes"/>
      <point x="581" y="-20"/>
      <point x="676" y="10"/>
      <point x="759" y="70" type="curve" smooth="yes"/>
      <point x="924" y="190"/>
      <point x="1026" y="437"/>
      <point x="1026" y="700" type="curve" smooth="yes"/>
      <point x="1026" y="955"/>
      <point x="889" y="1108"/>
      <point x="649" y="1108" type="curve" smooth="yes"/>
      <point x="544" y="1108"/>
      <point x="451" y="1078"/>
      <point x="368" y="1018" type="curve" smooth="yes"/>
      <point x="203" y="898"/>
      <point x="98" y="658"/>
      <point x="98" y="403" type="curve" smooth="yes"/>
      <point x="98" y="131"/>
      <point x="228" y="-20"/>
    </contour>
    <contour>
      <point x="483" y="66" type="curve" smooth="yes"/>
      <point x="295" y="66"/>
      <point x="201" y="180"/>
      <point x="201" y="408" type="curve" smooth="yes"/>
      <point x="201" y="517"/>
      <point x="221" y="621"/>
      <point x="260" y="719" type="curve" smooth="yes"/>
      <point x="339" y="914"/>
      <point x="476" y="1022"/>
      <point x="641" y="1022" type="curve" smooth="yes"/>
      <point x="824" y="1022"/>
      <point x="924" y="907"/>
      <point x="924" y="702" type="curve" smooth="yes"/>
      <point x="924" y="582"/>
      <point x="905" y="472"/>
      <point x="866" y="372" type="curve" smooth="yes"/>
      <point x="788" y="171"/>
      <point x="652" y="66"/>
    </contour>
  </outline>
</glyph>
<glyph name="p" format="2">
  <advance width="1171.625"/>
  <unicode hex="0070"/>
  <anchor x="369.25" y="-481.375" name="bottom"/>
  <anchor x="701.625" y="1087.375" name="top"/>
  <anchor x="1246.375" y="1087.375" name="topright"/>
  <outline>
    <contour>
      <point x="-38.75" y="-481.375" type="line"/>
      <point x="61.12499999999999" y="-481.375" type="line"/>
      <point x="158.0" y="-26.125" type="line" smooth="yes"/>
      <point x="173.375" y="46.0"/>
      <point x="191.0" y="143.625"/>
      <point x="201.25" y="218.0" type="curve"/>
      <point x="207.5" y="218.0" type="line"/>
      <point x="237.625" y="97.375"/>
      <point x="328.0" y="-20.0"/>
      <point x="512.25" y="-20.0" type="curve" smooth="yes"/>
      <point x="874.125" y="-20.0"/>
      <point x="1063.75" y="368.125"/>
      <point x="1063.75" y="726.0" type="curve" smooth="yes"/>
      <point x="1063.75" y="963.375"/>
      <point x="941.875" y="1107.25"/>
      <point x="752.375" y="1107.25" type="curve" smooth="yes"/>
      <point x="561.875" y="1107.25"/>
      <point x="422.375" y="967.75"/>
      <point x="337.625" y="833.0" type="curve"/>
      <point x="332.125" y="833.0" type="line"/>
      <point x="376.75" y="1087.375" type="line"/>
      <point x="293.5" y="1087.375" type="line"/>
    </contour>
    <contour>
      <point x="508.875" y="67.75" type="curve" smooth="yes"/>
      <point x="349.875" y="67.75"/>
      <point x="252.375" y="166.5"/>
      <point x="252.375" y="348.75" type="curve" smooth="yes"/>
      <point x="252.375" y="691.0"/>
      <point x="478.125" y="1019.5"/>
      <point x="723.25" y="1019.5" type="curve" smooth="yes"/>
      <point x="875.125" y="1019.5"/>
      <point x="959.75" y="911.125"/>
      <point x="959.75" y="727.5" type="curve" smooth="yes"/>
      <point x="959.75" y="411.125"/>
      <point x="801.625" y="67.75"/>
    </contour>
  </outline>
</glyph>
<glyph name="q" format="2">
  <advance width="1171.625"/>
  <unicode hex="0071"/>
  <anchor x="369.25" y="-481.375" name="bottom"/>
  <anchor x="701.625" y="1087.375" name="top"/>
  <anchor x="1246.375" y="1087.375" name="topright"/>
  <outline>
    <contour>
      <point x="669.375" y="-481.375" type="line"/>
      <point x="769.25" y="-481.375" type="line"/>
      <point x="1101.625" y="1087.375" type="line"/>
      <point x="1022.875" y="1087.375" type="line"/>
      <point x="963.375" y="869.25" type="line"/>
      <point x="956.75" y="869.25" type="line"/>
      <point x="928.125" y="986.125"/>
      <point x="837.75" y="1108.0"/>
      <point x="655.875" y="1108.0" type="curve" smooth="yes"/>
      <point x="292.5" y="1108.0"/>
      <point x="101.75" y="717.0"/>
      <point x="101.75" y="360.875" type="curve" smooth="yes"/>
      <point x="101.75" y="122.875"/>
      <point x="209.0" y="-20.0"/>
      <point x="407.625" y="-20.0" type="curve" smooth="yes"/>
      <point x="592.875" y="-20.0"/>
      <point x="746.625" y="129.5"/>
      <point x="828.75" y="261.75" type="curve"/>
      <point x="834.25" y="261.75" type="line"/>
      <point x="811.25" y="171.25"/>
      <point x="781.0" y="43.25"/>
      <point x="765.25" y="-28.75" type="curve" smooth="yes"/>
    </contour>
    <contour>
      <point x="433.875" y="67.75" type="curve" smooth="yes"/>
      <point x="275.75" y="67.75"/>
      <point x="206.125" y="176.125"/>
      <point x="206.125" y="359.375" type="curve" smooth="yes"/>
      <point x="206.125" y="675.125"/>
      <point x="366.5" y="1019.5"/>
      <point x="659.125" y="1019.5" type="curve" smooth="yes"/>
      <point x="816.75" y="1019.5"/>
      <point x="912.0" y="916.0"/>
      <point x="912.0" y="737.5" type="curve" smooth="yes"/>
      <point x="912.0" y="394.875"/>
      <point x="669.625" y="67.75"/>
    </contour>
  </outline>
</glyph>
<glyph name="r" format="2">
  <advance width="752"/>
  <unicode hex="0072"/>
  <anchor x="260" y="0" name="bottom"/>
  <anchor x="492" y="1087" name="top"/>
  <outline>
    <contour>
      <point x="72" y="0" type="line"/>
      <point x="170" y="0" type="line"/>
      <point x="270" y="481" type="line" smooth="yes"/>
      <point x="291" y="580"/>
      <point x="325" y="673"/>
      <point x="370" y="758" type="curve" smooth="yes"/>
      <point x="461" y="929"/>
      <point x="577" y="1014"/>
      <point x="702" y="1014" type="curve" smooth="yes"/>
      <point x="746" y="1014"/>
      <point x="784" y="1009"/>
      <point x="815" y="999" type="curve"/>
      <point x="836" y="1092" type="line"/>
      <point x="800" y="1101"/>
      <point x="759" y="1106"/>
      <point x="713" y="1106" type="curve" smooth="yes"/>
      <point x="564" y="1106"/>
      <point x="469" y="1023"/>
      <point x="360" y="883" type="curve"/>
      <point x="354" y="883" type="line"/>
      <point x="383" y="1087" type="line"/>
      <point x="303" y="1087" type="line"/>
    </contour>
  </outline>
</glyph>
<glyph name="s" format="2">
  <advance width="873"/>
  <unicode hex="0073"/>
  <anchor x="322" y="0" name="bottom"/>
  <anchor x="545" y="1087" name="top"/>
  <anchor x="948" y="1087" name="topright"/>
  <outline>
    <contour>
      <point x="329" y="-20" type="curve" smooth="yes"/>
      <point x="588" y="-20"/>
      <point x="721" y="108"/>
      <point x="721" y="295" type="curve" smooth="yes"/>
      <point x="721" y="459"/>
      <point x="599" y="525"/>
      <point x="466" y="599" type="curve" smooth="yes"/>
      <point x="338" y="669"/>
      <point x="257" y="716"/>
      <point x="257" y="820" type="curve" smooth="yes"/>
      <point x="257" y="954"/>
      <point x="365" y="1020"/>
      <point x="516" y="1020" type="curve" smooth="yes"/>
      <point x="627" y="1020"/>
      <point x="724" y="990"/>
      <point x="794" y="955" type="curve"/>
      <point x="827" y="1041" type="line"/>
      <point x="751" y="1076"/>
      <point x="646" y="1108"/>
      <point x="517" y="1108" type="curve" smooth="yes"/>
      <point x="311" y="1108"/>
      <point x="155" y="1007"/>
      <point x="155" y="813" type="curve" smooth="yes"/>
      <point x="155" y="667"/>
      <point x="259" y="600"/>
      <point x="402" y="521" type="curve" smooth="yes"/>
      <point x="528" y="451"/>
      <point x="617" y="403"/>
      <point x="617" y="287" type="curve" smooth="yes"/>
      <point x="617" y="158"/>
      <point x="528" y="67"/>
      <point x="328" y="67" type="curve" smooth="yes"/>
      <point x="210" y="67"/>
      <point x="96" y="108"/>
      <point x="19" y="154" type="curve"/>
      <point x="19" y="53" type="line"/>
      <point x="87" y="17"/>
      <point x="190" y="-20"/>
    </contour>
  </outline>
</glyph>
<glyph name="t" format="2">
  <advance width="650.625"/>
  <unicode hex="0074"/>
  <anchor x="284.625" y="0.0" name="bottom"/>
  <anchor x="297.75" y="544.0" name="center"/>
  <anchor x="496.875" y="1349.25" name="top"/>
  <anchor x="809.375" y="1349.25" name="topright"/>
  <outline>
    <contour>
      <point x="329.0" y="-20.0" type="curve" smooth="yes"/>
      <point x="394.875" y="-20.0"/>
      <point x="454.25" y="-5.0"/>
      <point x="493.5" y="9.75" type="curve"/>
      <point x="493.5" y="93.375" type="line"/>
      <point x="446.75" y="77.0"/>
      <point x="400.0" y="67.0"/>
      <point x="340.375" y="67.0" type="curve" smooth="yes"/>
      <point x="248.625" y="67.0"/>
      <point x="211.375" y="117.25"/>
      <point x="211.375" y="197.5" type="curve" smooth="yes"/>
      <point x="211.375" y="234.0"/>
      <point x="217.625" y="277.25"/>
      <point x="226.875" y="318.875" type="curve" smooth="yes"/>
      <point x="372.0" y="1004.125" type="line"/>
      <point x="683.875" y="1004.125" type="line"/>
      <point x="701.875" y="1087.375" type="line"/>
      <point x="389.625" y="1087.375" type="line"/>
      <point x="445.875" y="1349.25" type="line"/>
      <point x="379.25" y="1349.25" type="line"/>
      <point x="288.5" y="1095.625" type="line"/>
      <point x="120.375" y="1062.625" type="line"/>
      <point x="108.125" y="1004.125" type="line"/>
      <point x="270.0" y="1004.125" type="line"/>
      <point x="125.0" y="316.25" type="line" smooth="yes"/>
      <point x="114.25" y="269.125"/>
      <point x="108.875" y="224.375"/>
      <point x="108.875" y="187.125" type="curve" smooth="yes"/>
      <point x="108.875" y="46.0"/>
      <point x="189.125" y="-20.0"/>
    </contour>
  </outline>
</glyph>
<glyph name="u" format="2">
  <advance width="1143"/>
  <unicode hex="0075"/>
  <anchor x="456" y="0" name="bottom"/>
  <anchor x="835" y="10" name="ogonek"/>
  <anchor x="688" y="1087" name="top"/>
  <anchor x="1239" y="1087" name="topright"/>
  <outline>
    <contour>
      <point x="375" y="-16" type="curve" smooth="yes"/>
      <point x="532" y="-16"/>
      <point x="667" y="58"/>
      <point x="778" y="205" type="curve"/>
      <point x="784" y="205" type="line"/>
      <point x="756" y="0" type="line"/>
      <point x="836" y="0" type="line"/>
      <point x="1067" y="1087" type="line"/>
      <point x="969" y="1087" type="line"/>
      <point x="864" y="602" type="line" smooth="yes"/>
      <point x="842" y="497"/>
      <point x="809" y="404"/>
      <point x="765" y="323" type="curve" smooth="yes"/>
      <point x="676" y="161"/>
      <point x="540" y="70"/>
      <point x="393" y="70" type="curve" smooth="yes"/>
      <point x="272" y="70"/>
      <point x="207" y="132"/>
      <point x="207" y="231" type="curve" smooth="yes"/>
      <point x="207" y="266"/>
      <point x="214" y="318"/>
      <point x="229" y="389" type="curve" smooth="yes"/>
      <point x="381" y="1087" type="line"/>
      <point x="281" y="1087" type="line"/>
      <point x="131" y="397" type="line" smooth="yes"/>
      <point x="116" y="324"/>
      <point x="109" y="267"/>
      <point x="109" y="227" type="curve" smooth="yes"/>
      <point x="109" y="68"/>
      <point x="200" y="-16"/>
    </contour>
  </outline>
</glyph>
<glyph name="v" format="2">
  <advance width="883.5"/>
  <unicode hex="0076"/>
  <anchor x="322.625" y="0.0" name="bottom"/>
  <anchor x="543.25" y="1087.375" name="top"/>
  <anchor x="957.625" y="1087.375" name="topright"/>
  <outline>
    <contour>
      <point x="253.125" y="0.0" type="line"/>
      <point x="368.5" y="0.0" type="line"/>
      <point x="983.125" y="1087.375" type="line"/>
      <point x="873.875" y="1087.375" type="line"/>
      <point x="464.625" y="362.125" type="line" smooth="yes"/>
      <point x="416.375" y="275.375"/>
      <point x="369.0" y="176.125"/>
      <point x="330.25" y="97.625" type="curve"/>
      <point x="325.125" y="97.625" type="line"/>
      <point x="321.375" y="161.25"/>
      <point x="313.875" y="264.0"/>
      <point x="300.0" y="359.5" type="curve" smooth="yes"/>
      <point x="202.125" y="1087.375" type="line"/>
      <point x="100.5" y="1087.375" type="line"/>
    </contour>
  </outline>
</glyph>
<glyph name="w" format="2">
  <advance width="1388.5"/>
  <unicode hex="0077"/>
  <anchor x="575.125" y="0.0" name="bottom"/>
  <anchor x="803.0" y="1087.375" name="top"/>
  <anchor x="1462.875" y="1087.375" name="topright"/>
  <outline>
    <contour>
      <point x="172.0" y="0.0" type="line"/>
      <point x="281.25" y="0.0" type="line"/>
      <point x="647.625" y="728.375" type="line" smooth="yes"/>
      <point x="692.625" y="819.0"/>
      <point x="719.75" y="880.5"/>
      <point x="755.5" y="964.625" type="curve"/>
      <point x="759.75" y="964.625" type="line"/>
      <point x="762.25" y="870.0"/>
      <point x="763.25" y="804.5"/>
      <point x="771.125" y="720.875" type="curve" smooth="yes"/>
      <point x="834.0" y="0.0" type="line"/>
      <point x="944.75" y="0.0" type="line"/>
      <point x="1456.5" y="1087.375" type="line"/>
      <point x="1349.875" y="1087.375" type="line"/>
      <point x="1033.625" y="409.0" type="line" smooth="yes"/>
      <point x="976.125" y="281.875"/>
      <point x="937.875" y="192.0"/>
      <point x="910.375" y="113.0" type="curve"/>
      <point x="904.875" y="113.0" type="line"/>
      <point x="905.125" y="193.25"/>
      <point x="899.875" y="288.125"/>
      <point x="892.875" y="390.625" type="curve" smooth="yes"/>
      <point x="829.75" y="1087.375" type="line"/>
      <point x="731.0" y="1087.375" type="line"/>
      <point x="375.75" y="378.25" type="line" smooth="yes"/>
      <point x="319.125" y="268.5"/>
      <point x="283.75" y="185.25"/>
      <point x="254.0" y="113.0" type="curve"/>
      <point x="248.5" y="113.0" type="line"/>
      <point x="250.75" y="183.5"/>
      <point x="251.75" y="270.125"/>
      <point x="246.5" y="391.375" type="curve" smooth="yes"/>
      <point x="212.375" y="1087.375" type="line"/>
      <point x="113.25" y="1087.375" type="line"/>
    </contour>
  </outline>
</glyph>
<glyph name="x" format="2">
  <advance width="953.375"/>
  <unicode hex="0078"/>
  <anchor x="362.125" y="0.0" name="bottom"/>
  <anchor x="582.0" y="1087.375" name="top"/>
  <anchor x="1028.125" y="1087.375" name="topright"/>
  <outline>
    <contour>
      <point x="-71.0" y="0.0" type="line"/>
      <point x="48.62499999999999" y="0.0" type="line"/>
      <point x="458.5" y="483.5" type="line"/>
      <point x="681.375" y="0.0" type="line"/>
      <point x="787.5" y="0.0" type="line"/>
      <point x="526.125" y="555.75" type="line"/>
      <point x="992.125" y="1087.375" type="line"/>
      <point x="872.875" y="1087.375" type="line"/>
      <point x="480.875" y="632.0" type="line"/>
      <point x="277.75" y="1087.375" type="line"/>
      <point x="170.75" y="1087.375" type="line"/>
      <point x="413.375" y="561.25" type="line"/>
    </contour>
  </outline>
</glyph>
<glyph name="y" format="2">
  <advance width="883.5"/>
  <unicode hex="0079"/>
  <anchor x="221.125" y="-495.75" name="bottom"/>
  <anchor x="543.25" y="1087.375" name="top"/>
  <anchor x="957.625" y="1087.375" name="topright"/>
  <outline>
    <contour>
      <point x="-92.25" y="-495.75" type="curve" smooth="yes"/>
      <point x="60.37499999999999" y="-495.75"/>
      <point x="156.75" y="-396.5"/>
      <point x="257.375" y="-216.5" type="curve" smooth="yes"/>
      <point x="983.125" y="1087.375" type="line"/>
      <point x="873.875" y="1087.375" type="line"/>
      <point x="495.5" y="401.0" type="line" smooth="yes"/>
      <point x="434.625" y="292.875"/>
      <point x="373.75" y="164.25"/>
      <point x="344.875" y="102.625" type="curve"/>
      <point x="339.5" y="102.625" type="line"/>
      <point x="335.75" y="173.0"/>
      <point x="324.0" y="298.875"/>
      <point x="303.75" y="428.125" type="curve" smooth="yes"/>
      <point x="202.125" y="1087.375" type="line"/>
      <point x="100.5" y="1087.375" type="line"/>
      <point x="275.875" y="2.7500000000000018" type="line"/>
      <point x="167.375" y="-185.5" type="line" smooth="yes"/>
      <point x="81.0" y="-335.875"/>
      <point x="9.624999999999996" y="-407.75"/>
      <point x="-93.5" y="-407.75" type="curve" smooth="yes"/>
      <point x="-146.625" y="-407.75"/>
      <point x="-184.125" y="-399.75"/>
      <point x="-218.0" y="-387.25" type="curve"/>
      <point x="-218.0" y="-474.75" type="line"/>
      <point x="-184.625" y="-488.625"/>
      <point x="-148.875" y="-495.75"/>
    </contour>
  </outline>
</glyph>
<glyph name="z" format="2">
  <advance width="899.75"/>
  <unicode hex="007A"/>
  <anchor x="343.25" y="0.0" name="bottom"/>
  <anchor x="565.5" y="1087.375" name="top"/>
  <anchor x="974.5" y="1087.375" name="topright"/>
  <outline>
    <contour>
      <point x="-29.75" y="0.0" type="line"/>
      <point x="691.0" y="0.0" type="line"/>
      <point x="707.375" y="82.5" type="line"/>
      <point x="111.0" y="82.5" type="line"/>
      <point x="880.625" y="1013.875" type="line"/>
      <point x="895.25" y="1087.375" type="line"/>
      <point x="233.0" y="1087.375" type="line"/>
      <point x="215.0" y="1004.875" type="line"/>
      <point x="754.125" y="1004.875" type="line"/>
      <point x="-16.625" y="68.0" type="line"/>
    </contour>
  </outline>
</glyph>
<glyph name="braceleft" format="2">
  <advance width="709"/>
  <unicode hex="007B"/>
  <note>
braceleft
</note>
  <outline>
    <contour>
      <point x="424" y="-324" type="curve" smooth="yes"/>
      <point x="444" y="-324" type="line"/>
      <point x="444" y="-238" type="line"/>
      <point x="309" y="-238"/>
      <point x="268" y="-202"/>
      <point x="268" y="-121" type="curve" smooth="yes"/>
      <point x="268" y="-92"/>
      <point x="272" y="-59"/>
      <point x="281" y="-20" type="curve" smooth="yes"/>
      <point x="328" y="205" type="line" smooth="yes"/>
      <point x="344" y="280"/>
      <point x="352" y="334"/>
      <point x="352" y="369" type="curve" smooth="yes"/>
      <point x="352" y="464"/>
      <point x="300" y="535"/>
      <point x="209" y="559" type="curve"/>
      <point x="209" y="563" type="line"/>
      <point x="346" y="587"/>
      <point x="425" y="657"/>
      <point x="465" y="836" type="curve" smooth="yes"/>
      <point x="539" y="1174" type="line" smooth="yes"/>
      <point x="576" y="1331"/>
      <point x="627" y="1372"/>
      <point x="782" y="1376" type="curve"/>
      <point x="799" y="1462" type="line"/>
      <point x="770" y="1462" type="line" smooth="yes"/>
      <point x="670" y="1462"/>
      <point x="596" y="1440"/>
      <point x="543" y="1391" type="curve" smooth="yes"/>
      <point x="498" y="1350"/>
      <point x="467" y="1289"/>
      <point x="449" y="1206" type="curve" smooth="yes"/>
      <point x="360" y="813" type="line" smooth="yes"/>
      <point x="328" y="668"/>
      <point x="248" y="606"/>
      <point x="80" y="606" type="curve"/>
      <point x="59" y="528" type="line"/>
      <point x="192" y="528"/>
      <point x="258" y="475"/>
      <point x="258" y="369" type="curve" smooth="yes"/>
      <point x="258" y="344"/>
      <point x="252" y="302"/>
      <point x="240" y="242" type="curve" smooth="yes"/>
      <point x="184" y="-10" type="line" smooth="yes"/>
      <point x="173" y="-57"/>
      <point x="168" y="-95"/>
      <point x="168" y="-125" type="curve" smooth="yes"/>
      <point x="168" y="-258"/>
      <point x="253" y="-324"/>
    </contour>
  </outline>
</glyph>
<glyph name="bar" format="2">
  <advance width="1128"/>
  <unicode hex="007C"/>
  <note>
bar
</note>
  <outline>
    <contour>
      <point x="584" y="-510" type="line"/>
      <point x="684" y="-510" type="line"/>
      <point x="684" y="1561" type="line"/>
      <point x="584" y="1561" type="line"/>
    </contour>
  </outline>
</glyph>
<glyph name="braceright" format="2">
  <advance width="687.625"/>
  <unicode hex="007D"/>
  <outline>
    <contour>
      <point x="-92.25" y="-325.25" type="line"/>
      <point x="-79.125" y="-325.25" type="line" smooth="yes"/>
      <point x="128.5" y="-325.25"/>
      <point x="244.625" y="-250.25"/>
      <point x="289.0" y="-43.0" type="curve" smooth="yes"/>
      <point x="361.625" y="297.75" type="line" smooth="yes"/>
      <point x="395.625" y="458.625"/>
      <point x="474.125" y="519.0"/>
      <point x="636.5" y="519.0" type="curve"/>
      <point x="655.75" y="607.125" type="line"/>
      <point x="522.875" y="607.125"/>
      <point x="460.5" y="649.125"/>
      <point x="460.5" y="742.625" type="curve" smooth="yes"/>
      <point x="460.5" y="770.625"/>
      <point x="466.0" y="801.75"/>
      <point x="474.625" y="838.5" type="curve" smooth="yes"/>
      <point x="539.875" y="1136.125" type="line" smooth="yes"/>
      <point x="550.0" y="1178.375"/>
      <point x="555.875" y="1215.875"/>
      <point x="555.875" y="1249.5" type="curve" smooth="yes"/>
      <point x="555.875" y="1399.25"/>
      <point x="467.75" y="1460.75"/>
      <point x="276.125" y="1460.75" type="curve" smooth="yes"/>
      <point x="261.25" y="1460.75" type="line"/>
      <point x="250.0" y="1373.0" type="line"/>
      <point x="393.75" y="1373.0"/>
      <point x="458.625" y="1345.75"/>
      <point x="458.625" y="1237.625" type="curve" smooth="yes"/>
      <point x="458.625" y="1212.875"/>
      <point x="453.875" y="1181.125"/>
      <point x="445.5" y="1146.125" type="curve" smooth="yes"/>
      <point x="381.625" y="853.25" type="line" smooth="yes"/>
      <point x="372.875" y="814.0"/>
      <point x="367.375" y="776.875"/>
      <point x="367.375" y="744.875" type="curve" smooth="yes"/>
      <point x="367.375" y="655.125"/>
      <point x="406.125" y="596.0"/>
      <point x="492.125" y="569.5" type="curve"/>
      <point x="492.125" y="564.75" type="line"/>
      <point x="360.625" y="541.25"/>
      <point x="296.875" y="446.375"/>
      <point x="267.75" y="308.0" type="curve" smooth="yes"/>
      <point x="194.875" y="-29.125" type="line" smooth="yes"/>
      <point x="160.875" y="-183.75"/>
      <point x="70.625" y="-235.25"/>
      <point x="-86.0" y="-236.5" type="curve"/>
    </contour>
  </outline>
</glyph>
<glyph name="asciitilde" format="2">
  <advance width="1169"/>
  <unicode hex="007E"/>
  <outline>
    <contour>
      <point x="608" y="682" type="curve" smooth="yes"/>
      <point x="706" y="637"/>
      <point x="770" y="616"/>
      <point x="861" y="616" type="curve" smooth="yes"/>
      <point x="959" y="616"/>
      <point x="1042" y="659"/>
      <point x="1099" y="720" type="curve"/>
      <point x="1099" y="817" type="line"/>
      <point x="1023" y="737"/>
      <point x="941" y="702"/>
      <point x="865" y="702" type="curve" smooth="yes"/>
      <point x="791" y="702"/>
      <point x="734" y="724"/>
      <point x="650" y="762" type="curve" smooth="yes"/>
      <point x="555" y="807"/>
      <point x="494" y="829"/>
      <point x="393" y="829" type="curve" smooth="yes"/>
      <point x="300" y="829"/>
      <point x="214" y="791"/>
      <point x="151" y="727" type="curve"/>
      <point x="151" y="627" type="line"/>
      <point x="224" y="704"/>
      <point x="310" y="743"/>
      <point x="388" y="743" type="curve" smooth="yes"/>
      <point x="471" y="743"/>
      <point x="526" y="722"/>
    </contour>
  </outline>
</glyph>
<glyph name="exclamdown" format="2">
  <advance width="502"/>
  <unicode hex="00A1"/>
  <note>
exclamdown
</note>
  <outline>
    <contour>
      <point x="4" y="-375" type="line"/>
      <point x="123" y="-375" type="line"/>
      <point x="326" y="711" type="line"/>
      <point x="264" y="711" type="line"/>
    </contour>
    <contour>
      <point x="338" y="909" type="curve" smooth="yes"/>
      <point x="397" y="909"/>
      <point x="432" y="955"/>
      <point x="432" y="1030" type="curve" smooth="yes"/>
      <point x="432" y="1079"/>
      <point x="410" y="1104"/>
      <point x="365" y="1104" type="curve" smooth="yes"/>
      <point x="308" y="1104"/>
      <point x="272" y="1054"/>
      <point x="272" y="981" type="curve" smooth="yes"/>
      <point x="272" y="933"/>
      <point x="294" y="909"/>
    </contour>
  </outline>
</glyph>
<glyph name="cent" format="2">
  <advance width="1128"/>
  <unicode hex="00A2"/>
  <note>
cent
</note>
  <outline>
    <contour>
      <point x="485" y="-20" type="line"/>
      <point x="578" y="-20" type="line"/>
      <point x="618" y="182" type="line"/>
      <point x="727" y="182"/>
      <point x="820" y="201"/>
      <point x="899" y="240" type="curve"/>
      <point x="899" y="332" type="line"/>
      <point x="808" y="292"/>
      <point x="720" y="272"/>
      <point x="635" y="272" type="curve" smooth="yes"/>
      <point x="456" y="272"/>
      <point x="352" y="383"/>
      <point x="352" y="602" type="curve" smooth="yes"/>
      <point x="352" y="720"/>
      <point x="372" y="827"/>
      <point x="412" y="924" type="curve" smooth="yes"/>
      <point x="447" y="1011"/>
      <point x="496" y="1079"/>
      <point x="554" y="1129" type="curve" smooth="yes"/>
      <point x="625" y="1189"/>
      <point x="712" y="1221"/>
      <point x="807" y="1221" type="curve" smooth="yes"/>
      <point x="880" y="1221"/>
      <point x="953" y="1205"/>
      <point x="1024" y="1174" type="curve"/>
      <point x="1053" y="1264" type="line"/>
      <point x="986" y="1290"/>
      <point x="913" y="1304"/>
      <point x="836" y="1307" type="curve"/>
      <point x="874" y="1483" type="line"/>
      <point x="784" y="1483" type="line"/>
      <point x="748" y="1305" type="line"/>
      <point x="653" y="1295"/>
      <point x="568" y="1258"/>
      <point x="492" y="1194" type="curve" smooth="yes"/>
      <point x="416" y="1131"/>
      <point x="356" y="1044"/>
      <point x="315" y="944" type="curve" smooth="yes"/>
      <point x="273" y="841"/>
      <point x="250" y="724"/>
      <point x="250" y="600" type="curve" smooth="yes"/>
      <point x="250" y="380"/>
      <point x="354" y="228"/>
      <point x="530" y="195" type="curve"/>
    </contour>
  </outline>
</glyph>
<glyph name="sterling" format="2">
  <advance width="1126.75"/>
  <unicode hex="00A3"/>
  <outline>
    <contour>
      <point x="-16.125" y="0.0" type="line"/>
      <point x="920.875" y="0.0" type="line"/>
      <point x="940.875" y="93.375" type="line"/>
      <point x="181.875" y="93.375" type="line"/>
      <point x="278.25" y="138.875"/>
      <point x="348.625" y="217.75"/>
      <point x="387.0" y="399.375" type="curve" smooth="yes"/>
      <point x="445.125" y="671.375" type="line"/>
      <point x="825.125" y="671.375" type="line"/>
      <point x="842.25" y="753.875" type="line"/>
      <point x="463.5" y="753.875" type="line"/>
      <point x="530.25" y="1068.125" type="line" smooth="yes"/>
      <point x="579.25" y="1299.625"/>
      <point x="688.375" y="1392.875"/>
      <point x="857.5" y="1392.875" type="curve" smooth="yes"/>
      <point x="964.625" y="1392.875"/>
      <point x="1051.5" y="1354.875"/>
      <point x="1115.25" y="1323.625" type="curve"/>
      <point x="1157.125" y="1407.5" type="line"/>
      <point x="1086.375" y="1445.0"/>
      <point x="983.25" y="1481.0"/>
      <point x="859.0" y="1481.0" type="curve" smooth="yes"/>
      <point x="635.0" y="1481.0"/>
      <point x="491.375" y="1359.125"/>
      <point x="432.5" y="1084.625" type="curve" smooth="yes"/>
      <point x="363.625" y="753.875" type="line"/>
      <point x="157.625" y="753.875" type="line"/>
      <point x="140.875" y="671.375" type="line"/>
      <point x="345.25" y="671.375" type="line"/>
      <point x="288.375" y="403.625" type="line" smooth="yes"/>
      <point x="246.875" y="210.5"/>
      <point x="146.875" y="115.5"/>
      <point x="-0.25000000000000044" y="86.375" type="curve"/>
    </contour>
  </outline>
</glyph>
<glyph name="currency" format="2">
  <advance width="1152.375"/>
  <unicode hex="00A4"/>
  <outline>
    <contour>
      <point x="1012.125" y="268.125" type="line"/>
      <point x="1068.125" y="324.75" type="line"/>
      <point x="921.125" y="472.375" type="line"/>
      <point x="979.625" y="542.625"/>
      <point x="1011.625" y="632.25"/>
      <point x="1011.625" y="724.25" type="curve" smooth="yes"/>
      <point x="1011.625" y="815.5"/>
      <point x="978.875" y="905.125"/>
      <point x="921.125" y="976.125" type="curve"/>
      <point x="1067.625" y="1123.25" type="line"/>
      <point x="1012.125" y="1179.875" type="line"/>
      <point x="865.0" y="1032.75" type="line"/>
      <point x="793.375" y="1091.875"/>
      <point x="703.875" y="1123.875"/>
      <point x="612.0" y="1123.875" type="curve" smooth="yes"/>
      <point x="520.75" y="1123.875"/>
      <point x="432.125" y="1091.875"/>
      <point x="360.125" y="1032.75" type="curve"/>
      <point x="212.5" y="1181.125" type="line"/>
      <point x="157.75" y="1123.75" type="line"/>
      <point x="304.25" y="975.375" type="line"/>
      <point x="246.25" y="904.0"/>
      <point x="215.0" y="814.75"/>
      <point x="215.0" y="724.25" type="curve" smooth="yes"/>
      <point x="215.0" y="632.25"/>
      <point x="246.25" y="543.375"/>
      <point x="304.25" y="473.125" type="curve"/>
      <point x="158.5" y="325.5" type="line"/>
      <point x="212.5" y="268.875" type="line"/>
      <point x="360.125" y="416.5" type="line"/>
      <point x="431.0" y="357.375"/>
      <point x="520.75" y="325.375"/>
      <point x="612.0" y="325.375" type="curve" smooth="yes"/>
      <point x="703.875" y="325.375"/>
      <point x="794.125" y="356.625"/>
      <point x="865.0" y="415.75" type="curve"/>
    </contour>
    <contour>
      <point x="610.75" y="404.875" type="curve" smooth="yes"/>
      <point x="435.875" y="404.875"/>
      <point x="294.5" y="546.75"/>
      <point x="294.5" y="724.25" type="curve" smooth="yes"/>
      <point x="294.5" y="901.25"/>
      <point x="437.125" y="1045.125"/>
      <point x="613.875" y="1045.125" type="curve" smooth="yes"/>
      <point x="790.25" y="1045.125"/>
      <point x="933.625" y="902.5"/>
      <point x="933.625" y="725.5" type="curve" smooth="yes"/>
      <point x="933.625" y="548.0"/>
      <point x="789.0" y="404.875"/>
    </contour>
  </outline>
</glyph>
<glyph name="yen" format="2">
  <advance width="1126.75"/>
  <unicode hex="00A5"/>
  <outline>
    <contour>
      <point x="392.25" y="0.0" type="line"/>
      <point x="488.875" y="0.0" type="line"/>
      <point x="554.375" y="305.75" type="line"/>
      <point x="874.375" y="305.75" type="line"/>
      <point x="891.5" y="389.0" type="line"/>
      <point x="570.375" y="389.0" type="line"/>
      <point x="612.125" y="590.125" type="line"/>
      <point x="934.5" y="590.125" type="line"/>
      <point x="951.625" y="674.0" type="line"/>
      <point x="665.5" y="674.0" type="line"/>
      <point x="1255.125" y="1462.0" type="line"/>
      <point x="1141.875" y="1462.0" type="line"/>
      <point x="581.5" y="700.875" type="line"/>
      <point x="342.625" y="1462.0" type="line"/>
      <point x="242.25" y="1462.0" type="line"/>
      <point x="498.625" y="674.0" type="line"/>
      <point x="213.75" y="674.0" type="line"/>
      <point x="195.875" y="590.125" type="line"/>
      <point x="516.75" y="590.125" type="line"/>
      <point x="475.0" y="389.0" type="line"/>
      <point x="154.0" y="389.0" type="line"/>
      <point x="135.5" y="305.75" type="line"/>
      <point x="456.375" y="305.75" type="line"/>
    </contour>
  </outline>
</glyph>
<glyph name="brokenbar" format="2">
  <advance width="1128"/>
  <unicode hex="00A6"/>
  <note>
brokenbar
</note>
  <outline>
    <contour>
      <point x="578" y="805" type="line"/>
      <point x="678" y="805" type="line"/>
      <point x="678" y="1561" type="line"/>
      <point x="578" y="1561" type="line"/>
    </contour>
    <contour>
      <point x="578" y="-510" type="line"/>
      <point x="678" y="-510" type="line"/>
      <point x="678" y="246" type="line"/>
      <point x="578" y="246" type="line"/>
    </contour>
  </outline>
</glyph>
<glyph name="section" format="2">
  <advance width="995"/>
  <unicode hex="00A7"/>
  <note>
section
</note>
  <outline>
    <contour>
      <point x="377" y="-2" type="curve" smooth="yes"/>
      <point x="464" y="-2"/>
      <point x="538" y="11"/>
      <point x="599" y="36" type="curve" smooth="yes"/>
      <point x="721" y="87"/>
      <point x="786" y="180"/>
      <point x="786" y="295" type="curve" smooth="yes"/>
      <point x="786" y="384"/>
      <point x="745" y="449"/>
      <point x="664" y="492" type="curve"/>
      <point x="830" y="572"/>
      <point x="913" y="678"/>
      <point x="913" y="809" type="curve" smooth="yes"/>
      <point x="913" y="955"/>
      <point x="822" y="1019"/>
      <point x="659" y="1094" type="curve" smooth="yes"/>
      <point x="635" y="1105"/>
      <point x="613" y="1115"/>
      <point x="593" y="1125" type="curve" smooth="yes"/>
      <point x="498" y="1174"/>
      <point x="430" y="1220"/>
      <point x="430" y="1305" type="curve" smooth="yes"/>
      <point x="430" y="1408"/>
      <point x="546" y="1475"/>
      <point x="711" y="1475" type="curve" smooth="yes"/>
      <point x="795" y="1475"/>
      <point x="883" y="1457"/>
      <point x="975" y="1421" type="curve"/>
      <point x="1006" y="1501" type="line"/>
      <point x="922" y="1540"/>
      <point x="826" y="1559"/>
      <point x="717" y="1559" type="curve" smooth="yes"/>
      <point x="517" y="1559"/>
      <point x="336" y="1471"/>
      <point x="336" y="1296" type="curve" smooth="yes"/>
      <point x="336" y="1208"/>
      <point x="394" y="1131"/>
      <point x="479" y="1090" type="curve"/>
      <point x="307" y="1025"/>
      <point x="211" y="913"/>
      <point x="211" y="778" type="curve" smooth="yes"/>
      <point x="211" y="653"/>
      <point x="272" y="576"/>
      <point x="479" y="489" type="curve" smooth="yes"/>
      <point x="501" y="480"/>
      <point x="521" y="471"/>
      <point x="539" y="462" type="curve" smooth="yes"/>
      <point x="655" y="406"/>
      <point x="688" y="359"/>
      <point x="688" y="287" type="curve" smooth="yes"/>
      <point x="688" y="156"/>
      <point x="580" y="84"/>
      <point x="381" y="84" type="curve" smooth="yes"/>
      <point x="282" y="84"/>
      <point x="165" y="114"/>
      <point x="102" y="150" type="curve"/>
      <point x="102" y="51" type="line"/>
      <point x="181" y="16"/>
      <point x="272" y="-2"/>
    </contour>
    <contour>
      <point x="596" y="535" type="curve"/>
      <point x="509" y="567"/>
      <point x="446" y="594"/>
      <point x="409" y="617" type="curve" smooth="yes"/>
      <point x="333" y="661"/>
      <point x="303" y="710"/>
      <point x="303" y="786" type="curve" smooth="yes"/>
      <point x="303" y="902"/>
      <point x="400" y="998"/>
      <point x="559" y="1038" type="curve"/>
      <point x="750" y="967"/>
      <point x="817" y="901"/>
      <point x="817" y="805" type="curve" smooth="yes"/>
      <point x="817" y="682"/>
      <point x="733" y="600"/>
    </contour>
  </outline>
</glyph>
<glyph name="dieresis" format="2">
  <advance width="1161.875"/>
  <unicode hex="00A8"/>
  <outline>
    <contour>
      <point x="926.875" y="1312.625" type="curve" smooth="yes"/>
      <point x="974.125" y="1312.625"/>
      <point x="1004.375" y="1358.875"/>
      <point x="1004.375" y="1410.5" type="curve" smooth="yes"/>
      <point x="1004.375" y="1444.5"/>
      <point x="986.75" y="1468.125"/>
      <point x="948.625" y="1468.125" type="curve" smooth="yes"/>
      <point x="893.625" y="1468.125"/>
      <point x="870.25" y="1416.875"/>
      <point x="870.25" y="1371.75" type="curve" smooth="yes"/>
      <point x="870.25" y="1335.5"/>
      <point x="891.625" y="1312.625"/>
    </contour>
    <contour>
      <point x="564.625" y="1312.625" type="curve" smooth="yes"/>
      <point x="611.875" y="1312.625"/>
      <point x="641.0" y="1358.875"/>
      <point x="641.0" y="1410.5" type="curve" smooth="yes"/>
      <point x="641.0" y="1444.5"/>
      <point x="624.125" y="1468.125"/>
      <point x="584.625" y="1468.125" type="curve" smooth="yes"/>
      <point x="530.25" y="1468.125"/>
      <point x="507.25" y="1416.875"/>
      <point x="507.25" y="1371.75" type="curve" smooth="yes"/>
      <point x="507.25" y="1335.5"/>
      <point x="528.25" y="1312.625"/>
    </contour>
  </outline>
</glyph>
<glyph name="copyright" format="2">
  <advance width="1704.0"/>
  <unicode hex="00A9"/>
  <outline>
    <contour>
      <point x="852.0" y="-17.5" type="curve" smooth="yes"/>
      <point x="1273.0" y="-17.5"/>
      <point x="1602.75" y="310.0"/>
      <point x="1602.75" y="731.0" type="curve" smooth="yes"/>
      <point x="1602.75" y="1136.375"/>
      <point x="1280.5" y="1480.5"/>
      <point x="852.0" y="1480.5" type="curve" smooth="yes"/>
      <point x="433.5" y="1480.5"/>
      <point x="101.25" y="1160.75"/>
      <point x="101.25" y="731.0" type="curve" smooth="yes"/>
      <point x="101.25" y="311.875"/>
      <point x="414.75" y="-17.5"/>
    </contour>
    <contour>
      <point x="888.0" y="285.125" type="curve" smooth="yes"/>
      <point x="981.5" y="285.125"/>
      <point x="1050.625" y="301.75"/>
      <point x="1118.5" y="330.75" type="curve"/>
      <point x="1118.5" y="410.5" type="line"/>
      <point x="1041.75" y="381.0"/>
      <point x="974.625" y="367.25"/>
      <point x="891.0" y="367.25" type="curve" smooth="yes"/>
      <point x="692.875" y="367.25"/>
      <point x="568.375" y="491.375"/>
      <point x="568.375" y="729.75" type="curve" smooth="yes"/>
      <point x="568.375" y="955.125"/>
      <point x="699.125" y="1094.375"/>
      <point x="896.75" y="1094.375" type="curve" smooth="yes"/>
      <point x="981.875" y="1094.375"/>
      <point x="1050.375" y="1076.0"/>
      <point x="1115.5" y="1044.75" type="curve"/>
      <point x="1151.75" y="1121.0" type="line"/>
      <point x="1079.5" y="1156.25"/>
      <point x="1001.875" y="1177.375"/>
      <point x="896.0" y="1177.375" type="curve" smooth="yes"/>
      <point x="638.75" y="1177.375"/>
      <point x="474.0" y="997.0"/>
      <point x="474.0" y="729.75" type="curve" smooth="yes"/>
      <point x="474.0" y="443.125"/>
      <point x="628.875" y="285.125"/>
    </contour>
    <contour>
      <point x="852.0" y="54.875" type="curve" smooth="yes"/>
      <point x="452.875" y="54.875"/>
      <point x="178.125" y="361.375"/>
      <point x="178.125" y="731.0" type="curve" smooth="yes"/>
      <point x="178.125" y="1113.5"/>
      <point x="468.5" y="1407.125"/>
      <point x="852.0" y="1407.125" type="curve" smooth="yes"/>
      <point x="1240.5" y="1407.125"/>
      <point x="1525.125" y="1098.125"/>
      <point x="1525.125" y="731.0" type="curve" smooth="yes"/>
      <point x="1525.125" y="358.5"/>
      <point x="1232.625" y="54.875"/>
    </contour>
  </outline>
</glyph>
<glyph name="ordfeminine" format="2">
  <advance width="643"/>
  <unicode hex="00AA"/>
  <note>
ordfeminine
</note>
  <outline>
    <contour>
      <point x="344" y="811" type="curve" smooth="yes"/>
      <point x="429" y="811"/>
      <point x="503" y="857"/>
      <point x="567" y="948" type="curve"/>
      <point x="571" y="948" type="line"/>
      <point x="549" y="823" type="line"/>
      <point x="621" y="823" type="line"/>
      <point x="758" y="1473" type="line"/>
      <point x="692" y="1473" type="line"/>
      <point x="657" y="1370" type="line"/>
      <point x="651" y="1370" type="line"/>
      <point x="619" y="1446"/>
      <point x="560" y="1485"/>
      <point x="487" y="1485" type="curve" smooth="yes"/>
      <point x="431" y="1485"/>
      <point x="379" y="1466"/>
      <point x="334" y="1431" type="curve" smooth="yes"/>
      <point x="234" y="1355"/>
      <point x="170" y="1206"/>
      <point x="170" y="1032" type="curve" smooth="yes"/>
      <point x="170" y="965"/>
      <point x="184" y="913"/>
      <point x="211" y="876" type="curve" smooth="yes"/>
      <point x="241" y="833"/>
      <point x="287" y="811"/>
    </contour>
    <contour>
      <point x="369" y="885" type="curve" smooth="yes"/>
      <point x="295" y="885"/>
      <point x="258" y="933"/>
      <point x="258" y="1028" type="curve" smooth="yes"/>
      <point x="258" y="1061"/>
      <point x="260" y="1093"/>
      <point x="265" y="1123" type="curve" smooth="yes"/>
      <point x="291" y="1289"/>
      <point x="381" y="1411"/>
      <point x="487" y="1411" type="curve" smooth="yes"/>
      <point x="563" y="1411"/>
      <point x="616" y="1345"/>
      <point x="616" y="1268" type="curve" smooth="yes"/>
      <point x="616" y="1220"/>
      <point x="611" y="1179"/>
      <point x="600" y="1145" type="curve"/>
      <point x="560" y="1000"/>
      <point x="457" y="885"/>
    </contour>
  </outline>
</glyph>
<glyph name="guillemetleft" format="2">
  <advance width="860"/>
  <unicode hex="00AB"/>
  <note>
guillemotleft
</note>
  <outline>
    <contour>
      <point x="676" y="123" type="line"/>
      <point x="739" y="162" type="line"/>
      <point x="530" y="547" type="line"/>
      <point x="844" y="883" type="line"/>
      <point x="786" y="932" type="line"/>
      <point x="424" y="567" type="line"/>
      <point x="422" y="541" type="line"/>
    </contour>
    <contour>
      <point x="315" y="123" type="line"/>
      <point x="379" y="162" type="line"/>
      <point x="166" y="547" type="line"/>
      <point x="483" y="883" type="line"/>
      <point x="426" y="932" type="line"/>
      <point x="63" y="567" type="line"/>
      <point x="61" y="541" type="line"/>
    </contour>
  </outline>
</glyph>
<glyph name="guillemotleft" format="2">
  <advance width="841.375"/>
  <unicode hex="00AB"/>
  <outline>
    <contour>
      <point x="278.125" y="152.875" type="line"/>
      <point x="348.125" y="185.875" type="line"/>
      <point x="167.0" y="557.75" type="line"/>
      <point x="497.0" y="913.875" type="line"/>
      <point x="444.625" y="966.25" type="line"/>
      <point x="61.625" y="583.25" type="line"/>
      <point x="57.875" y="556.25" type="line"/>
    </contour>
    <contour>
      <point x="630.625" y="152.875" type="line"/>
      <point x="700.25" y="185.875" type="line"/>
      <point x="524.0" y="544.625" type="line"/>
      <point x="848.5" y="913.875" type="line"/>
      <point x="793.75" y="962.125" type="line"/>
      <point x="419.0" y="568.625" type="line"/>
      <point x="415.25" y="540.875" type="line"/>
    </contour>
  </outline>
</glyph>
<glyph name="logicalnot" format="2">
  <advance width="1128"/>
  <unicode hex="00AC"/>
  <note>
logicalnot
</note>
  <outline>
    <contour>
      <point x="928" y="272" type="line"/>
      <point x="1028" y="272" type="line"/>
      <point x="1028" y="772" type="line"/>
      <point x="125" y="772" type="line"/>
      <point x="125" y="672" type="line"/>
      <point x="928" y="672" type="line"/>
    </contour>
  </outline>
</glyph>
<glyph name="overscore" format="2">
  <advance width="916.25"/>
  <unicode hex="00AF"/>
  <outline>
    <contour>
      <point x="207.0" y="1556.0" type="line"/>
      <point x="1014.0" y="1556.0" type="line"/>
      <point x="1034.625" y="1640.25" type="line"/>
      <point x="226.875" y="1640.25" type="line"/>
    </contour>
  </outline>
</glyph>
<glyph name="degree" format="2">
  <advance width="877"/>
  <unicode hex="00B0"/>
  <note>
degree
</note>
  <outline>
    <contour>
      <point x="535" y="897" type="curve" smooth="yes"/>
      <point x="696" y="897"/>
      <point x="827" y="1027"/>
      <point x="827" y="1190" type="curve" smooth="yes"/>
      <point x="827" y="1350"/>
      <point x="698" y="1483"/>
      <point x="535" y="1483" type="curve" smooth="yes"/>
      <point x="371" y="1483"/>
      <point x="242" y="1350"/>
      <point x="242" y="1190" type="curve" smooth="yes"/>
      <point x="242" y="1027"/>
      <point x="372" y="897"/>
    </contour>
    <contour>
      <point x="535" y="973" type="curve" smooth="yes"/>
      <point x="414" y="973"/>
      <point x="315" y="1071"/>
      <point x="315" y="1190" type="curve" smooth="yes"/>
      <point x="315" y="1310"/>
      <point x="415" y="1411"/>
      <point x="535" y="1411" type="curve" smooth="yes"/>
      <point x="656" y="1411"/>
      <point x="754" y="1310"/>
      <point x="754" y="1190" type="curve" smooth="yes"/>
      <point x="754" y="1071"/>
      <point x="658" y="973"/>
    </contour>
  </outline>
</glyph>
<glyph name="plusminus" format="2">
  <advance width="1128"/>
  <unicode hex="00B1"/>
  <note>
plusminus
</note>
  <outline>
    <contour>
      <point x="528" y="229" type="line"/>
      <point x="629" y="229" type="line"/>
      <point x="629" y="629" type="line"/>
      <point x="1030" y="629" type="line"/>
      <point x="1030" y="727" type="line"/>
      <point x="629" y="727" type="line"/>
      <point x="629" y="1133" type="line"/>
      <point x="528" y="1133" type="line"/>
      <point x="528" y="727" type="line"/>
      <point x="127" y="727" type="line"/>
      <point x="127" y="629" type="line"/>
      <point x="528" y="629" type="line"/>
    </contour>
    <contour>
      <point x="127" y="0" type="line"/>
      <point x="1030" y="0" type="line"/>
      <point x="1030" y="100" type="line"/>
      <point x="127" y="100" type="line"/>
    </contour>
  </outline>
</glyph>
<glyph name="twosuperior" format="2">
  <advance width="670.5"/>
  <unicode hex="00B2"/>
  <outline>
    <contour>
      <point x="118.125" y="852.0" type="line"/>
      <point x="675.0" y="852.0" type="line"/>
      <point x="691.625" y="930.75" type="line"/>
      <point x="253.125" y="930.75" type="line"/>
      <point x="486.125" y="1125.625" type="line" smooth="yes"/>
      <point x="680.125" y="1286.625"/>
      <point x="788.125" y="1395.5"/>
      <point x="788.125" y="1551.125" type="curve" smooth="yes"/>
      <point x="788.125" y="1658.125"/>
      <point x="716.25" y="1749.5"/>
      <point x="568.125" y="1749.5" type="curve" smooth="yes"/>
      <point x="469.75" y="1749.5"/>
      <point x="378.5" y="1715.75"/>
      <point x="295.75" y="1652.5" type="curve"/>
      <point x="334.375" y="1590.5" type="line"/>
      <point x="411.625" y="1646.375"/>
      <point x="480.75" y="1673.0"/>
      <point x="557.5" y="1673.0" type="curve" smooth="yes"/>
      <point x="647.25" y="1673.0"/>
      <point x="700.125" y="1619.875"/>
      <point x="700.125" y="1541.0" type="curve" smooth="yes"/>
      <point x="700.125" y="1414.0"/>
      <point x="603.0" y="1321.0"/>
      <point x="414.625" y="1160.625" type="curve" smooth="yes"/>
      <point x="133.125" y="921.25" type="line"/>
    </contour>
  </outline>
</glyph>
<glyph name="threesuperior" format="2">
  <advance width="670.5"/>
  <unicode hex="00B3"/>
  <outline>
    <contour>
      <point x="370.375" y="841.75" type="curve" smooth="yes"/>
      <point x="582.75" y="841.75"/>
      <point x="718.75" y="940.5"/>
      <point x="718.75" y="1124.75" type="curve" smooth="yes"/>
      <point x="718.75" y="1216.125"/>
      <point x="665.375" y="1285.0"/>
      <point x="582.625" y="1306.75" type="curve"/>
      <point x="582.625" y="1312.25" type="line"/>
      <point x="696.125" y="1340.375"/>
      <point x="785.375" y="1414.0"/>
      <point x="785.375" y="1549.5" type="curve" smooth="yes"/>
      <point x="785.375" y="1666.0"/>
      <point x="703.375" y="1745.25"/>
      <point x="561.25" y="1745.25" type="curve" smooth="yes"/>
      <point x="453.5" y="1745.25"/>
      <point x="359.75" y="1710.0"/>
      <point x="285.5" y="1659.75" type="curve"/>
      <point x="319.375" y="1594.875" type="line"/>
      <point x="392.375" y="1639.625"/>
      <point x="463.25" y="1668.0"/>
      <point x="550.25" y="1668.75" type="curve" smooth="yes"/>
      <point x="645.5" y="1669.5"/>
      <point x="696.875" y="1617.875"/>
      <point x="696.875" y="1534.875" type="curve" smooth="yes"/>
      <point x="696.875" y="1412.75"/>
      <point x="584.75" y="1347.125"/>
      <point x="444.125" y="1347.125" type="curve" smooth="yes"/>
      <point x="348.875" y="1347.125" type="line"/>
      <point x="333.25" y="1272.875" type="line"/>
      <point x="428.5" y="1272.875" type="line" smooth="yes"/>
      <point x="559.0" y="1272.875"/>
      <point x="629.875" y="1220.375"/>
      <point x="629.875" y="1126.25" type="curve" smooth="yes"/>
      <point x="629.875" y="988.625"/>
      <point x="529.875" y="917.125"/>
      <point x="372.25" y="917.125" type="curve" smooth="yes"/>
      <point x="287.25" y="917.125"/>
      <point x="209.875" y="943.125"/>
      <point x="137.875" y="979.75" type="curve"/>
      <point x="137.875" y="894.25" type="line"/>
      <point x="198.375" y="862.5"/>
      <point x="280.375" y="841.75"/>
    </contour>
  </outline>
</glyph>
<glyph name="acute" format="2">
  <advance width="480.875"/>
  <unicode hex="00B4"/>
  <anchor x="266.125" y="1091.125" name="_top"/>
  <outline>
    <contour>
      <point x="234.125" y="1241.0" type="line"/>
      <point x="303.0" y="1241.0" type="line"/>
      <point x="410.5" y="1325.0"/>
      <point x="547.0" y="1467.625"/>
      <point x="613.75" y="1551.75" type="curve"/>
      <point x="613.75" y="1569.0" type="line"/>
      <point x="498.125" y="1569.0" type="line"/>
      <point x="439.125" y="1479.5"/>
      <point x="318.875" y="1339.125"/>
      <point x="234.125" y="1258.625" type="curve"/>
    </contour>
  </outline>
</glyph>
<glyph name="micro" format="2">
  <advance width="1156"/>
  <unicode hex="00B5"/>
  <outline>
    <contour>
      <point x="-45" y="-481" type="line"/>
      <point x="54" y="-481" type="line"/>
      <point x="119" y="-177" type="line" smooth="yes"/>
      <point x="140" y="-71"/>
      <point x="162" y="47"/>
      <point x="174" y="123" type="curve"/>
      <point x="179" y="123" type="line"/>
      <point x="209" y="42"/>
      <point x="275" y="-20"/>
      <point x="399" y="-20" type="curve" smooth="yes"/>
      <point x="605" y="-20"/>
      <point x="739" y="124"/>
      <point x="816" y="254" type="curve"/>
      <point x="823" y="254" type="line"/>
      <point x="779" y="0" type="line"/>
      <point x="862" y="0" type="line"/>
      <point x="1093" y="1087" type="line"/>
      <point x="994" y="1087" type="line"/>
      <point x="882" y="571" type="line" smooth="yes"/>
      <point x="807" y="225"/>
      <point x="598" y="68"/>
      <point x="419" y="68" type="curve" smooth="yes"/>
      <point x="290" y="68"/>
      <point x="223" y="145"/>
      <point x="223" y="252" type="curve" smooth="yes"/>
      <point x="223" y="282"/>
      <point x="226" y="322"/>
      <point x="241" y="391" type="curve" smooth="yes"/>
      <point x="388" y="1087" type="line"/>
      <point x="287" y="1087" type="line"/>
    </contour>
  </outline>
</glyph>
<glyph name="paragraph" format="2">
  <advance width="1341.0"/>
  <unicode hex="00B6"/>
  <outline>
    <contour>
      <point x="746.875" y="-260.0" type="line"/>
      <point x="825.25" y="-260.0" type="line"/>
      <point x="825.25" y="1464.5" type="line"/>
      <point x="1074.5" y="1464.5" type="line"/>
      <point x="1074.5" y="-260.0" type="line"/>
      <point x="1152.25" y="-260.0" type="line"/>
      <point x="1152.25" y="1556.0" type="line"/>
      <point x="632.5" y="1556.0" type="line" smooth="yes"/>
      <point x="374.5" y="1556.0"/>
      <point x="233.125" y="1414.625"/>
      <point x="233.125" y="1103.875" type="curve" smooth="yes"/>
      <point x="233.125" y="811.125"/>
      <point x="364.375" y="646.0"/>
      <point x="601.5" y="646.0" type="curve" smooth="yes"/>
      <point x="660.125" y="646.0"/>
      <point x="703.375" y="652.0"/>
      <point x="746.875" y="664.0" type="curve"/>
    </contour>
  </outline>
</glyph>
<glyph name="periodcentered" format="2">
  <advance width="485"/>
  <unicode hex="00B7"/>
  <note>
periodcentered
</note>
  <anchor x="289" y="725" name="_center"/>
  <outline>
    <contour>
      <point x="275" y="625" type="curve" smooth="yes"/>
      <point x="331" y="625"/>
      <point x="367" y="676"/>
      <point x="367" y="747" type="curve" smooth="yes"/>
      <point x="367" y="795"/>
      <point x="345" y="819"/>
      <point x="301" y="819" type="curve" smooth="yes"/>
      <point x="242" y="819"/>
      <point x="207" y="773"/>
      <point x="207" y="698" type="curve" smooth="yes"/>
      <point x="207" y="649"/>
      <point x="230" y="625"/>
    </contour>
  </outline>
</glyph>
<glyph name="cedilla" format="2">
  <advance width="404.375"/>
  <unicode hex="00B8"/>
  <outline>
    <contour>
      <point x="-68.875" y="-492.0" type="curve" smooth="yes"/>
      <point x="81.0" y="-492.0"/>
      <point x="198.125" y="-410.125"/>
      <point x="198.125" y="-280.875" type="curve" smooth="yes"/>
      <point x="198.125" y="-188.375"/>
      <point x="135.75" y="-138.75"/>
      <point x="55.875" y="-127.0" type="curve"/>
      <point x="121.75" y="0.0" type="line"/>
      <point x="45.25" y="0.0" type="line"/>
      <point x="-51.875" y="-176.25" type="line"/>
      <point x="52.0" y="-180.0"/>
      <point x="108.625" y="-213.75"/>
      <point x="108.625" y="-280.875" type="curve" smooth="yes"/>
      <point x="108.625" y="-380.375"/>
      <point x="14.0" y="-419.875"/>
      <point x="-78.75" y="-419.875" type="curve" smooth="yes"/>
      <point x="-110.875" y="-419.875"/>
      <point x="-144.5" y="-416.625"/>
      <point x="-174.0" y="-409.375" type="curve"/>
      <point x="-174.0" y="-479.75" type="line"/>
      <point x="-147.625" y="-487.0"/>
      <point x="-112.0" y="-492.0"/>
    </contour>
  </outline>
</glyph>
<glyph name="onesuperior" format="2">
  <advance width="670.5"/>
  <unicode hex="00B9"/>
  <outline>
    <contour>
      <point x="391.5" y="851.25" type="line"/>
      <point x="481.25" y="851.25" type="line"/>
      <point x="667.25" y="1727.875" type="line"/>
      <point x="592.75" y="1727.875" type="line"/>
      <point x="296.75" y="1563.625" type="line"/>
      <point x="331.875" y="1499.5" type="line"/>
      <point x="435.125" y="1557.25" type="line" smooth="yes"/>
      <point x="490.625" y="1588.5"/>
      <point x="527.0" y="1612.625"/>
      <point x="566.25" y="1638.25" type="curve"/>
      <point x="547.75" y="1568.125"/>
      <point x="523.25" y="1476.375"/>
      <point x="508.0" y="1400.875" type="curve" smooth="yes"/>
    </contour>
  </outline>
</glyph>
<glyph name="ordmasculine" format="2">
  <advance width="711"/>
  <unicode hex="00BA"/>
  <anchor x="395" y="800" name="bottom"/>
  <anchor x="537" y="1491" name="top"/>
  <outline>
    <contour>
      <point x="421" y="800" type="curve" smooth="yes"/>
      <point x="636" y="800"/>
      <point x="761" y="1000"/>
      <point x="761" y="1228" type="curve" smooth="yes"/>
      <point x="761" y="1374"/>
      <point x="686" y="1483"/>
      <point x="530" y="1483" type="curve" smooth="yes"/>
      <point x="322" y="1483"/>
      <point x="187" y="1292"/>
      <point x="187" y="1058" type="curve" smooth="yes"/>
      <point x="187" y="899"/>
      <point x="277" y="800"/>
    </contour>
    <contour>
      <point x="426" y="872" type="curve" smooth="yes"/>
      <point x="324" y="872"/>
      <point x="266" y="942"/>
      <point x="266" y="1060" type="curve" smooth="yes"/>
      <point x="266" y="1257"/>
      <point x="372" y="1410"/>
      <point x="526" y="1410" type="curve" smooth="yes"/>
      <point x="626" y="1410"/>
      <point x="681" y="1337"/>
      <point x="681" y="1223" type="curve" smooth="yes"/>
      <point x="681" y="1036"/>
      <point x="581" y="872"/>
    </contour>
  </outline>
</glyph>
<glyph name="guillemotright" format="2">
  <advance width="841"/>
  <unicode hex="00BB"/>
  <outline>
    <contour>
      <point x="402" y="153" type="line"/>
      <point x="785" y="534" type="line"/>
      <point x="789" y="562" type="line"/>
      <point x="568" y="966" type="line"/>
      <point x="498" y="933" type="line"/>
      <point x="679" y="560" type="line"/>
      <point x="349" y="205" type="line"/>
    </contour>
    <contour>
      <point x="53" y="157" type="line"/>
      <point x="427" y="549" type="line"/>
      <point x="431" y="577" type="line"/>
      <point x="216" y="966" type="line"/>
      <point x="146" y="933" type="line"/>
      <point x="322" y="573" type="line"/>
      <point x="-3" y="205" type="line"/>
    </contour>
  </outline>
</glyph>
<glyph name="AE" format="2">
  <advance width="1635.5"/>
  <unicode hex="00C6"/>
  <anchor x="702.625" y="0.0" name="bottom"/>
  <anchor x="1013.625" y="1462.0" name="top"/>
  <outline>
    <contour>
      <point x="-109.625" y="0.0" type="line"/>
      <point x="9.374999999999993" y="0.0" type="line"/>
      <point x="328.75" y="516.25" type="line"/>
      <point x="759.25" y="516.25" type="line"/>
      <point x="650.125" y="0.0" type="line"/>
      <point x="1400.0" y="0.0" type="line"/>
      <point x="1419.375" y="92.625" type="line"/>
      <point x="773.5" y="92.625" type="line"/>
      <point x="907.0" y="722.125" type="line"/>
      <point x="1516.0" y="722.125" type="line"/>
      <point x="1533.875" y="814.625" type="line"/>
      <point x="925.125" y="814.625" type="line"/>
      <point x="1044.125" y="1369.375" type="line"/>
      <point x="1690.75" y="1369.375" type="line"/>
      <point x="1709.0" y="1462.0" type="line"/>
      <point x="807.0" y="1462.0" type="line"/>
    </contour>
    <contour>
      <point x="387.125" y="609.25" type="line"/>
      <point x="858.25" y="1369.375" type="line"/>
      <point x="938.5" y="1369.375" type="line"/>
      <point x="777.875" y="609.25" type="line"/>
    </contour>
  </outline>
</glyph>
<glyph name="Eth" format="2">
  <advance width="1352"/>
  <unicode hex="00D0"/>
  <outline>
    <contour>
      <point x="102" y="0" type="line"/>
      <point x="432" y="0" type="line" smooth="yes"/>
      <point x="602" y="0"/>
      <point x="751" y="35"/>
      <point x="878" y="105" type="curve" smooth="yes"/>
      <point x="1133" y="244"/>
      <point x="1288" y="542"/>
      <point x="1288" y="879" type="curve" smooth="yes"/>
      <point x="1288" y="1263"/>
      <point x="1093" y="1462"/>
      <point x="717" y="1462" type="curve" smooth="yes"/>
      <point x="412" y="1462" type="line"/>
      <point x="266" y="772" type="line"/>
      <point x="111" y="772" type="line"/>
      <point x="90" y="676" type="line"/>
      <point x="246" y="676" type="line"/>
    </contour>
    <contour>
      <point x="221" y="90" type="line"/>
      <point x="346" y="676" type="line"/>
      <point x="725" y="676" type="line"/>
      <point x="745" y="772" type="line"/>
      <point x="367" y="772" type="line"/>
      <point x="496" y="1370" type="line"/>
      <point x="702" y="1370" type="line" smooth="yes"/>
      <point x="1019" y="1370"/>
      <point x="1178" y="1204"/>
      <point x="1178" y="872" type="curve" smooth="yes"/>
      <point x="1178" y="718"/>
      <point x="1147" y="581"/>
      <point x="1086" y="460" type="curve" smooth="yes"/>
      <point x="962" y="219"/>
      <point x="731" y="90"/>
      <point x="430" y="90" type="curve" smooth="yes"/>
    </contour>
  </outline>
</glyph>
<glyph name="multiply" format="2">
  <advance width="1128"/>
  <unicode hex="00D7"/>
  <note>
multiply
</note>
  <outline>
    <contour>
      <point x="954" y="324" type="line"/>
      <point x="1022" y="391" type="line"/>
      <point x="690" y="723" type="line"/>
      <point x="1022" y="1057" type="line"/>
      <point x="954" y="1124" type="line"/>
      <point x="621" y="795" type="line"/>
      <point x="291" y="1124" type="line"/>
      <point x="221" y="1055" type="line"/>
      <point x="551" y="723" type="line"/>
      <point x="223" y="393" type="line"/>
      <point x="291" y="326" type="line"/>
      <point x="621" y="653" type="line"/>
    </contour>
  </outline>
</glyph>
<glyph name="Oslash" format="2">
  <advance width="1470"/>
  <unicode hex="00D8"/>
  <anchor x="620" y="0" name="bottom"/>
  <anchor x="932" y="1462" name="top"/>
  <outline>
    <contour>
      <point x="144" y="-65" type="line"/>
      <point x="312" y="127" type="line"/>
      <point x="395" y="34"/>
      <point x="516" y="-20"/>
      <point x="686" y="-20" type="curve" smooth="yes"/>
      <point x="1209" y="-20"/>
      <point x="1395" y="522"/>
      <point x="1395" y="912" type="curve" smooth="yes"/>
      <point x="1395" y="1059"/>
      <point x="1363" y="1185"/>
      <point x="1306" y="1270" type="curve"/>
      <point x="1480" y="1468" type="line"/>
      <point x="1411" y="1525" type="line"/>
      <point x="1249" y="1340" type="line"/>
      <point x="1161" y="1438"/>
      <point x="1037" y="1485"/>
      <point x="885" y="1485" type="curve" smooth="yes"/>
      <point x="407" y="1485"/>
      <point x="163" y="1028"/>
      <point x="163" y="558" type="curve" smooth="yes"/>
      <point x="163" y="418"/>
      <point x="191" y="292"/>
      <point x="253" y="194" type="curve"/>
      <point x="77" y="-6" type="line"/>
    </contour>
    <contour>
      <point x="690" y="72" type="curve" smooth="yes"/>
      <point x="547" y="72"/>
      <point x="442" y="122"/>
      <point x="375" y="204" type="curve"/>
      <point x="1235" y="1183" type="line"/>
      <point x="1270" y="1113"/>
      <point x="1289" y="1019"/>
      <point x="1289" y="912" type="curve" smooth="yes"/>
      <point x="1289" y="556"/>
      <point x="1115" y="72"/>
    </contour>
    <contour>
      <point x="325" y="280" type="line"/>
      <point x="288" y="355"/>
      <point x="269" y="452"/>
      <point x="269" y="561" type="curve" smooth="yes"/>
      <point x="269" y="943"/>
      <point x="452" y="1393"/>
      <point x="877" y="1393" type="curve" smooth="yes"/>
      <point x="1015" y="1393"/>
      <point x="1116" y="1345"/>
      <point x="1184" y="1263" type="curve"/>
    </contour>
  </outline>
</glyph>
<glyph name="Thorn" format="2">
  <advance width="1145"/>
  <unicode hex="00DE"/>
  <anchor x="457" y="0" name="bottom"/>
  <anchor x="768" y="1462" name="top"/>
  <outline>
    <contour>
      <point x="102" y="0" type="line"/>
      <point x="205" y="0" type="line"/>
      <point x="276" y="336" type="line"/>
      <point x="477" y="336" type="line" smooth="yes"/>
      <point x="628" y="336"/>
      <point x="751" y="360"/>
      <point x="846" y="406" type="curve" smooth="yes"/>
      <point x="1006" y="485"/>
      <point x="1087" y="629"/>
      <point x="1087" y="836" type="curve" smooth="yes"/>
      <point x="1087" y="1069"/>
      <point x="937" y="1196"/>
      <point x="670" y="1196" type="curve" smooth="yes"/>
      <point x="457" y="1196" type="line"/>
      <point x="514" y="1462" type="line"/>
      <point x="412" y="1462" type="line"/>
    </contour>
    <contour>
      <point x="293" y="428" type="line"/>
      <point x="438" y="1104" type="line"/>
      <point x="649" y="1104" type="line" smooth="yes"/>
      <point x="869" y="1104"/>
      <point x="979" y="1012"/>
      <point x="979" y="829" type="curve" smooth="yes"/>
      <point x="979" y="557"/>
      <point x="824" y="428"/>
      <point x="483" y="428" type="curve" smooth="yes"/>
    </contour>
  </outline>
</glyph>
<glyph name="germandbls" format="2">
  <advance width="1127.875"/>
  <unicode hex="00DF"/>
  <anchor x="345.125" y="-492.0" name="bottom"/>
  <anchor x="781.875" y="1567.0" name="top"/>
  <outline>
    <contour>
      <point x="-162.875" y="-492.0" type="curve" smooth="yes"/>
      <point x="-11.875000000000007" y="-492.0"/>
      <point x="81.375" y="-391.5"/>
      <point x="121.625" y="-201.375" type="curve" smooth="yes"/>
      <point x="407.375" y="1158.25" type="line" smooth="yes"/>
      <point x="450.5" y="1362.375"/>
      <point x="550.75" y="1479.625"/>
      <point x="748.125" y="1479.625" type="curve" smooth="yes"/>
      <point x="883.375" y="1479.625"/>
      <point x="965.125" y="1410.0"/>
      <point x="965.125" y="1308.875" type="curve" smooth="yes"/>
      <point x="965.125" y="1182.25"/>
      <point x="877.375" y="1124.0"/>
      <point x="787.375" y="1068.0" type="curve" smooth="yes"/>
      <point x="692.0" y="1008.125"/>
      <point x="595.25" y="947.125"/>
      <point x="595.25" y="798.375" type="curve" smooth="yes"/>
      <point x="595.25" y="700.0"/>
      <point x="664.625" y="638.0"/>
      <point x="754.875" y="560.0" type="curve" smooth="yes"/>
      <point x="829.875" y="493.875"/>
      <point x="880.75" y="434.0"/>
      <point x="880.75" y="332.75" type="curve" smooth="yes"/>
      <point x="880.75" y="166.5"/>
      <point x="778.125" y="67.0"/>
      <point x="589.75" y="67.0" type="curve" smooth="yes"/>
      <point x="494.5" y="67.0"/>
      <point x="401.875" y="97.625"/>
      <point x="334.25" y="138.875" type="curve"/>
      <point x="334.25" y="41.0" type="line"/>
      <point x="391.25" y="6.75"/>
      <point x="476.25" y="-20.0"/>
      <point x="598.0" y="-20.0" type="curve" smooth="yes"/>
      <point x="838.625" y="-20.0"/>
      <point x="985.375" y="113.875"/>
      <point x="985.375" y="340.25" type="curve" smooth="yes"/>
      <point x="985.375" y="473.5"/>
      <point x="913.625" y="551.5"/>
      <point x="830.25" y="625.125" type="curve" smooth="yes"/>
      <point x="771.125" y="677.5"/>
      <point x="694.375" y="729.25"/>
      <point x="694.375" y="802.5" type="curve" smooth="yes"/>
      <point x="694.375" y="905.5"/>
      <point x="774.625" y="958.375"/>
      <point x="859.375" y="1012.625" type="curve" smooth="yes"/>
      <point x="960.0" y="1078.0"/>
      <point x="1066.75" y="1147.25"/>
      <point x="1066.75" y="1314.625" type="curve" smooth="yes"/>
      <point x="1066.75" y="1463.75"/>
      <point x="953.375" y="1567.0"/>
      <point x="755.375" y="1567.0" type="curve" smooth="yes"/>
      <point x="504.5" y="1567.0"/>
      <point x="365.125" y="1429.125"/>
      <point x="307.5" y="1158.25" type="curve" smooth="yes"/>
      <point x="20.125" y="-200.875" type="line" smooth="yes"/>
      <point x="-7.75" y="-334.25"/>
      <point x="-70.875" y="-402.5"/>
      <point x="-166.875" y="-402.5" type="curve" smooth="yes"/>
      <point x="-207.375" y="-402.5"/>
      <point x="-247.375" y="-395.75"/>
      <point x="-280.375" y="-380.125" type="curve"/>
      <point x="-280.375" y="-471.0" type="line"/>
      <point x="-250.625" y="-483.0"/>
      <point x="-210.625" y="-492.0"/>
    </contour>
  </outline>
</glyph>
<glyph name="ae" format="2">
  <advance width="1707.125"/>
  <unicode hex="00E6"/>
  <anchor x="738.625" y="0.0" name="bottom"/>
  <anchor x="969.125" y="1087.375" name="top"/>
  <outline>
    <contour>
      <point x="383.875" y="-20.0" type="curve" smooth="yes"/>
      <point x="561.5" y="-20.0"/>
      <point x="679.625" y="109.875"/>
      <point x="763.125" y="246.125" type="curve"/>
      <point x="769.25" y="246.125" type="line"/>
      <point x="724.0" y="0.0" type="line"/>
      <point x="797.125" y="0.0" type="line"/>
      <point x="848.0" y="237.5" type="line"/>
      <point x="890.5" y="57.875"/>
      <point x="1027.25" y="-20.0"/>
      <point x="1199.0" y="-20.0" type="curve" smooth="yes"/>
      <point x="1306.125" y="-20.0"/>
      <point x="1413.5" y="8.5"/>
      <point x="1494.0" y="50.0" type="curve"/>
      <point x="1494.0" y="141.125" type="line"/>
      <point x="1413.0" y="104.75"/>
      <point x="1318.0" y="67.75"/>
      <point x="1212.625" y="67.75" type="curve" smooth="yes"/>
      <point x="1010.625" y="67.75"/>
      <point x="908.125" y="191.625"/>
      <point x="908.125" y="397.75" type="curve" smooth="yes"/>
      <point x="908.125" y="435.75"/>
      <point x="911.375" y="477.875"/>
      <point x="914.625" y="505.625" type="curve"/>
      <point x="973.75" y="505.625" type="line" smooth="yes"/>
      <point x="1374.125" y="505.625"/>
      <point x="1636.5" y="618.875"/>
      <point x="1636.5" y="867.0" type="curve" smooth="yes"/>
      <point x="1636.5" y="1016.0"/>
      <point x="1521.375" y="1108.0"/>
      <point x="1378.875" y="1108.0" type="curve" smooth="yes"/>
      <point x="1197.75" y="1108.0"/>
      <point x="1070.875" y="1013.5"/>
      <point x="981.5" y="875.375" type="curve"/>
      <point x="1027.375" y="1087.375" type="line"/>
      <point x="954.25" y="1087.375" type="line"/>
      <point x="893.5" y="869.25" type="line"/>
      <point x="886.875" y="869.25" type="line"/>
      <point x="864.5" y="972.5"/>
      <point x="801.375" y="1108.0"/>
      <point x="634.75" y="1108.0" type="curve" smooth="yes"/>
      <point x="303.375" y="1108.0"/>
      <point x="101.75" y="723.5"/>
      <point x="101.75" y="360.125" type="curve" smooth="yes"/>
      <point x="101.75" y="122.25"/>
      <point x="210.0" y="-20.0"/>
    </contour>
    <contour>
      <point x="410.125" y="67.75" type="curve" smooth="yes"/>
      <point x="280.25" y="67.75"/>
      <point x="206.125" y="173.625"/>
      <point x="206.125" y="360.125" type="curve" smooth="yes"/>
      <point x="206.125" y="683.5"/>
      <point x="374.5" y="1019.5"/>
      <point x="642.5" y="1019.5" type="curve" smooth="yes"/>
      <point x="770.0" y="1019.5"/>
      <point x="844.125" y="913.875"/>
      <point x="844.125" y="738.625" type="curve" smooth="yes"/>
      <point x="844.125" y="683.75"/>
      <point x="838.125" y="626.75"/>
      <point x="819.0" y="543.25" type="curve" smooth="yes"/>
      <point x="758.375" y="273.375"/>
      <point x="589.625" y="67.75"/>
    </contour>
    <contour>
      <point x="929.75" y="592.25" type="line"/>
      <point x="992.125" y="863.875"/>
      <point x="1172.375" y="1020.25"/>
      <point x="1361.375" y="1020.25" type="curve" smooth="yes"/>
      <point x="1471.375" y="1020.25"/>
      <point x="1535.375" y="952.625"/>
      <point x="1535.375" y="859.0" type="curve" smooth="yes"/>
      <point x="1535.375" y="670.0"/>
      <point x="1303.75" y="592.25"/>
      <point x="997.75" y="592.25" type="curve" smooth="yes"/>
    </contour>
  </outline>
</glyph>
<glyph name="eth" format="2">
  <advance width="1143"/>
  <unicode hex="00F0"/>
  <anchor x="457" y="0" name="bottom"/>
  <anchor x="789" y="1563" name="top"/>
  <outline>
    <contour>
      <point x="467" y="-20" type="curve" smooth="yes"/>
      <point x="862" y="-20"/>
      <point x="1033" y="360"/>
      <point x="1033" y="743" type="curve" smooth="yes"/>
      <point x="1033" y="1006"/>
      <point x="949" y="1205"/>
      <point x="848" y="1346" type="curve"/>
      <point x="1090" y="1479" type="line"/>
      <point x="1051" y="1547" type="line"/>
      <point x="796" y="1405" type="line"/>
      <point x="746" y="1461"/>
      <point x="685" y="1516"/>
      <point x="622" y="1563" type="curve"/>
      <point x="561" y="1490" type="line"/>
      <point x="623" y="1446"/>
      <point x="672" y="1403"/>
      <point x="713" y="1357" type="curve"/>
      <point x="459" y="1217" type="line"/>
      <point x="496" y="1149" type="line"/>
      <point x="767" y="1300" type="line"/>
      <point x="885" y="1144"/>
      <point x="941" y="939"/>
      <point x="940" y="743" type="curve"/>
      <point x="935" y="742" type="line"/>
      <point x="897" y="860"/>
      <point x="784" y="958"/>
      <point x="608" y="958" type="curve" smooth="yes"/>
      <point x="285" y="958"/>
      <point x="97" y="676"/>
      <point x="97" y="374" type="curve" smooth="yes"/>
      <point x="97" y="141"/>
      <point x="237" y="-20"/>
    </contour>
    <contour>
      <point x="473" y="68" type="curve" smooth="yes"/>
      <point x="303" y="68"/>
      <point x="201" y="192"/>
      <point x="201" y="376" type="curve" smooth="yes"/>
      <point x="201" y="632"/>
      <point x="344" y="871"/>
      <point x="609" y="871" type="curve" smooth="yes"/>
      <point x="829" y="871"/>
      <point x="902" y="704"/>
      <point x="902" y="584" type="curve" smooth="yes"/>
      <point x="902" y="295"/>
      <point x="719" y="68"/>
    </contour>
  </outline>
</glyph>
<glyph name="divide" format="2">
  <advance width="1168.5"/>
  <unicode hex="00F7"/>
  <outline>
    <contour>
      <point x="149.875" y="679.625" type="line"/>
      <point x="1100.5" y="679.625" type="line"/>
      <point x="1100.5" y="765.625" type="line"/>
      <point x="149.875" y="765.625" type="line"/>
    </contour>
    <contour>
      <point x="623.75" y="277.375" type="curve" smooth="yes"/>
      <point x="677.25" y="277.375"/>
      <point x="700.125" y="309.375"/>
      <point x="700.125" y="363.625" type="curve" smooth="yes"/>
      <point x="700.125" y="418.75"/>
      <point x="677.25" y="449.75"/>
      <point x="623.75" y="449.75" type="curve" smooth="yes"/>
      <point x="574.125" y="449.75"/>
      <point x="548.125" y="418.75"/>
      <point x="548.125" y="363.625" type="curve" smooth="yes"/>
      <point x="548.125" y="309.375"/>
      <point x="574.125" y="277.375"/>
    </contour>
    <contour>
      <point x="623.75" y="994.75" type="curve" smooth="yes"/>
      <point x="677.25" y="994.75"/>
      <point x="700.125" y="1026.75"/>
      <point x="700.125" y="1081.0" type="curve" smooth="yes"/>
      <point x="700.125" y="1136.125"/>
      <point x="677.25" y="1167.125"/>
      <point x="623.75" y="1167.125" type="curve" smooth="yes"/>
      <point x="574.125" y="1167.125"/>
      <point x="548.125" y="1136.125"/>
      <point x="548.125" y="1081.0" type="curve" smooth="yes"/>
      <point x="548.125" y="1026.75"/>
      <point x="574.125" y="994.75"/>
    </contour>
  </outline>
</glyph>
<glyph name="oslash" format="2">
  <advance width="1124"/>
  <unicode hex="00F8"/>
  <anchor x="678" y="1087" name="top"/>
  <outline>
    <contour>
      <point x="109" y="-72" type="line"/>
      <point x="1073" y="1106" type="line"/>
      <point x="1008" y="1159" type="line"/>
      <point x="45" y="-18" type="line"/>
    </contour>
    <component base="o"/>
  </outline>
</glyph>
<glyph name="thorn" format="2">
  <advance width="1171.625"/>
  <unicode hex="00FE"/>
  <anchor x="369.25" y="-481.375" name="bottom"/>
  <anchor x="801.5" y="1556.0" name="top"/>
  <outline>
    <contour>
      <point x="-38.75" y="-481.375" type="line"/>
      <point x="61.12499999999999" y="-481.375" type="line"/>
      <point x="158.0" y="-26.125" type="line" smooth="yes"/>
      <point x="173.375" y="46.0"/>
      <point x="191.0" y="145.125"/>
      <point x="200.5" y="218.0" type="curve"/>
      <point x="206.75" y="218.0" type="line"/>
      <point x="236.875" y="97.375"/>
      <point x="329.125" y="-20.0"/>
      <point x="513.0" y="-20.0" type="curve" smooth="yes"/>
      <point x="875.625" y="-20.0"/>
      <point x="1063.75" y="369.625"/>
      <point x="1063.75" y="726.0" type="curve" smooth="yes"/>
      <point x="1063.75" y="962.625"/>
      <point x="942.625" y="1107.25"/>
      <point x="751.625" y="1107.25" type="curve" smooth="yes"/>
      <point x="564.875" y="1107.25"/>
      <point x="423.125" y="970.25"/>
      <point x="337.625" y="833.0" type="curve"/>
      <point x="330.875" y="833.0" type="line"/>
      <point x="355.375" y="926.5"/>
      <point x="383.625" y="1044.125"/>
      <point x="404.625" y="1141.25" type="curve" smooth="yes"/>
      <point x="493.25" y="1556.0" type="line"/>
      <point x="392.0" y="1556.0" type="line"/>
    </contour>
    <contour>
      <point x="508.875" y="67.75" type="curve" smooth="yes"/>
      <point x="349.125" y="67.75"/>
      <point x="252.375" y="166.5"/>
      <point x="252.375" y="348.75" type="curve" smooth="yes"/>
      <point x="252.375" y="405.875"/>
      <point x="257.875" y="464.5"/>
      <point x="273.125" y="537.0" type="curve" smooth="yes"/>
      <point x="337.625" y="818.75"/>
      <point x="537.0" y="1019.5"/>
      <point x="723.25" y="1019.5" type="curve" smooth="yes"/>
      <point x="875.125" y="1019.5"/>
      <point x="959.75" y="911.125"/>
      <point x="959.75" y="727.5" type="curve" smooth="yes"/>
      <point x="959.75" y="411.125"/>
      <point x="801.625" y="67.75"/>
    </contour>
  </outline>
</glyph>
<glyph name="dcroat" format="2">
  <advance width="1163"/>
  <unicode hex="0111"/>
  <note>
dcroat
</note>
  <outline>
    <contour>
      <point x="383" y="-20" type="curve" smooth="yes"/>
      <point x="550" y="-20"/>
      <point x="692" y="78"/>
      <point x="807" y="274" type="curve"/>
      <point x="813" y="274" type="line"/>
      <point x="768" y="0" type="line"/>
      <point x="850" y="0" type="line"/>
      <point x="1120" y="1272" type="line"/>
      <point x="1274" y="1272" type="line"/>
      <point x="1294" y="1356" type="line"/>
      <point x="1138" y="1356" type="line"/>
      <point x="1180" y="1556" type="line"/>
      <point x="1081" y="1556" type="line"/>
      <point x="1038" y="1356" type="line"/>
      <point x="637" y="1356" type="line"/>
      <point x="616" y="1272" type="line"/>
      <point x="1020" y="1272" type="line"/>
      <point x="985" y="1110" type="line" smooth="yes"/>
      <point x="958" y="984"/>
      <point x="942" y="909"/>
      <point x="938" y="885" type="curve"/>
      <point x="934" y="885" type="line"/>
      <point x="901" y="1031"/>
      <point x="808" y="1104"/>
      <point x="655" y="1104" type="curve" smooth="yes"/>
      <point x="550" y="1104"/>
      <point x="455" y="1070"/>
      <point x="371" y="1003" type="curve" smooth="yes"/>
      <point x="194" y="860"/>
      <point x="102" y="598"/>
      <point x="102" y="354" type="curve" smooth="yes"/>
      <point x="102" y="105"/>
      <point x="196" y="-20"/>
    </contour>
    <contour>
      <point x="406" y="70" type="curve" smooth="yes"/>
      <point x="272" y="70"/>
      <point x="205" y="168"/>
      <point x="205" y="365" type="curve" smooth="yes"/>
      <point x="205" y="552"/>
      <point x="272" y="766"/>
      <point x="392" y="896" type="curve" smooth="yes"/>
      <point x="466" y="976"/>
      <point x="557" y="1018"/>
      <point x="657" y="1018" type="curve" smooth="yes"/>
      <point x="800" y="1018"/>
      <point x="887" y="909"/>
      <point x="887" y="741" type="curve" smooth="yes"/>
      <point x="887" y="607"/>
      <point x="825" y="422"/>
      <point x="745" y="301" type="curve" smooth="yes"/>
      <point x="651" y="160"/>
      <point x="525" y="70"/>
    </contour>
  </outline>
</glyph>
<glyph name="eogonek" format="2">
  <advance width="1012.0"/>
  <unicode hex="0119"/>
  <anchor x="315.75" y="-431.5" name="bottom"/>
  <anchor x="618.625" y="1087.375" name="top"/>
  <outline>
    <contour>
      <point x="572.625" y="-431.5" type="curve" smooth="yes"/>
      <point x="611.75" y="-431.5"/>
      <point x="648.875" y="-425.0"/>
      <point x="677.25" y="-416.25" type="curve"/>
      <point x="677.25" y="-342.625" type="line"/>
      <point x="652.625" y="-350.125"/>
      <point x="622.375" y="-355.375"/>
      <point x="588.375" y="-355.375" type="curve" smooth="yes"/>
      <point x="534.875" y="-355.375"/>
      <point x="504.5" y="-326.875"/>
      <point x="504.5" y="-272.375" type="curve" smooth="yes"/>
      <point x="504.5" y="-148.125"/>
      <point x="639.875" y="-47.0"/>
      <point x="758.375" y="44.5" type="curve"/>
      <point x="659.5" y="26.875000000000004" type="line"/>
      <point x="536.5" y="-51.625"/>
      <point x="415.875" y="-144.625"/>
      <point x="415.875" y="-283.5" type="curve" smooth="yes"/>
      <point x="415.875" y="-380.5"/>
      <point x="482.0" y="-431.5"/>
    </contour>
    <component base="e" xOffset="-8.75"/>
  </outline>
</glyph>
<glyph name="Hbar" format="2">
  <advance width="1394.25"/>
  <unicode hex="0126"/>
  <anchor x="582.5" y="0.0" name="bottom"/>
  <anchor x="893.5" y="1462.0" name="top"/>
  <outline>
    <contour>
      <point x="95.25" y="0.0" type="line"/>
      <point x="198.5" y="0.0" type="line"/>
      <point x="350.625" y="720.125" type="line"/>
      <point x="1131.125" y="720.125" type="line"/>
      <point x="978.375" y="0.0" type="line"/>
      <point x="1082.125" y="0.0" type="line"/>
      <point x="1315.25" y="1104.625" type="line"/>
      <point x="1511.5" y="1104.625" type="line"/>
      <point x="1530.5" y="1192.625" type="line"/>
      <point x="1333.875" y="1192.625" type="line"/>
      <point x="1391.125" y="1462.0" type="line"/>
      <point x="1287.75" y="1462.0" type="line"/>
      <point x="1230.625" y="1192.625" type="line"/>
      <point x="449.5" y="1192.625" type="line"/>
      <point x="507.5" y="1462.0" type="line"/>
      <point x="404.875" y="1462.0" type="line"/>
      <point x="347.5" y="1192.625" type="line"/>
      <point x="152.75" y="1192.625" type="line"/>
      <point x="133.0" y="1104.625" type="line"/>
      <point x="329.625" y="1104.625" type="line"/>
    </contour>
    <contour>
      <point x="370.25" y="813.375" type="line"/>
      <point x="431.375" y="1103.375" type="line"/>
      <point x="1211.25" y="1103.375" type="line"/>
      <point x="1150.125" y="813.375" type="line"/>
    </contour>
  </outline>
</glyph>
<glyph name="hbar" format="2">
  <advance width="1152.875"/>
  <unicode hex="0127"/>
  <anchor x="462.0" y="0.0" name="bottom"/>
  <anchor x="792.125" y="1556.0" name="top"/>
  <outline>
    <contour>
      <point x="62.625" y="0.0" type="line"/>
      <point x="163.625" y="0.0" type="line"/>
      <point x="273.25" y="522.0" type="line" smooth="yes"/>
      <point x="334.875" y="815.0"/>
      <point x="537.75" y="1013.875"/>
      <point x="731.0" y="1013.875" type="curve" smooth="yes"/>
      <point x="859.5" y="1013.875"/>
      <point x="930.125" y="949.5"/>
      <point x="930.125" y="818.0" type="curve" smooth="yes"/>
      <point x="930.125" y="785.125"/>
      <point x="925.375" y="743.375"/>
      <point x="914.25" y="693.125" type="curve" smooth="yes"/>
      <point x="767.5" y="0.0" type="line"/>
      <point x="868.125" y="0.0" type="line"/>
      <point x="1012.125" y="680.875" type="line" smooth="yes"/>
      <point x="1023.875" y="734.875"/>
      <point x="1031.375" y="784.625"/>
      <point x="1031.375" y="828.875" type="curve" smooth="yes"/>
      <point x="1031.375" y="1007.75"/>
      <point x="930.5" y="1102.0"/>
      <point x="754.75" y="1102.0" type="curve" smooth="yes"/>
      <point x="551.5" y="1102.0"/>
      <point x="409.25" y="947.125"/>
      <point x="336.375" y="827.0" type="curve"/>
      <point x="330.125" y="827.0" type="line"/>
      <point x="352.375" y="919.875"/>
      <point x="383.625" y="1046.625"/>
      <point x="433.125" y="1270.125" type="curve"/>
      <point x="853.25" y="1270.125" type="line"/>
      <point x="872.0" y="1352.625" type="line"/>
      <point x="449.125" y="1352.625" type="line"/>
      <point x="493.25" y="1556.0" type="line"/>
      <point x="392.0" y="1556.0" type="line"/>
      <point x="349.25" y="1352.625" type="line"/>
      <point x="204.0" y="1352.625" type="line"/>
      <point x="184.875" y="1270.125" type="line"/>
      <point x="333.25" y="1270.125" type="line"/>
    </contour>
  </outline>
</glyph>
<glyph name="idotless" format="2">
  <advance width="463.0"/>
  <unicode hex="0131"/>
  <anchor x="116.375" y="0.0" name="bottom"/>
  <anchor x="347.875" y="1087.375" name="top"/>
  <outline>
    <contour>
      <point x="62.625" y="0.0" type="line"/>
      <point x="163.625" y="0.0" type="line"/>
      <point x="394.125" y="1087.375" type="line"/>
      <point x="293.5" y="1087.375" type="line"/>
    </contour>
  </outline>
</glyph>
<glyph name="kgreenlandic" format="2">
  <advance width="942"/>
  <unicode hex="0138"/>
  <anchor x="357" y="0" name="bottom"/>
  <anchor x="588" y="1087" name="top"/>
  <outline>
    <contour>
      <point x="62" y="0" type="line"/>
      <point x="164" y="0" type="line"/>
      <point x="240" y="369" type="line"/>
      <point x="448" y="552" type="line"/>
      <point x="716" y="0" type="line"/>
      <point x="828" y="0" type="line"/>
      <point x="523" y="616" type="line"/>
      <point x="1014" y="1087" type="line"/>
      <point x="891" y="1087" type="line"/>
      <point x="255" y="473" type="line"/>
      <point x="252" y="473" type="line"/>
      <point x="277" y="569"/>
      <point x="305" y="678"/>
      <point x="331" y="799" type="curve" smooth="yes"/>
      <point x="393" y="1087" type="line"/>
      <point x="292" y="1087" type="line"/>
    </contour>
  </outline>
</glyph>
<glyph name="Lslash" format="2">
  <advance width="922"/>
  <unicode hex="0141"/>
  <note>
Lslash
</note>
  <outline>
    <contour>
      <point x="100" y="0" type="line"/>
      <point x="823" y="0" type="line"/>
      <point x="846" y="96" type="line"/>
      <point x="225" y="96" type="line"/>
      <point x="328" y="588" type="line"/>
      <point x="682" y="801" type="line"/>
      <point x="639" y="877" type="line"/>
      <point x="354" y="707" type="line"/>
      <point x="514" y="1462" type="line"/>
      <point x="412" y="1462" type="line"/>
      <point x="238" y="641" type="line"/>
      <point x="39" y="522" type="line"/>
      <point x="78" y="444" type="line"/>
      <point x="213" y="524" type="line"/>
    </contour>
  </outline>
</glyph>
<glyph name="lslash" format="2">
  <advance width="430"/>
  <unicode hex="0142"/>
  <note>
lslash
</note>
  <outline>
    <contour>
      <point x="76" y="0" type="line"/>
      <point x="170" y="0" type="line"/>
      <point x="326" y="727" type="line"/>
      <point x="573" y="868" type="line"/>
      <point x="532" y="940" type="line"/>
      <point x="350" y="836" type="line"/>
      <point x="504" y="1556" type="line"/>
      <point x="410" y="1556" type="line"/>
      <point x="240" y="772" type="line"/>
      <point x="10" y="637" type="line"/>
      <point x="47" y="565" type="line"/>
      <point x="217" y="664" type="line"/>
    </contour>
  </outline>
</glyph>
<glyph name="Eng" format="2">
  <advance width="1405.5"/>
  <unicode hex="014A"/>
  <anchor x="509.75" y="-367.625" name="bottom"/>
  <anchor x="899.375" y="1462.0" name="top"/>
  <outline>
    <contour>
      <point x="707.625" y="-367.625" type="curve" smooth="yes"/>
      <point x="917.125" y="-367.625"/>
      <point x="1044.5" y="-236.625"/>
      <point x="1095.25" y="6.25" type="curve" smooth="yes"/>
      <point x="1403.0" y="1462.0" type="line"/>
      <point x="1303.875" y="1462.0" type="line"/>
      <point x="1105.5" y="530.25" type="line" smooth="yes"/>
      <point x="1080.75" y="416.625"/>
      <point x="1056.5" y="279.25"/>
      <point x="1036.25" y="169.875" type="curve"/>
      <point x="1031.5" y="169.875" type="line"/>
      <point x="501.625" y="1462.0" type="line"/>
      <point x="404.125" y="1462.0" type="line"/>
      <point x="94.5" y="0.0" type="line"/>
      <point x="194.0" y="0.0" type="line"/>
      <point x="392.625" y="940.625" type="line"/>
      <point x="418.75" y="1064.625"/>
      <point x="438.375" y="1185.625"/>
      <point x="459.0" y="1298.25" type="curve"/>
      <point x="464.5" y="1298.25" type="line"/>
      <point x="994.625" y="14.375000000000002" type="line"/>
      <point x="958.375" y="-162.75"/>
      <point x="868.375" y="-273.75"/>
      <point x="705.625" y="-273.75" type="curve" smooth="yes"/>
      <point x="654.5" y="-273.75"/>
      <point x="609.25" y="-265.75"/>
      <point x="568.25" y="-253.75" type="curve"/>
      <point x="562.25" y="-342.0" type="line"/>
      <point x="593.75" y="-358.875"/>
      <point x="649.25" y="-367.625"/>
    </contour>
  </outline>
</glyph>
<glyph name="eng" format="2">
  <advance width="1152.875"/>
  <unicode hex="014B"/>
  <anchor x="357.375" y="-492.0" name="bottom"/>
  <anchor x="692.875" y="1087.375" name="top"/>
  <anchor x="1227.0" y="1087.375" name="topright"/>
  <outline>
    <contour>
      <point x="542.0" y="-492.0" type="curve" smooth="yes"/>
      <point x="695.375" y="-492.0"/>
      <point x="784.625" y="-393.25"/>
      <point x="822.625" y="-213.75" type="curve" smooth="yes"/>
      <point x="1014.0" y="688.0" type="line" smooth="yes"/>
      <point x="1025.375" y="740.875"/>
      <point x="1032.875" y="792.125"/>
      <point x="1032.875" y="840.5" type="curve" smooth="yes"/>
      <point x="1032.875" y="1015.25"/>
      <point x="930.5" y="1108.0"/>
      <point x="756.25" y="1108.0" type="curve" smooth="yes"/>
      <point x="553.0" y="1108.0"/>
      <point x="410.25" y="951.875"/>
      <point x="339.125" y="833.75" type="curve"/>
      <point x="332.875" y="833.75" type="line"/>
      <point x="376.75" y="1087.375" type="line"/>
      <point x="293.5" y="1087.375" type="line"/>
      <point x="62.625" y="0.0" type="line"/>
      <point x="163.625" y="0.0" type="line"/>
      <point x="275.5" y="528.0" type="line" smooth="yes"/>
      <point x="337.125" y="822.125"/>
      <point x="538.5" y="1019.5"/>
      <point x="732.5" y="1019.5" type="curve" smooth="yes"/>
      <point x="861.0" y="1019.5"/>
      <point x="931.625" y="955.5"/>
      <point x="931.625" y="827.75" type="curve" smooth="yes"/>
      <point x="931.625" y="792.25"/>
      <point x="926.125" y="751.25"/>
      <point x="915.0" y="699.875" type="curve" smooth="yes"/>
      <point x="723.375" y="-200.875" type="line" smooth="yes"/>
      <point x="696.625" y="-330.875"/>
      <point x="634.375" y="-403.25"/>
      <point x="539.875" y="-403.25" type="curve" smooth="yes"/>
      <point x="498.625" y="-403.25"/>
      <point x="457.875" y="-395.75"/>
      <point x="423.75" y="-380.875" type="curve"/>
      <point x="423.75" y="-471.0" type="line"/>
      <point x="454.625" y="-483.0"/>
      <point x="493.875" y="-492.0"/>
    </contour>
  </outline>
</glyph>
<glyph name="OE" format="2">
  <advance width="1785.875"/>
  <unicode hex="0152"/>
  <anchor x="777.75" y="0.0" name="bottom"/>
  <anchor x="1089.375" y="1462.0" name="top"/>
  <outline>
    <contour>
      <point x="686.25" y="-11.25" type="curve" smooth="yes"/>
      <point x="737.375" y="-11.25"/>
      <point x="785.375" y="-7.0"/>
      <point x="828.125" y="0.0" type="curve"/>
      <point x="1551.375" y="0.0" type="line"/>
      <point x="1570.75" y="92.625" type="line"/>
      <point x="923.5" y="92.625" type="line"/>
      <point x="1057.25" y="722.125" type="line"/>
      <point x="1665.625" y="722.125" type="line"/>
      <point x="1684.875" y="814.625" type="line"/>
      <point x="1075.875" y="814.625" type="line"/>
      <point x="1194.5" y="1369.375" type="line"/>
      <point x="1841.75" y="1369.375" type="line"/>
      <point x="1860.375" y="1462.0" type="line"/>
      <point x="1119.5" y="1462.0" type="line"/>
      <point x="1054.0" y="1476.5"/>
      <point x="981.5" y="1482.5"/>
      <point x="884.5" y="1482.5" type="curve" smooth="yes"/>
      <point x="406.625" y="1482.5"/>
      <point x="162.625" y="1027.875"/>
      <point x="162.625" y="558.25" type="curve" smooth="yes"/>
      <point x="162.625" y="227.625"/>
      <point x="319.375" y="-11.25"/>
    </contour>
    <contour>
      <point x="689.75" y="81.0" type="curve" smooth="yes"/>
      <point x="404.375" y="81.0"/>
      <point x="270.125" y="267.375"/>
      <point x="270.125" y="561.0" type="curve" smooth="yes"/>
      <point x="270.125" y="942.625"/>
      <point x="452.0" y="1389.875"/>
      <point x="877.125" y="1389.875" type="curve" smooth="yes"/>
      <point x="961.125" y="1389.875"/>
      <point x="1032.0" y="1382.5"/>
      <point x="1091.125" y="1370.625" type="curve"/>
      <point x="819.75" y="91.875" type="line"/>
      <point x="784.0" y="84.5"/>
      <point x="736.75" y="81.0"/>
    </contour>
  </outline>
</glyph>
<glyph name="oe" format="2">
  <advance width="1804.625"/>
  <unicode hex="0153"/>
  <anchor x="786.875" y="0.0" name="bottom"/>
  <anchor x="1017.75" y="1087.375" name="top"/>
  <outline>
    <contour>
      <point x="479.875" y="-18.5" type="curve" smooth="yes"/>
      <point x="685.25" y="-18.5"/>
      <point x="833.125" y="99.875"/>
      <point x="917.875" y="277.625" type="curve"/>
      <point x="958.125" y="68.625"/>
      <point x="1115.0" y="-20.0"/>
      <point x="1294.5" y="-20.0" type="curve" smooth="yes"/>
      <point x="1410.5" y="-20.0"/>
      <point x="1509.25" y="9.0"/>
      <point x="1589.5" y="55.0" type="curve"/>
      <point x="1584.5" y="146.125" type="line"/>
      <point x="1503.0" y="105.25"/>
      <point x="1424.5" y="67.75"/>
      <point x="1313.125" y="67.75" type="curve" smooth="yes"/>
      <point x="1117.0" y="67.75"/>
      <point x="1000.125" y="191.625"/>
      <point x="1000.125" y="397.75" type="curve" smooth="yes"/>
      <point x="1000.125" y="435.75"/>
      <point x="1003.375" y="477.875"/>
      <point x="1006.625" y="505.625" type="curve"/>
      <point x="1066.5" y="505.625" type="line" smooth="yes"/>
      <point x="1467.5" y="505.625"/>
      <point x="1727.625" y="618.875"/>
      <point x="1727.625" y="872.625" type="curve" smooth="yes"/>
      <point x="1727.625" y="1017.25"/>
      <point x="1616.375" y="1104.25"/>
      <point x="1462.25" y="1104.25" type="curve" smooth="yes"/>
      <point x="1254.75" y="1104.25"/>
      <point x="1098.75" y="982.75"/>
      <point x="1002.625" y="794.25" type="curve"/>
      <point x="973.625" y="973.75"/>
      <point x="864.75" y="1105.75"/>
      <point x="654.5" y="1105.75" type="curve" smooth="yes"/>
      <point x="320.625" y="1105.75"/>
      <point x="107.375" y="792.25"/>
      <point x="107.375" y="397.875" type="curve" smooth="yes"/>
      <point x="107.375" y="148.125"/>
      <point x="237.125" y="-18.5"/>
    </contour>
    <contour>
      <point x="487.375" y="69.25" type="curve" smooth="yes"/>
      <point x="306.375" y="69.25"/>
      <point x="210.375" y="193.375"/>
      <point x="210.375" y="399.375" type="curve" smooth="yes"/>
      <point x="210.375" y="761.25"/>
      <point x="388.875" y="1018.0"/>
      <point x="649.0" y="1018.0" type="curve" smooth="yes"/>
      <point x="832.375" y="1018.0"/>
      <point x="920.25" y="886.375"/>
      <point x="920.25" y="699.625" type="curve" smooth="yes"/>
      <point x="920.25" y="348.625"/>
      <point x="763.0" y="69.25"/>
    </contour>
    <contour>
      <point x="1019.5" y="592.25" type="line"/>
      <point x="1083.625" y="865.75"/>
      <point x="1261.375" y="1015.875"/>
      <point x="1456.5" y="1015.875" type="curve" smooth="yes"/>
      <point x="1567.375" y="1015.875"/>
      <point x="1626.625" y="952.375"/>
      <point x="1626.625" y="868.375" type="curve" smooth="yes"/>
      <point x="1626.625" y="671.25"/>
      <point x="1394.875" y="592.25"/>
      <point x="1088.875" y="592.25" type="curve" smooth="yes"/>
    </contour>
  </outline>
</glyph>
<glyph name="Tbar" format="2">
  <advance width="1005.375"/>
  <unicode hex="0166"/>
  <anchor x="388.25" y="0.0" name="bottom"/>
  <anchor x="699.625" y="1462.0" name="top"/>
  <outline>
    <contour>
      <point x="336.625" y="0.0" type="line"/>
      <point x="441.0" y="0.0" type="line"/>
      <point x="589.5" y="705.625" type="line"/>
      <point x="914.125" y="705.625" type="line"/>
      <point x="932.25" y="793.375" type="line"/>
      <point x="607.375" y="793.375" type="line"/>
      <point x="731.375" y="1369.375" type="line"/>
      <point x="1170.875" y="1369.375" type="line"/>
      <point x="1189.75" y="1462.0" type="line"/>
      <point x="207.75" y="1462.0" type="line"/>
      <point x="187.75" y="1369.375" type="line"/>
      <point x="626.625" y="1369.375" type="line"/>
      <point x="502.875" y="793.375" type="line"/>
      <point x="191.125" y="793.375" type="line"/>
      <point x="172.5" y="705.625" type="line"/>
      <point x="486.125" y="705.625" type="line"/>
    </contour>
  </outline>
</glyph>
<glyph name="tbar" format="2">
  <advance width="573"/>
  <unicode hex="0167"/>
  <note>
tbar
</note>
  <outline>
    <contour>
      <point x="45" y="598" type="line"/>
      <point x="555" y="598" type="line"/>
      <point x="573" y="680" type="line"/>
      <point x="63" y="680" type="line"/>
    </contour>
    <component base="t"/>
  </outline>
</glyph>
<glyph name="longs" format="2">
  <advance width="555.625"/>
  <unicode hex="017F"/>
  <anchor x="58.125" y="-492.0" name="bottom"/>
  <anchor x="494.875" y="1567.0" name="top"/>
  <outline>
    <contour>
      <point x="-160.375" y="-492.0" type="curve" smooth="yes"/>
      <point x="2.374999999999993" y="-492.0"/>
      <point x="87.625" y="-389.75"/>
      <point x="131.625" y="-184.0" type="curve" smooth="yes"/>
      <point x="433.875" y="1242.0" type="line" smooth="yes"/>
      <point x="464.75" y="1390.125"/>
      <point x="529.75" y="1479.625"/>
      <point x="680.25" y="1479.625" type="curve" smooth="yes"/>
      <point x="730.5" y="1479.625"/>
      <point x="784.125" y="1468.75"/>
      <point x="822.75" y="1452.25" type="curve"/>
      <point x="851.375" y="1535.5" type="line"/>
      <point x="819.75" y="1548.0"/>
      <point x="754.5" y="1567.0"/>
      <point x="677.0" y="1567.0" type="curve" smooth="yes"/>
      <point x="494.625" y="1567.0"/>
      <point x="381.5" y="1473.625"/>
      <point x="333.375" y="1247.0" type="curve" smooth="yes"/>
      <point x="33.0" y="-171.5" type="line" smooth="yes"/>
      <point x="-1.7500000000000004" y="-336.625"/>
      <point x="-65.375" y="-403.25"/>
      <point x="-165.625" y="-403.25" type="curve" smooth="yes"/>
      <point x="-204.875" y="-403.25"/>
      <point x="-246.125" y="-393.25"/>
      <point x="-274.875" y="-380.875" type="curve"/>
      <point x="-274.875" y="-471.0" type="line"/>
      <point x="-249.375" y="-481.75"/>
      <point x="-202.625" y="-492.0"/>
    </contour>
  </outline>
</glyph>
<glyph name="uni0180" format="2">
  <advance width="1152.875"/>
  <unicode hex="0180"/>
  <anchor x="462.0" y="0.0" name="bottom"/>
  <anchor x="792.125" y="1556.0" name="top"/>
  <outline>
    <contour>
      <point x="512.25" y="-20.0" type="curve" smooth="yes"/>
      <point x="874.875" y="-20.0"/>
      <point x="1063.75" y="369.625"/>
      <point x="1063.75" y="726.75" type="curve" smooth="yes"/>
      <point x="1063.75" y="963.375"/>
      <point x="941.875" y="1107.25"/>
      <point x="750.875" y="1107.25" type="curve" smooth="yes"/>
      <point x="560.375" y="1107.25"/>
      <point x="420.0" y="965.25"/>
      <point x="336.375" y="833.0" type="curve"/>
      <point x="330.875" y="833.0" type="line"/>
      <point x="350.125" y="903.75"/>
      <point x="387.125" y="1057.25"/>
      <point x="433.125" y="1275.875" type="curve"/>
      <point x="812.875" y="1275.875" type="line"/>
      <point x="830.0" y="1359.0" type="line"/>
      <point x="451.75" y="1359.0" type="line"/>
      <point x="493.25" y="1556.0" type="line"/>
      <point x="392.0" y="1556.0" type="line"/>
      <point x="350.5" y="1359.0" type="line"/>
      <point x="210.0" y="1359.0" type="line"/>
      <point x="194.125" y="1275.875" type="line"/>
      <point x="332.125" y="1275.875" type="line"/>
      <point x="62.625" y="0.0" type="line"/>
      <point x="143.0" y="0.0" type="line"/>
      <point x="201.25" y="218.0" type="line"/>
      <point x="207.5" y="218.0" type="line"/>
      <point x="236.125" y="97.375"/>
      <point x="328.0" y="-20.0"/>
    </contour>
    <contour>
      <point x="508.875" y="67.75" type="curve" smooth="yes"/>
      <point x="349.875" y="67.75"/>
      <point x="252.375" y="166.5"/>
      <point x="252.375" y="348.75" type="curve" smooth="yes"/>
      <point x="252.375" y="681.5"/>
      <point x="468.125" y="1019.5"/>
      <point x="723.25" y="1019.5" type="curve" smooth="yes"/>
      <point x="875.125" y="1019.5"/>
      <point x="959.75" y="911.125"/>
      <point x="959.75" y="727.5" type="curve" smooth="yes"/>
      <point x="959.75" y="411.125"/>
      <point x="801.625" y="67.75"/>
    </contour>
  </outline>
</glyph>
